<svg xmlns="http://www.w3.org/2000/svg" xml:space="preserve" stroke-miterlimit="10" style="fill-rule:nonzero;clip-rule:evenodd;stroke-linecap:round;stroke-linejoin:round" viewBox="0 0 1024 1024"><path fill="#f1d244" stroke="#000" stroke-linecap="butt" stroke-width="10" d="M60 40h900v940H60V40Z"/><path fill="#eb493a" stroke="#000" stroke-linecap="butt" stroke-width="4" d="M113.746 125.866H83.447V60.4h32.477c8.194.118 14 2.443 17.417 6.973 2.056 2.783 3.084 6.114 3.084 9.993 0 3.997-1.028 7.21-3.084 9.638-1.149 1.362-2.842 2.605-5.08 3.73 3.417 1.214 5.995 3.139 7.734 5.774 1.738 2.635 2.608 5.833 2.608 9.594 0 3.878-.998 7.358-2.994 10.437a18.238 18.238 0 0 1-4.763 5.152c-2.147 1.599-4.679 2.694-7.597 3.287-2.918.592-6.086.888-9.503.888Zm-.317-28.825H96.782v17.455h16.42c2.933 0 5.216-.385 6.849-1.155 2.964-1.421 4.445-4.145 4.445-8.172 0-3.405-1.436-5.744-4.309-7.017-1.602-.711-3.855-1.081-6.758-1.11Zm6.94-12.48c1.814-1.066 2.721-2.976 2.721-5.73 0-3.05-1.209-5.063-3.628-6.04-2.087-.68-4.748-1.021-7.984-1.021H96.783v14.434h16.419c2.933 0 5.322-.548 7.167-1.643Zm42.183-7.106v48.411h-13.109V77.455h13.109Zm0-17.455v11.68h-13.109V60h13.109Zm26.489 74.349c1.391 1.155 3.734 1.732 7.03 1.732 4.657 0 7.772-1.525 9.344-4.575 1.028-1.954 1.542-5.24 1.542-9.86v-3.108c-1.24 2.072-2.57 3.627-3.991 4.663-2.571 1.925-5.912 2.887-10.024 2.887-6.351 0-11.423-2.184-15.218-6.551-3.795-4.368-5.693-10.282-5.693-17.744 0-7.195 1.83-13.242 5.489-18.143 3.659-4.9 8.845-7.35 15.558-7.35 2.479 0 4.641.37 6.486 1.11 3.145 1.273 5.685 3.613 7.62 7.018v-6.973h12.564v45.924c0 6.247-1.073 10.955-3.22 14.123-3.689 5.448-10.765 8.172-21.228 8.172-6.32 0-11.475-1.214-15.467-3.642-3.991-2.427-6.199-6.055-6.622-10.881h14.061c.363 1.481.952 2.546 1.769 3.198Zm-2.177-25.005c1.753 4.086 4.898 6.129 9.434 6.129 3.024 0 5.579-1.118 7.666-3.353 2.086-2.236 3.129-5.796 3.129-10.682 0-4.59-.99-8.083-2.971-10.481-1.98-2.399-4.634-3.598-7.96-3.598-4.536 0-7.666 2.087-9.389 6.262-.907 2.221-1.361 4.96-1.361 8.217 0 2.813.484 5.315 1.452 7.506Zm58.92 25.005c1.391 1.155 3.734 1.732 7.03 1.732 4.657 0 7.772-1.525 9.344-4.575 1.028-1.954 1.542-5.24 1.542-9.86v-3.108c-1.24 2.072-2.57 3.627-3.991 4.663-2.571 1.925-5.912 2.887-10.025 2.887-6.35 0-11.422-2.184-15.217-6.551-3.795-4.368-5.693-10.282-5.693-17.744 0-7.195 1.83-13.242 5.489-18.143 3.659-4.9 8.845-7.35 15.558-7.35 2.479 0 4.641.37 6.486 1.11 3.145 1.273 5.685 3.613 7.62 7.018v-6.973h12.564v45.924c0 6.247-1.073 10.955-3.22 14.123-3.689 5.448-10.765 8.172-21.228 8.172-6.32 0-11.475-1.214-15.467-3.642-3.992-2.427-6.199-6.055-6.622-10.881h14.061c.363 1.481.952 2.546 1.769 3.198Zm-2.178-25.005c1.754 4.086 4.899 6.129 9.435 6.129 3.024 0 5.579-1.118 7.665-3.353 2.087-2.236 3.13-5.796 3.13-10.682 0-4.59-.99-8.083-2.971-10.481-1.98-2.399-4.634-3.598-7.96-3.598-4.536 0-7.666 2.087-9.389 6.262-.907 2.221-1.361 4.96-1.361 8.217 0 2.813.484 5.315 1.451 7.506Zm87.269 2.309c-.332 2.872-1.859 5.789-4.581 8.75-4.233 4.708-10.16 7.062-17.78 7.062-6.29 0-11.839-1.984-16.647-5.952-4.807-3.967-7.211-10.422-7.211-19.364 0-8.38 2.169-14.805 6.508-19.276 4.34-4.47 9.972-6.706 16.896-6.706 4.113 0 7.817.755 11.113 2.265 3.296 1.51 6.018 3.893 8.164 7.15 1.936 2.873 3.191 6.204 3.765 9.994.333 2.22.469 5.418.408 9.593h-33.837c.182 4.856 1.739 8.261 4.672 10.215 1.784 1.214 3.931 1.821 6.441 1.821 2.661 0 4.823-.74 6.486-2.221.907-.799 1.709-1.909 2.404-3.331h13.199Zm-12.791-14.834c-.211-3.346-1.247-5.885-3.107-7.617-1.859-1.732-4.165-2.598-6.917-2.598-2.993 0-5.314.918-6.962 2.754-1.648 1.835-2.684 4.322-3.107 7.461h20.093Zm56.199-17.144c3.871 2.428 6.093 6.603 6.668 12.525h-12.927c-.182-1.628-.651-2.916-1.406-3.864-1.422-1.717-3.841-2.576-7.258-2.576-2.812 0-4.815.43-6.01 1.288-1.194.859-1.791 1.865-1.791 3.02 0 1.451.635 2.502 1.905 3.154 1.27.68 5.76 1.85 13.471 3.508 5.141 1.185 8.996 2.976 11.566 5.374 2.54 2.428 3.81 5.463 3.81 9.105 0 4.797-1.821 8.713-5.465 11.748s-9.276 4.552-16.896 4.552c-7.771 0-13.509-1.606-17.213-4.819-3.705-3.212-5.557-7.306-5.557-12.28h13.109c.272 2.25.861 3.849 1.769 4.796 1.602 1.688 4.566 2.532 8.89 2.532 2.54 0 4.558-.37 6.055-1.11 1.497-.741 2.245-1.851 2.245-3.331 0-1.422-.604-2.502-1.814-3.243-1.21-.74-5.7-2.013-13.471-3.819-5.595-1.362-9.541-3.065-11.839-5.108-2.298-2.013-3.447-4.915-3.447-8.705 0-4.47 1.792-8.313 5.375-11.525 3.583-3.213 8.625-4.82 15.127-4.82 6.168 0 11.203 1.2 15.104 3.598Zm40.233 37.175v9.46l-6.124.222c-6.108.207-10.281-.829-12.519-3.109-1.451-1.451-2.177-3.686-2.177-6.706V86.915h-6.894v-9.016h6.894V64.397h12.791v13.502h8.029v9.016h-8.029v25.582c0 1.984.257 3.22.771 3.709.514.488 2.087.733 4.718.733.393 0 .808-.008 1.247-.023.438-.014.869-.037 1.293-.066ZM107.487 225.368c3.296 0 5.972-.356 8.028-1.066 3.901-1.362 5.852-3.894 5.852-7.595 0-2.161-.968-3.834-2.903-5.019-1.936-1.155-4.975-2.176-9.117-3.064l-7.076-1.555c-6.955-1.539-11.763-3.212-14.424-5.019-4.506-3.02-6.758-7.742-6.758-14.168 0-5.862 2.177-10.733 6.531-14.612 4.355-3.879 10.75-5.818 19.187-5.818 7.045 0 13.055 1.828 18.029 5.485 4.975 3.657 7.583 8.964 7.825 15.923h-13.426c-.242-3.939-1.996-6.737-5.262-8.395-2.177-1.095-4.883-1.643-8.119-1.643-3.598 0-6.471.711-8.618 2.132-2.147 1.421-3.22 3.405-3.22 5.951 0 2.339 1.058 4.086 3.175 5.241 1.36.77 4.263 1.673 8.708 2.709l11.521 2.71c5.05 1.184 8.86 2.768 11.431 4.752 3.991 3.079 5.987 7.535 5.987 13.369 0 5.981-2.336 10.948-7.008 14.9-4.672 3.953-11.271 5.93-19.799 5.93-8.709 0-15.558-1.947-20.547-5.841C82.494 226.782 80 221.43 80 214.62h13.335c.424 2.99 1.255 5.226 2.495 6.706 2.268 2.695 6.154 4.042 11.657 4.042Zm76.837-3.998h-24.63l-4.626 13.458h-14.606l23.859-65.466h15.784l23.677 65.466h-15.149l-4.309-13.458Zm-3.901-11.281-8.346-25.76-8.618 25.76h16.964Zm31.841-40.727h13.97v53.696h33.112v11.77h-47.082v-65.466Zm103.28 36.863h-32.476v16.833h37.012v11.77h-50.665v-65.466h49.032v11.592h-35.379v13.901h32.476v11.37Zm252.21-87.711c3.328 0 6.03-.359 8.106-1.077 3.938-1.376 5.908-3.934 5.908-7.673 0-2.184-.977-3.874-2.931-5.071-1.954-1.166-5.023-2.198-9.206-3.096l-7.144-1.57c-7.023-1.556-11.877-3.246-14.564-5.071-4.549-3.051-6.824-7.823-6.824-14.315 0-5.923 2.198-10.844 6.595-14.763C552.091 61.96 558.548 60 567.067 60c7.114 0 13.182 1.847 18.204 5.542 5.023 3.694 7.656 9.057 7.901 16.087h-13.557c-.244-3.979-2.015-6.806-5.312-8.481-2.199-1.107-4.931-1.66-8.198-1.66-3.633 0-6.534.717-8.702 2.153s-3.251 3.44-3.251 6.013c0 2.364 1.068 4.129 3.205 5.295 1.374.778 4.305 1.69 8.794 2.738l11.632 2.737c5.099 1.196 8.946 2.797 11.541 4.801 4.031 3.111 6.046 7.614 6.046 13.507 0 6.043-2.359 11.061-7.076 15.055-4.717 3.993-11.381 5.99-19.991 5.99-8.793 0-15.709-1.967-20.746-5.9-5.038-3.934-7.557-9.342-7.557-16.222h13.465c.427 3.021 1.267 5.28 2.519 6.776 2.289 2.722 6.213 4.083 11.77 4.083Zm66.727-14.224h-14.334v23.782h-14.015V61.929h29.403c6.778 0 12.182 1.706 16.212 5.116 4.03 3.41 6.046 8.69 6.046 15.84 0 7.808-2.016 13.327-6.046 16.558s-9.785 4.847-17.266 4.847Zm6.595-13.777c1.832-1.585 2.748-4.098 2.748-7.538 0-3.44-.923-5.893-2.771-7.36-1.847-1.465-4.434-2.198-7.762-2.198h-13.144v19.475h13.144c3.328 0 5.923-.793 7.785-2.379Zm74.285 8.661h-32.792v17.007h37.371v11.891h-51.156V61.929h49.508v11.712h-35.723v14.046h32.792v11.487Zm63.201 23.962c-5.038 4.517-11.48 6.776-19.327 6.776-9.709 0-17.342-3.051-22.899-9.154-5.557-6.133-8.335-14.539-8.335-25.219 0-11.547 3.16-20.447 9.48-26.699 5.496-5.445 12.488-8.167 20.976-8.167 11.358 0 19.662 3.65 24.914 10.95 2.9 4.097 4.457 8.21 4.671 12.34h-14.106c-.916-3.172-2.091-5.565-3.526-7.18-2.565-2.872-6.366-4.308-11.404-4.308-5.129 0-9.175 2.026-12.136 6.08-2.962 4.053-4.443 9.79-4.443 17.209 0 7.419 1.565 12.975 4.695 16.67 3.129 3.694 7.106 5.542 11.93 5.542 4.946 0 8.717-1.586 11.312-4.757 1.435-1.705 2.626-4.263 3.572-7.673h13.969c-1.222 7.21-4.336 13.073-9.343 17.59Zm19.006-61.206h14.014v66.142h-14.014V61.929Zm66.682 52.546h-24.868l-4.672 13.596h-14.747l24.09-66.143h15.938l23.906 66.143h-15.296l-4.351-13.596Zm-3.939-11.398-8.426-26.026-8.702 26.026h17.128Zm32.151-41.148h14.105v54.251H940v11.891h-47.538V61.929ZM661.777 240c-9.648 0-17.022-2.573-22.12-7.718-6.84-6.312-10.259-15.406-10.259-27.283 0-12.116 3.419-21.21 10.259-27.283 5.098-5.145 12.472-7.718 22.12-7.718 9.648 0 17.022 2.573 22.12 7.718 6.809 6.073 10.213 15.167 10.213 27.283 0 11.877-3.404 20.971-10.213 27.283-5.098 5.145-12.472 7.718-22.12 7.718Zm13.327-17.77c3.267-4.038 4.901-9.782 4.901-17.231 0-7.419-1.642-13.155-4.924-17.209-3.282-4.053-7.717-6.08-13.304-6.08-5.587 0-10.045 2.019-13.373 6.058-3.328 4.039-4.992 9.782-4.992 17.231 0 7.449 1.664 13.193 4.992 17.231 3.328 4.039 7.786 6.058 13.373 6.058s10.03-2.019 13.327-6.058Zm77.628-38.501h-33.845v15.212h29.631v11.488h-29.631v27.731h-14.014v-66.053h47.859v11.622Zm57.293 0H776.18v15.212h29.632v11.488H776.18v27.731h-14.014v-66.053h47.859v11.622Zm56.423 25.533h-32.791v17.007h37.371v11.891h-51.156v-66.142h49.507v11.711h-35.722v14.046h32.791v11.487Zm44.241 2.962h-14.564v25.936H882.34v-66.142h33.112c4.733.089 8.374.658 10.923 1.705 2.55 1.047 4.71 2.587 6.481 4.622a20.423 20.423 0 0 1 3.48 5.564c.855 2.034 1.283 4.353 1.283 6.955 0 3.141-.81 6.23-2.428 9.266-1.618 3.037-4.29 5.183-8.014 6.44 3.114 1.226 5.32 2.969 6.617 5.227 1.298 2.259 1.947 5.707 1.947 10.344v4.442c0 3.021.122 5.071.366 6.148.367 1.705 1.221 2.961 2.565 3.769v1.66h-15.526c-.427-1.466-.732-2.647-.916-3.545a32.004 32.004 0 0 1-.595-5.699l-.092-6.147c-.061-4.218-.847-7.03-2.358-8.436-1.512-1.406-4.343-2.109-8.496-2.109Zm8.564-12.026c2.809-1.257 4.214-3.74 4.214-7.449 0-4.009-1.359-6.701-4.076-8.077-1.527-.778-3.817-1.167-6.87-1.167h-16.396v17.77h15.984c3.175 0 5.557-.359 7.144-1.077Z"/><path fill="#ef9f46" stroke="#f5891d" stroke-linecap="butt" stroke-width="10" d="m509.447 800-15.987-35.905-20.362 33.618-11.361-37.625-24.415 30.801-6.555-38.752-28.083 27.498-1.646-39.268-31.309 23.762 3.289-39.165-34.04 19.651 8.172-38.444-36.235 15.23 12.926-37.117-37.858 10.569 17.477-35.204-38.884 5.741 21.751-32.737-39.297.823 25.683-29.752-39.091-4.109 29.21-26.299-38.267-8.975 32.275-22.431L220 528.209 254.833 510 220 491.791l36.84-13.701-32.275-22.431 38.267-8.975-29.21-26.299 39.091-4.109-25.683-29.752 39.297.823-21.751-32.737 38.884 5.741-17.477-35.204 37.858 10.569-12.926-37.117 36.235 15.23-8.172-38.444 34.04 19.651-3.289-39.165 31.309 23.762 1.646-39.268 28.083 27.498 6.555-38.752 24.415 30.801 11.361-37.625 20.362 33.618L509.447 220l15.988 35.905 20.362-33.618 11.361 37.625 24.414-30.801 6.556 38.752 28.083-27.498 1.646 39.268 31.309-23.762-3.289 39.165 34.04-19.651-8.172 38.444 36.235-15.23-12.926 37.117 37.858-10.569-17.477 35.204 38.884-5.741-21.751 32.737 39.297-.823-25.683 29.752 39.091 4.109-29.21 26.299 38.267 8.975-32.275 22.431 36.84 13.701L764.062 510l34.833 18.209-36.84 13.701 32.275 22.431-38.267 8.975 29.21 26.299-39.091 4.109 25.683 29.752-39.297-.823 21.751 32.737-38.884-5.741 17.477 35.204-37.858-10.569 12.926 37.117-36.235-15.23 8.172 38.444-34.04-19.651 3.289 39.165-31.309-23.762-1.646 39.268-28.083-27.498-6.556 38.752-24.414-30.801-11.361 37.625-20.362-33.618L509.447 800Z"/><path fill="#eb493a" stroke="#000" stroke-linecap="butt" stroke-width="10" d="M420 320h34.632v166.824H420V320Zm137.964 106.84h-35.425v59.984h-34.632V320h72.66c16.75 0 30.105 4.301 40.065 12.902 9.959 8.602 14.939 21.919 14.939 39.952 0 19.693-4.98 33.614-14.939 41.763-9.96 8.148-24.182 12.223-42.668 12.223Zm16.297-34.746c4.528-3.999 6.791-10.337 6.791-19.014s-2.282-14.864-6.847-18.561c-4.565-3.697-10.96-5.545-19.184-5.545h-32.482v49.119h32.482c8.224 0 14.638-2 19.24-5.999Z"/><path fill="#e94420" stroke="#000" stroke-linecap="butt" stroke-width="10" d="M233.886 679.069c-19.902 0-33.858-6.876-41.869-20.628-8.011-13.752-12.017-33.352-12.017-58.8s4.006-45.084 12.017-58.907C200.028 526.911 213.984 520 233.886 520s33.877 6.911 41.924 20.734c7.975 13.823 11.963 33.459 11.963 58.907 0 25.448-4.006 45.048-12.017 58.8-8.011 13.752-21.968 20.628-41.87 20.628Zm17.998-38.81c2.802-9.357 4.204-22.897 4.204-40.618 0-18.573-1.419-32.324-4.257-41.256-2.839-8.932-8.82-13.398-17.945-13.398-9.124 0-15.16 4.466-18.105 13.398-2.946 8.932-4.419 22.683-4.419 41.256 0 17.721 1.473 31.278 4.419 40.671 2.945 9.392 8.981 14.088 18.105 14.088 9.125 0 15.124-4.714 17.998-14.141Zm57.767 3.296h32.655v31.686h-32.655v-31.686Zm108.311 35.514c-19.902 0-33.858-6.876-41.87-20.628-8.011-13.752-12.016-33.352-12.016-58.8s4.005-45.084 12.016-58.907C384.104 526.911 398.06 520 417.962 520c19.902 0 33.877 6.911 41.924 20.734 7.975 13.823 11.962 33.459 11.962 58.907 0 25.448-4.005 45.048-12.016 58.8-8.011 13.752-21.968 20.628-41.87 20.628Zm17.998-38.81c2.802-9.357 4.203-22.897 4.203-40.618 0-18.573-1.419-32.324-4.257-41.256-2.838-8.932-8.819-13.398-17.944-13.398-9.125 0-15.16 4.466-18.106 13.398-2.945 8.932-4.418 22.683-4.418 41.256 0 17.721 1.473 31.278 4.418 40.671 2.946 9.392 8.981 14.088 18.106 14.088 9.125 0 15.124-4.714 17.998-14.141Zm57.766 3.296h32.655v31.686h-32.655v-31.686Zm108.312 35.514c-19.902 0-33.859-6.876-41.87-20.628-8.011-13.752-12.016-33.352-12.016-58.8s4.005-45.084 12.016-58.907c8.011-13.823 21.968-20.734 41.87-20.734 19.902 0 33.876 6.911 41.923 20.734 7.976 13.823 11.963 33.459 11.963 58.907 0 25.448-4.005 45.048-12.016 58.8-8.012 13.752-21.968 20.628-41.87 20.628Zm17.998-38.81c2.802-9.357 4.203-22.897 4.203-40.618 0-18.573-1.419-32.324-4.257-41.256-2.838-8.932-8.819-13.398-17.944-13.398-9.125 0-15.16 4.466-18.106 13.398-2.946 8.932-4.419 22.683-4.419 41.256 0 17.721 1.473 31.278 4.419 40.671 2.946 9.392 8.981 14.088 18.106 14.088 9.125 0 15.124-4.714 17.998-14.141Zm57.766 3.296h32.655v31.686h-32.655v-31.686Zm108.312 35.514c-19.902 0-33.859-6.876-41.87-20.628-8.011-13.752-12.017-33.352-12.017-58.8s4.006-45.084 12.017-58.907c8.011-13.823 21.968-20.734 41.87-20.734 19.902 0 33.876 6.911 41.923 20.734C836.012 554.557 840 574.193 840 599.641c0 25.448-4.006 45.048-12.017 58.8-8.011 13.752-21.967 20.628-41.869 20.628Zm17.998-38.81c2.802-9.357 4.203-22.897 4.203-40.618 0-18.573-1.419-32.324-4.257-41.256-2.838-8.932-8.82-13.398-17.944-13.398-9.125 0-15.16 4.466-18.106 13.398-2.946 8.932-4.419 22.683-4.419 41.256 0 17.721 1.473 31.278 4.419 40.671 2.946 9.392 8.981 14.088 18.106 14.088 9.124 0 15.124-4.714 17.998-14.141Z"/><path d="M345.233 869.702c-7.518 0-13.265-1.827-17.238-5.48-5.33-4.482-7.995-10.939-7.995-19.371 0-8.602 2.665-15.059 7.995-19.371 3.973-3.653 9.72-5.48 17.238-5.48 7.519 0 13.265 1.827 17.239 5.48 5.306 4.312 7.959 10.769 7.959 19.371 0 8.432-2.653 14.889-7.959 19.371-3.974 3.653-9.72 5.48-17.239 5.48Zm10.386-12.617c2.546-2.867 3.819-6.945 3.819-12.234 0-5.268-1.279-9.34-3.836-12.219-2.558-2.878-6.014-4.317-10.369-4.317-4.354 0-7.828 1.434-10.421 4.302-2.594 2.867-3.891 6.945-3.891 12.234s1.297 9.367 3.891 12.234c2.593 2.867 6.067 4.301 10.421 4.301 4.355 0 7.817-1.434 10.386-4.301Zm40.688-16.695c-3.45 0-5.818 1.307-7.103 3.919-.666 1.381-.999 3.144-.999 5.289v18.797h-10.136v-34.663h9.815v5.065c1.309-1.784 2.546-3.069 3.712-3.855 2.094-1.401 4.747-2.102 7.959-2.102 4.021 0 7.31.939 9.868 2.819 2.558 1.88 3.837 4.997 3.837 9.351v23.385h-10.422v-21.123c0-1.826-.273-3.228-.821-4.205-.999-1.785-2.902-2.677-5.71-2.677Zm26.554-18.956h10.172v46.961h-10.172v-46.961Zm35.905 37.849 8.03-25.615h10.815l-13.349 34.154c-2.57 6.584-4.604 10.668-6.103 12.25-1.499 1.582-4.497 2.374-8.994 2.374-.904 0-1.63-.006-2.177-.016a70.22 70.22 0 0 1-2.463-.112v-7.264l1.285.064c.999.042 1.951.01 2.855-.096.905-.106 1.666-.35 2.285-.733.594-.361 1.148-1.115 1.659-2.262.512-1.147.72-1.847.625-2.102l-14.277-36.257h11.314l8.495 25.615Zm62.744-20.868c4.593 0 8.358 1.391 11.296 4.174 2.939 2.782 4.408 6.34 4.408 10.673 0 4.312-1.439 8.114-4.318 11.406-2.879 3.292-7.353 4.938-13.42 4.938-6.52 0-11.326-2.432-14.419-7.296-2.403-3.802-3.605-8.708-3.605-14.719 0-3.526.167-6.393.5-8.602.595-3.93 1.749-7.201 3.462-9.813 1.475-2.231 3.408-4.025 5.799-5.385 2.392-1.359 5.253-2.039 8.584-2.039 4.806 0 8.637 1.099 11.493 3.298 2.855 2.198 4.461 5.124 4.818 8.777h-10.136c0-.743-.322-1.561-.964-2.453-1.095-1.444-2.748-2.166-4.961-2.166-3.307 0-5.663 1.656-7.067 4.97-.761 1.826-1.285 4.524-1.57 8.092 1.261-1.338 2.724-2.315 4.39-2.931 1.665-.616 3.569-.924 5.71-.924Zm-6.852 8.666c-1.999 1.381-2.998 3.611-2.998 6.691 0 2.485.749 4.513 2.248 6.085s3.403 2.358 5.711 2.358c2.26 0 4.039-.76 5.335-2.278 1.297-1.519 1.946-3.489 1.946-5.911 0-2.697-.738-4.763-2.213-6.196-1.475-1.434-3.284-2.151-5.425-2.151-1.737 0-3.272.467-4.604 1.402Zm44.649-1.625c-1.237 0-2.308.138-3.212.414-1.595.51-2.796 1.455-3.605 2.836l-9.137-.382 3.641-25.52h28.516v7.71h-21.164l-1.856 10.099c1.57-.913 2.796-1.518 3.676-1.816 1.475-.488 3.272-.732 5.389-.732 4.283 0 8.019 1.285 11.207 3.855 3.189 2.57 4.783 6.308 4.783 11.214 0 4.27-1.535 8.082-4.604 11.438-3.07 3.356-7.662 5.034-13.777 5.034-4.925 0-8.97-1.179-12.135-3.536-3.164-2.358-4.925-5.703-5.282-10.036h10.136c.405 1.975 1.178 3.499 2.32 4.572 1.142 1.072 2.808 1.609 4.997 1.609 2.522 0 4.443-.792 5.764-2.374 1.32-1.582 1.981-3.574 1.981-5.974 0-2.357-.619-4.349-1.856-5.974-1.238-1.624-3.165-2.437-5.782-2.437Zm40.652 0c-1.238 0-2.308.138-3.212.414-1.595.51-2.796 1.455-3.605 2.836l-9.137-.382 3.64-25.52h28.517v7.71h-21.164l-1.856 10.099c1.57-.913 2.796-1.518 3.676-1.816 1.475-.488 3.272-.732 5.389-.732 4.283 0 8.019 1.285 11.207 3.855 3.188 2.57 4.783 6.308 4.783 11.214 0 4.27-1.535 8.082-4.604 11.438-3.07 3.356-7.662 5.034-13.777 5.034-4.925 0-8.97-1.179-12.135-3.536-3.165-2.358-4.925-5.703-5.282-10.036h10.136c.404 1.975 1.178 3.499 2.32 4.572 1.142 1.072 2.808 1.609 4.997 1.609 2.522 0 4.443-.792 5.764-2.374 1.32-1.582 1.981-3.574 1.981-5.974 0-2.357-.619-4.349-1.856-5.974-1.238-1.624-3.165-2.437-5.782-2.437Zm35.155-14.05c-1.142 1.359-1.689 3.175-1.642 5.448h-9.493a20.61 20.61 0 0 1 1.32-6.531c.833-1.806 2.142-3.473 3.926-5.002 1.333-1.084 2.915-1.912 4.747-2.485 1.832-.574 4.081-.861 6.746-.861 4.949 0 8.94 1.142 11.974 3.425 3.034 2.284 4.55 5.347 4.55 9.192 0 2.719-.904 5.013-2.712 6.882-1.142 1.168-2.332 1.964-3.569 2.389.928 0 2.26.712 3.997 2.135 2.594 2.145 3.891 5.076 3.891 8.793 0 3.908-1.517 7.344-4.551 10.307-3.034 2.963-7.525 4.444-13.473 4.444-7.329 0-12.421-2.134-15.276-6.404-1.499-2.272-2.332-5.246-2.498-8.92h9.993c0 1.848.333 3.377.999 4.588 1.238 2.23 3.486 3.345 6.746 3.345 1.999 0 3.742-.611 5.229-1.832s2.23-2.979 2.23-5.273c0-3.037-1.38-5.066-4.14-6.085-1.57-.574-4.045-.86-7.423-.86v-6.5c3.307-.042 5.615-.329 6.924-.86 2.26-.892 3.39-2.698 3.39-5.416 0-1.763-.577-3.197-1.731-4.301-1.154-1.105-2.778-1.657-4.872-1.657-2.403 0-4.164.68-5.282 2.039ZM700 851.35v7.105h-5.853v9.94h-9.958v-9.94h-20.487v-7.933l19.024-28.037h11.421v28.865H700Zm-28.767 0h12.956v-19.944l-12.956 19.944ZM390.4 915.332c3.141 2.995 4.711 7.392 4.711 13.19 0 6.117-1.54 10.78-4.622 13.987-3.081 3.207-7.049 4.811-11.903 4.811-3.093 0-5.662-.691-7.709-2.071-1.118-.765-2.213-1.88-3.283-3.345V960h-10.065v-48.395h9.743v5.129c1.095-1.508 2.261-2.697 3.498-3.568 2.261-1.551 4.949-2.326 8.066-2.326 4.545 0 8.4 1.497 11.564 4.492Zm-5.782 13.636c0-2.676-.684-5.044-2.052-7.104-1.368-2.061-3.587-3.091-6.656-3.091-3.688 0-6.222 1.561-7.602 4.684-.714 1.656-1.071 3.759-1.071 6.308 0 4.035 1.201 6.871 3.605 8.506 1.427.956 3.117 1.434 5.068 1.434 2.831 0 4.99-.977 6.478-2.931 1.487-1.954 2.23-4.556 2.23-7.806Zm50.289-12.967c3.283 3.675 4.925 8.018 4.925 13.031 0 5.098-1.642 9.457-4.925 13.079-3.284 3.621-8.269 5.432-14.955 5.432s-11.671-1.811-14.954-5.432c-3.284-3.622-4.926-7.981-4.926-13.079 0-5.013 1.642-9.356 4.926-13.031 3.283-3.674 8.268-5.511 14.954-5.511s11.671 1.837 14.955 5.511Zm-14.991 2.167c-2.974 0-5.264.94-6.87 2.819-1.606 1.88-2.409 4.562-2.409 8.045 0 3.483.803 6.17 2.409 8.061 1.606 1.89 3.896 2.835 6.87 2.835 2.975 0 5.259-.945 6.853-2.835 1.594-1.891 2.391-4.578 2.391-8.061 0-3.483-.797-6.165-2.391-8.045-1.594-1.879-3.878-2.819-6.853-2.819Zm46.755 1.816c-4.092 0-6.84 1.189-8.244 3.568-.785 1.338-1.178 3.399-1.178 6.181v16.599h-10.243v-34.727h9.708v6.053c1.57-2.315 2.938-3.898 4.104-4.747 1.904-1.423 4.378-2.135 7.424-2.135.19 0 .351.006.482.016.13.011.422.027.874.048v9.303a30.255 30.255 0 0 0-2.927-.159Zm26.697 19.88v6.787l-4.818.159c-4.807.149-8.09-.595-9.851-2.23-1.142-1.041-1.713-2.645-1.713-4.811v-21.378h-5.425v-6.468h5.425v-9.685h10.065v9.685h6.317v6.468h-6.317v18.351c0 1.423.202 2.31.607 2.66.404.351 1.641.526 3.711.526a30.812 30.812 0 0 0 1.999-.064Zm33.335-26.666c3.046 1.741 4.795 4.736 5.247 8.984h-10.172c-.143-1.168-.512-2.092-1.106-2.772-1.119-1.232-3.022-1.848-5.711-1.848-2.213 0-3.789.308-4.729.924-.94.616-1.41 1.339-1.41 2.167 0 1.041.5 1.795 1.499 2.262 1 .488 4.533 1.327 10.6 2.517 4.045.849 7.079 2.135 9.102 3.855 1.998 1.742 2.998 3.919 2.998 6.531 0 3.441-1.434 6.25-4.301 8.427-2.867 2.177-7.299 3.266-13.295 3.266-6.115 0-10.63-1.152-13.545-3.457-2.914-2.304-4.372-5.241-4.372-8.809h10.315c.214 1.614.678 2.761 1.392 3.441 1.261 1.21 3.593 1.816 6.995 1.816 1.999 0 3.587-.266 4.765-.797 1.178-.531 1.767-1.327 1.767-2.389 0-1.02-.476-1.795-1.428-2.326-.952-.531-4.485-1.444-10.6-2.74-4.402-.977-7.507-2.198-9.315-3.664-1.809-1.444-2.713-3.526-2.713-6.245 0-3.207 1.41-5.963 4.229-8.267 2.82-2.305 6.788-3.457 11.903-3.457 4.854 0 8.816.86 11.885 2.581Zm34.371-13.828h10.171v46.962h-10.171V899.37Zm53.393 36.767c-.262 2.06-1.463 4.152-3.605 6.276-3.331 3.377-7.995 5.066-13.991 5.066-4.949 0-9.315-1.423-13.098-4.269-3.783-2.846-5.675-7.477-5.675-13.891 0-6.011 1.707-10.62 5.122-13.827 3.414-3.208 7.846-4.811 13.295-4.811 3.235 0 6.15.541 8.744 1.625 2.593 1.083 4.735 2.793 6.424 5.129 1.523 2.06 2.51 4.45 2.962 7.169.262 1.593.369 3.886.322 6.881h-26.626c.143 3.484 1.368 5.926 3.676 7.328 1.404.871 3.094 1.306 5.069 1.306 2.093 0 3.795-.531 5.103-1.593.714-.573 1.345-1.37 1.892-2.389h10.386Zm-10.065-10.641c-.166-2.401-.981-4.222-2.445-5.464-1.463-1.243-3.277-1.864-5.442-1.864-2.356 0-4.182.658-5.479 1.975-1.297 1.317-2.112 3.101-2.445 5.353h15.811Zm35.655-26.412v7.391c-.571-.064-1.528-.111-2.873-.143-1.344-.032-2.272.233-2.784.796-.511.563-.767 1.184-.767 1.864v2.931h6.674v6.404h-6.674v28.005h-10.136v-28.005h-5.675v-6.404h5.568v-2.23c0-3.717.702-6.276 2.105-7.678 1.476-2.082 5.033-3.123 10.672-3.123.642 0 1.225.016 1.749.048.523.032 1.237.08 2.141.144Zm23.913 40.78v6.787l-4.818.159c-4.806.149-8.09-.595-9.851-2.23-1.142-1.041-1.713-2.645-1.713-4.811v-21.378h-5.425v-6.468h5.425v-9.685h10.065v9.685h6.317v6.468h-6.317v18.351c0 1.423.202 2.31.607 2.66.404.351 1.641.526 3.711.526a30.812 30.812 0 0 0 1.999-.064Z"/></svg>