<svg xmlns="http://www.w3.org/2000/svg" xml:space="preserve" stroke-miterlimit="10" style="fill-rule:nonzero;clip-rule:evenodd;stroke-linecap:round;stroke-linejoin:round" viewBox="0 0 1024 1024"><g stroke="#000" stroke-linecap="butt" stroke-width="5"><path fill="#ef9f46" d="M605.236 8.769 59.13 551.481l370.572 368.268 546.105-542.711L605.236 8.769Z"/><path fill="#ddd" d="M430.756 919.749 59.13 550.433s-16.91 26.268-16.91 50.889c0 24.622 16.91 47.595 16.91 47.595l371.626 369.313"/><path fill="#adadad" d="m430.756 1018.23 545.051-541.66s-12.387-12.311-12.387-36.932c0-24.621 12.387-61.553 12.387-61.553L430.756 919.749s-13.663 18.8-13.663 43.421 13.663 55.06 13.663 55.06Z"/></g><path fill="#e94420" d="m308.365 640.403-6.454-6.453-10.928 10.928-6.309-6.31 30.392-30.392 13.238 13.237c3.051 3.052 4.701 6.268 4.948 9.65.248 3.381-1.271 6.715-4.557 10-3.587 3.588-7.031 5.217-10.33 4.887-3.299-.33-6.632-2.179-10-5.547Zm9.299-3.361c1.554.097 3.121-.646 4.701-2.226 1.581-1.581 2.293-3.124 2.135-4.629-.159-1.506-.987-3.007-2.485-4.506l-5.918-5.917-8.948 8.948 5.917 5.918c1.499 1.498 3.031 2.302 4.598 2.412Zm18.743 48.723c-4.344-.192-8.282-2.055-11.815-5.588-4.371-4.371-6.405-9.209-6.103-14.515.316-5.32 2.928-10.434 7.835-15.341 5.306-5.306 10.818-7.973 16.537-8 4.976-.028 9.375 1.869 13.196 5.691 5.113 5.113 7.175 10.529 6.186 16.247-.578 3.19-1.767 5.781-3.567 7.774l-6.351-6.351c1.045-1.869 1.615-3.498 1.711-4.886.165-2.475-.886-4.846-3.154-7.114-2.31-2.309-5.062-3.199-8.258-2.67-3.196.529-6.499 2.498-9.908 5.907s-5.258 6.667-5.546 9.774c-.289 3.106.653 5.745 2.824 7.917 2.227 2.227 4.654 3.196 7.279 2.908 1.43-.138 3.141-.777 5.134-1.918l6.289 6.289c-3.863 2.763-7.959 4.055-12.289 3.876Zm-84.677-26.893c.138-1.539-.446-2.962-1.752-4.268-1.787-1.787-3.67-2.337-5.65-1.649-1.141.398-2.584 1.402-4.33 3.01l-5.711-5.712c2.639-2.446 5.155-4.041 7.546-4.783 4.55-1.416 8.825-.124 12.825 3.876 3.162 3.162 4.801 6.554 4.918 10.176.117 3.622-1.268 6.876-4.155 9.763-2.213 2.213-4.838 3.519-7.876 3.917-2.007.275-4.701.124-8.083-.453l-4.021-.681c-2.515-.426-4.278-.677-5.288-.752a9.369 9.369 0 0 0-3 .258l13.051 13.051-5.175 5.176-20.475-20.475c2.2-2.089 4.619-3.588 7.258-4.495 2.832-1.155 6.921-1.285 12.269-.392 4.646.77 7.787 1.134 9.422 1.093 2.53-.082 4.571-.9 6.124-2.454 1.265-1.264 1.966-2.666 2.103-4.206Zm-4.123 44.991c-3.808-3.808-5.145-7.811-4.011-12.011 1.134-4.199 4.169-8.766 9.104-13.701 4.934-4.935 9.508-7.976 13.721-9.124 4.214-1.148 8.224.182 12.032 3.99 3.807 3.807 5.141 7.821 4 12.041-1.155 4.207-4.2 8.777-9.134 13.712-4.935 4.935-9.502 7.969-13.702 9.103-4.199 1.134-8.203-.202-12.01-4.01Zm10.969-4.083c2.351-1.278 5.244-3.635 8.681-7.072 3.601-3.601 5.996-6.54 7.185-8.815 1.189-2.275.911-4.285-.835-6.031-1.746-1.745-3.766-2.034-6.062-.866-2.295 1.169-5.244 3.554-8.845 7.155-3.437 3.437-5.784 6.347-7.042 8.732-1.257 2.385-1.013 4.451.732 6.196 1.746 1.746 3.808 1.98 6.186.701Zm40.125 6.062c.137-1.539-.447-2.962-1.753-4.268-1.787-1.787-3.67-2.337-5.65-1.649-1.141.398-2.584 1.402-4.33 3.01l-5.711-5.711c2.639-2.447 5.155-4.042 7.546-4.784 4.55-1.416 8.825-.124 12.825 3.876 3.162 3.162 4.801 6.554 4.918 10.176.117 3.622-1.268 6.876-4.155 9.763-2.213 2.213-4.838 3.519-7.876 3.918-2.007.274-4.701.123-8.083-.454l-4.02-.681c-2.516-.426-4.279-.677-5.289-.752a9.369 9.369 0 0 0-3 .258l13.052 13.051-5.176 5.176-20.475-20.475c2.2-2.089 4.619-3.588 7.258-4.495 2.832-1.154 6.921-1.285 12.269-.392 4.646.77 7.787 1.134 9.423 1.093 2.529-.082 4.57-.9 6.123-2.453 1.265-1.265 1.966-2.667 2.104-4.207Zm17.01 16.764c-1.539.22-3.031 1.079-4.474 2.577l-5.485-5.485c1.54-1.429 3.203-2.584 4.99-3.464 1.65-.687 3.485-1.01 5.505-.969 1.471.069 2.921.447 4.351 1.134 1.43.688 2.914 1.801 4.454 3.341 2.859 2.859 4.426 5.903 4.701 9.134.275 3.23-.832 6.089-3.32 8.577-1.759 1.76-3.766 2.722-6.021 2.887-1.415.096-2.618-.076-3.608-.516.536.537.845 1.767.928 3.691.11 2.887-1.038 5.533-3.443 7.939-2.53 2.529-5.629 3.876-9.3 4.041-3.67.165-7.223-1.471-10.66-4.907-4.233-4.234-5.794-8.557-4.68-12.97.605-2.337 2.048-4.742 4.33-7.216l5.773 5.773c-1.196 1.196-1.993 2.378-2.392 3.546-.728 2.158-.151 4.179 1.732 6.062 1.155 1.155 2.557 1.767 4.207 1.835 1.649.069 3.216-.639 4.701-2.123 1.965-1.966 2.481-4.076 1.546-6.33-.536-1.279-1.78-2.894-3.732-4.846l4.206-4.206c1.939 1.883 3.458 3.031 4.557 3.443 1.883.729 3.705.213 5.464-1.546 1.141-1.141 1.736-2.402 1.784-3.784.048-1.381-.533-2.677-1.743-3.886-1.388-1.389-2.845-1.966-4.371-1.732Zm244.173-521.597-15.555-15.555 36.109-36.109 15.555 15.556c2.205 2.27 3.805 4.393 4.802 6.369 1.698 3.364 2.221 6.941 1.567 10.73-.538 3.054-1.624 5.854-3.258 8.402-1.633 2.548-3.397 4.769-5.291 6.663-4.801 4.802-9.832 7.905-15.09 9.309-7.104 1.878-13.384.09-18.839-5.365Zm32.508-21.288c.8-3.119-.514-6.393-3.944-9.823l-6.957-6.957-23.566 23.566 6.957 6.957c3.56 3.561 7.798 4.287 12.714 2.181 2.695-1.16 5.373-3.071 8.035-5.733 3.674-3.674 5.928-7.071 6.761-10.191Zm21.484 21.876-26.702 26.702-7.079-7.079 26.701-26.702 7.08 7.079Zm9.628-9.627-6.443 6.443-7.08-7.08 6.443-6.443 7.08 7.08Zm10.656 49.068-7.153-7.153c.865-1.127 1.429-2.36 1.69-3.699.294-1.862-.384-3.618-2.033-5.267-2.352-2.352-5.128-2.793-8.329-1.323-1.699.784-3.577 2.205-5.635 4.262-1.959 1.96-3.307 3.765-4.042 5.414-1.388 3.054-.931 5.733 1.372 8.035 1.633 1.633 3.234 2.352 4.802 2.156 1.567-.196 3.127-.923 4.679-2.18l7.128 7.128c-2.286 1.96-5.063 3.201-8.329 3.724-5.242.866-10.011-.849-14.306-5.144-4.295-4.296-6.182-8.73-5.659-13.302.523-4.573 2.817-8.893 6.884-12.959 4.589-4.589 9.276-7.039 14.061-7.349 4.785-.311 9.146 1.502 13.082 5.438 3.348 3.348 5.336 6.839 5.965 10.472.628 3.634-.764 7.55-4.177 11.747Zm4.875 29.176-5.218 5.218-3.43-3.185c-3.413-3.184-5.095-6.01-5.046-8.476.016-1.584.857-3.209 2.523-4.875l16.438-16.437-3.724-3.724 4.973-4.973 3.724 3.724 7.447-7.447 6.908 6.908-7.447 7.447 4.336 4.336-4.973 4.973-4.336-4.336-14.11 14.11c-1.095 1.094-1.638 1.915-1.63 2.462.009.547.723 1.531 2.144 2.952a28.339 28.339 0 0 0 1.421 1.323Zm33.389-10.068-26.701 26.702-7.08-7.08 26.702-26.702 7.079 7.08Zm9.628-9.628-6.443 6.443-7.08-7.08 6.443-6.442 7.08 7.079Zm16.021 42.037c-.572 5.08-2.784 9.546-6.639 13.4-3.919 3.92-8.398 6.145-13.436 6.676-5.039.531-9.852-1.499-14.442-6.088-4.589-4.589-6.618-9.403-6.087-14.441.531-5.038 2.756-9.517 6.675-13.436 3.855-3.855 8.321-6.068 13.4-6.639 5.079-.572 9.914 1.437 14.503 6.026 4.589 4.589 6.598 9.423 6.026 14.502Zm-11.955-8.623c-2.041-2.041-4.336-2.89-6.883-2.547-2.548.343-5.161 1.853-7.839 4.532-2.679 2.678-4.194 5.295-4.545 7.851s.494 4.855 2.536 6.896c2.041 2.041 4.336 2.883 6.884 2.523 2.547-.359 5.16-1.878 7.839-4.556 2.678-2.679 4.193-5.288 4.544-7.827.351-2.54-.494-4.83-2.536-6.872Zm31.112 31.357c-2.368-2.368-4.998-2.989-7.888-1.862-1.519.604-3.103 1.731-4.753 3.381l-14.453 14.453-6.957-6.957 26.653-26.653 6.736 6.737-3.895 3.895c2.27-.474 4.108-.613 5.512-.417 2.515.359 4.875 1.641 7.08 3.846 2.76 2.76 4.295 5.741 4.605 8.942.311 3.201-1.208 6.475-4.556 9.823l-17.981 17.981-7.153-7.153 16.241-16.242c1.405-1.404 2.295-2.67 2.671-3.797.686-2.058.065-4.05-1.862-5.977Zm21.361 16.805c4.198-.506 8.542 1.486 13.033 5.977 2.923 2.924 4.94 6.1 6.051 9.53 1.11 3.429.057 6.753-3.16 9.97l-12.249 12.249a166.04 166.04 0 0 0-3.038 3.135c-.865.964-1.347 1.723-1.445 2.278-.098.556-.025 1.168.22 1.838l-1.028 1.029-7.595-7.595c.327-.751.686-1.404 1.078-1.959.392-.556.866-1.16 1.421-1.813a20.297 20.297 0 0 1-6.002-.661c-2.368-.637-4.499-1.903-6.393-3.798-2.417-2.417-3.724-5.103-3.92-8.059-.196-2.956.972-5.7 3.503-8.231 3.283-3.283 6.925-4.393 10.926-3.332 2.188.588 4.801 2.058 7.839 4.41l2.67 2.082c1.454 1.127 2.581 1.845 3.381 2.156 1.421.571 2.58.408 3.478-.49 1.095-1.094 1.47-2.229 1.127-3.405-.343-1.176-1.249-2.499-2.719-3.969-1.649-1.649-3.225-2.409-4.728-2.278-1.094.114-2.237.604-3.43 1.47l-6.736-6.737c2.482-2.188 5.054-3.454 7.716-3.797Zm-13.571 23.958c.114 1.192.645 2.262 1.592 3.209 1.503 1.503 3.328 2.446 5.475 2.83 2.148.384 4.414-.568 6.798-2.854l2.597-2.597a10.755 10.755 0 0 1-2.009-.661c-.62-.278-1.396-.735-2.327-1.372l-1.862-1.274c-1.731-1.209-3.103-1.943-4.115-2.205-1.715-.441-3.242.008-4.581 1.348-1.192 1.192-1.715 2.384-1.568 3.576Zm50.342 19.916c-2.809-2.809-5.61-3.78-8.403-2.915-1.568.49-3.421 1.805-5.561 3.944l-12.763 12.763-7.03-7.03 26.701-26.702 6.664 6.663-4.655 4.654c2.858-.702 5.014-.98 6.467-.833 2.401.213 4.647 1.364 6.737 3.455.131.13.237.245.319.343.081.098.269.31.563.636l-7.153 7.154a26.425 26.425 0 0 0-1.886-2.132Zm3.699 30.205 25.207-14.183 7.423 7.422-35.423 17.099c-6.826 3.299-11.363 5.043-13.608 5.23-2.246.188-4.912-1.261-7.998-4.348-.621-.62-1.115-1.123-1.483-1.506a61.425 61.425 0 0 1-1.604-1.776l5.585-5.586.833.931a15.531 15.531 0 0 0 2.033 1.886c.703.539 1.413.874 2.132 1.005.686.13 1.645-.07 2.878-.6 1.233-.531 1.915-.927 2.046-1.189l18.079-37.676 7.765 7.765-13.865 25.526Z"/><path fill="#6b0f4d" stroke="#000" stroke-linecap="butt" stroke-width="5" d="m480.952 162.635 332.221 337.948-105.707 107.529-339.77-330.268 57.041-58.025 56.215-57.184Z"/><path fill="#e8cd1b" d="m413.039 256.753 67.194-30.479 7.619 7.62-67.258 30.414-7.555-7.555Zm66.454 45.878c-2.315 1.843-5.508 2.872-9.581 3.086-6.408.408-12.313-2.089-17.714-7.491-4.458-4.458-6.955-9.827-7.491-16.107-.536-6.28 2.432-12.656 8.905-19.129 6.066-6.066 12.255-9.179 18.567-9.34 6.312-.161 11.922 2.213 16.831 7.121 2.915 2.915 4.994 6.087 6.237 9.517 1.243 3.429 1.447 7.084.611 10.963-.708 3.451-2.229 6.752-4.566 9.902-1.371 1.844-3.59 4.255-6.655 7.234l-23.984-23.984c-3.386 3.644-4.747 7.212-4.083 10.706.386 2.143 1.468 4.105 3.247 5.884 1.886 1.886 3.955 2.882 6.205 2.99 1.222.064 2.594-.172 4.116-.708l9.355 9.356Zm1.672-19.805c2.272-2.572 3.376-5.144 3.312-7.716-.065-2.572-1.072-4.833-3.023-6.783-2.122-2.122-4.431-3.103-6.928-2.942-2.497.161-5.031 1.227-7.603 3.199l14.242 14.242Zm17.233 46.232-6.848 6.848-4.501-4.179c-4.48-4.18-6.688-7.888-6.623-11.124.021-2.079 1.125-4.212 3.311-6.398l21.573-21.573-4.887-4.887 6.527-6.526 4.886 4.887 9.774-9.774 9.066 9.066-9.773 9.774 5.69 5.691-6.526 6.526-5.691-5.69-18.518 18.518c-1.436 1.436-2.149 2.513-2.138 3.231.01.718.948 2.01 2.813 3.874a35.344 35.344 0 0 0 1.865 1.736Zm52.147 20.255-9.388-9.388c1.136-1.479 1.876-3.097 2.219-4.855.386-2.443-.504-4.747-2.669-6.912-3.086-3.086-6.73-3.665-10.931-1.736-2.229 1.029-4.694 2.894-7.394 5.594-2.572 2.572-4.341 4.941-5.305 7.105-1.822 4.008-1.222 7.524 1.8 10.546 2.144 2.143 4.244 3.086 6.302 2.829 2.057-.257 4.104-1.211 6.14-2.861l9.356 9.355c-3.001 2.572-6.644 4.201-10.931 4.887-6.88 1.136-13.139-1.114-18.776-6.751-5.637-5.637-8.112-11.457-7.426-17.458.685-6.001 3.697-11.671 9.034-17.008 6.023-6.022 12.174-9.237 18.454-9.645 6.28-.407 12.003 1.972 17.168 7.138 4.394 4.394 7.004 8.975 7.829 13.744.825 4.769-1.002 9.908-5.482 15.416Zm-24.048 20.898 67.194-30.479 7.619 7.62-67.258 30.414-7.555-7.555Zm78.414 37.262-20.576 20.576-9.356-9.356 21.316-21.315c1.886-1.887 3.086-3.73 3.601-5.53.793-2.465.021-4.866-2.315-7.202-2.422-2.422-5.069-3.451-7.941-3.086-2.872.364-5.809 2.047-8.809 5.047l-18.969 18.969-9.131-9.131 47.229-47.228 9.131 9.13-16.751 16.75c3.366-.707 6.323-.589 8.874.354a18.434 18.434 0 0 1 6.719 4.308c2.165 2.165 3.757 4.507 4.775 7.025a14.595 14.595 0 0 1 .916 7.797c-.343 2.271-1.099 4.206-2.267 5.803-1.168 1.596-3.317 3.959-6.446 7.089Zm47.808 27.745c-.751 6.666-3.655 12.528-8.713 17.587-5.144 5.144-11.022 8.064-17.635 8.76-6.612.697-12.929-1.966-18.952-7.989-6.023-6.023-8.686-12.34-7.989-18.952.696-6.613 3.616-12.491 8.761-17.635 5.058-5.058 10.92-7.962 17.586-8.712 6.666-.751 13.01 1.886 19.033 7.908 6.022 6.023 8.659 12.368 7.909 19.033Zm-15.69-11.316c-2.679-2.68-5.69-3.794-9.034-3.344-3.344.45-6.773 2.433-10.288 5.948-3.515 3.515-5.503 6.949-5.964 10.304-.461 3.354.648 6.371 3.328 9.05 2.679 2.679 5.69 3.783 9.034 3.312 3.344-.472 6.773-2.465 10.288-5.98 3.515-3.515 5.503-6.939 5.964-10.272.461-3.333-.649-6.339-3.328-9.018Zm53.659 43.627c.986 4.501-.461 9.099-4.34 13.793l-9.163-9.163c1.05-1.307 1.65-2.572 1.8-3.794.236-2.25-.857-4.587-3.279-7.009-1.993-1.993-3.724-3.102-5.192-3.327-1.468-.225-2.621.08-3.456.916-1.051 1.05-1.361 2.261-.933 3.633.407 1.393 2.744 5.423 7.009 12.089 2.786 4.501 4.222 8.53 4.308 12.088.043 3.558-1.254 6.655-3.89 9.292-3.472 3.472-7.598 5.015-12.378 4.629-4.78-.386-9.87-3.279-15.271-8.68-5.509-5.509-8.413-10.739-8.713-15.69-.3-4.951 1.35-9.227 4.951-12.828l9.292 9.292c-1.436 1.822-2.176 3.397-2.219 4.726-.086 2.358 1.404 5.069 4.469 8.134 1.8 1.8 3.499 2.963 5.096 3.488 1.597.525 2.931.252 4.003-.82 1.028-1.028 1.382-2.239 1.061-3.633-.322-1.393-2.583-5.497-6.784-12.313-2.979-4.951-4.544-8.981-4.694-12.089-.172-3.086 1.114-6.001 3.858-8.744 3.236-3.237 7.287-4.748 12.153-4.534 4.865.215 9.602 2.626 14.21 7.234 4.373 4.373 7.073 8.809 8.102 13.31Zm1.607 55.427-6.848 6.848-4.501-4.179c-4.479-4.18-6.687-7.888-6.622-11.124.021-2.079 1.125-4.212 3.311-6.398l21.573-21.573-4.887-4.887 6.526-6.526 4.887 4.887 9.774-9.774 9.066 9.066-9.773 9.774 5.69 5.691-6.526 6.526-5.691-5.691-18.518 18.519c-1.436 1.436-2.149 2.513-2.138 3.231.01.718.948 2.009 2.813 3.874.278.279.578.568.9.868.321.3.643.59.964.868Zm56.938 3.119c.986 4.501-.46 9.098-4.34 13.792l-9.163-9.163c1.051-1.307 1.651-2.572 1.801-3.793.236-2.251-.858-4.587-3.28-7.009-1.993-1.993-3.724-3.102-5.192-3.328-1.468-.225-2.62.081-3.456.917-1.05 1.05-1.361 2.261-.932 3.633.407 1.393 2.743 5.422 7.008 12.088 2.787 4.501 4.223 8.531 4.309 12.089.042 3.558-1.254 6.655-3.891 9.291-3.472 3.472-7.598 5.016-12.377 4.63-4.78-.386-9.871-3.28-15.272-8.681-5.508-5.508-8.412-10.738-8.712-15.689-.301-4.951 1.35-9.227 4.951-12.828l9.291 9.291c-1.436 1.822-2.175 3.398-2.218 4.726-.086 2.358 1.404 5.069 4.469 8.134 1.8 1.801 3.499 2.964 5.095 3.489 1.597.525 2.931.252 4.003-.82 1.029-1.029 1.383-2.24 1.061-3.633-.321-1.393-2.583-5.498-6.784-12.314-2.979-4.951-4.544-8.98-4.694-12.088-.171-3.086 1.115-6.001 3.858-8.745 3.237-3.236 7.288-4.747 12.153-4.533 4.866.214 9.602 2.625 14.211 7.234 4.372 4.372 7.073 8.809 8.101 13.31Z"/></svg>