<svg xmlns="http://www.w3.org/2000/svg" xml:space="preserve" stroke-miterlimit="10" style="fill-rule:nonzero;clip-rule:evenodd;stroke-linecap:round;stroke-linejoin:round" viewBox="0 0 1024 1024"><g stroke-linecap="butt"><path fill="#8b8b8b" stroke="#000" stroke-width="5" d="m65 44.767 300 53.846v646.154L65 690.921V44.767Z"/><path fill="#5e5e5e" stroke="#000" stroke-width="5" d="M365 98.846 665 45v646.154L365 745V98.846Z"/><path fill="#adadad" stroke="#000" stroke-width="5" d="m665 44.767 300 53.846v646.154l-300-53.846V44.767Z"/><g stroke-width="20"><path fill="#500c5a" stroke="#8f1442" d="m75 419.143 290 61.677m300-60 172.76 31.766L955 474.143"/><path fill="none" stroke="#6b0f4d" d="m365 480.82 300-60"/></g><path fill="#fddf19" stroke="#000" stroke-width="5" d="m147.724 391.086-16.98.086-.766-90.405-19.829.1-.149-17.538c5.23-.388 8.889-.949 10.977-1.683 3.324-1.162 6.018-3.466 8.082-6.912 1.415-2.357 2.474-5.497 3.177-9.418.407-2.353.605-4.102.595-5.247l13.782-.069 1.111 131.086ZM198.856 405c-6.319-.014-12.002-2.935-17.048-8.763-5.047-5.827-7.945-14.317-8.695-25.469l16.515.037c.392 3.858 1.442 6.995 3.151 9.41 1.709 2.414 3.978 3.625 6.808 3.631 5.466.013 9.298-4.68 11.497-14.077 1.196-5.181 1.943-12.743 2.241-22.687-1.509 2.949-3.115 5.206-4.819 6.769-3.098 2.886-6.914 4.324-11.45 4.314-6.707-.015-12.662-3.63-17.865-10.844-5.204-7.214-7.813-17.602-7.829-31.163-.017-14.043 2.576-25.414 7.78-34.111 5.204-8.698 11.973-13.037 20.308-13.018 12.832.029 21.643 8.878 26.432 26.549 2.726 10.011 4.098 23.183 4.118 39.517.019 15.851-1.264 29.078-3.849 39.68-4.938 20.18-14.037 30.255-27.295 30.225Zm-5.947-110.762c-3.174 3.85-4.756 10.386-4.745 19.607.01 7.775 1.034 13.609 3.074 17.501 2.04 3.892 5.173 5.843 9.398 5.852 2.288.006 4.438-1.014 6.451-3.059 3.756-3.728 5.629-10.203 5.618-19.425-.009-7.413-1.131-13.292-3.365-17.637-2.234-4.344-5.29-6.521-9.166-6.53-2.83-.006-5.252 1.224-7.265 3.691Zm92.002 18.095c-1.978-3.683-4.809-5.53-8.492-5.542-5.04-.016-8.47 2.896-10.29 8.737-1.046 3.372-1.665 8.734-1.857 16.086l-16.107-.051c.268-11.149 1.564-20.156 3.889-27.019 4.416-13.065 12.264-19.58 23.545-19.544 8.917.029 16.012 3.893 21.286 11.595 5.275 7.701 7.914 17.881 7.917 30.538.003 9.703-1.856 18.316-5.576 25.838-2.441 4.995-6.452 10.558-12.032 16.687l-6.628 7.302c-4.147 4.568-6.985 7.874-8.516 9.918-1.531 2.044-2.819 4.421-3.865 7.13l36.809.117.006 22.692-57.743-.183c.152-9.402 1.449-17.987 3.889-25.754 2.362-8.732 7.942-17.966 16.74-27.702 7.635-8.474 12.576-14.546 14.823-18.215 3.449-5.715 5.173-11.978 5.171-18.788-.002-5.545-.991-10.159-2.969-13.842ZM327.332 405l17.619.029.049 26.941-17.62-.029-.048-26.941Zm84.754 29.895-16.98.105-.232-87.484-19.829.123-.045-16.972c5.232-.383 8.894-.93 10.986-1.643 3.331-1.129 6.039-3.362 8.123-6.699 1.428-2.283 2.506-5.323 3.232-9.118.421-2.278.629-3.97.626-5.078l13.782-.085.337 126.851Zm52.441-99.179c7.481-.105 13.655 3.63 18.522 11.203 4.867 7.573 7.362 17.308 7.486 29.206.123 11.838-2.113 22.31-6.709 31.415s-11.836 13.727-21.721 13.864c-10.621.148-18.521-6.42-23.699-19.705-4.024-10.385-6.122-23.829-6.294-40.334-.101-9.681.089-17.558.568-23.63.857-10.803 2.643-19.811 5.359-27.023 2.34-6.157 5.438-11.129 9.294-14.915 3.857-3.787 8.499-5.718 13.926-5.794 7.83-.109 14.102 2.822 18.817 8.793 4.714 5.971 7.414 13.968 8.1 23.991l-16.513.23c-.021-2.041-.568-4.279-1.64-6.714-1.824-3.94-4.539-5.886-8.144-5.836-5.388.076-9.178 4.678-11.37 13.808-1.188 5.032-1.964 12.451-2.327 22.255 2.016-3.703 4.372-6.419 7.068-8.148 2.696-1.729 5.788-2.618 9.277-2.666Zm-10.916 23.95c-3.217 3.836-4.781 9.982-4.693 18.439.071 6.823 1.351 12.375 3.838 16.657s5.61 6.396 9.37 6.344c3.683-.051 6.558-2.177 8.627-6.376 2.07-4.199 3.069-9.623 3-16.272-.077-7.406-1.338-13.061-3.782-16.964-2.444-3.903-5.411-5.83-8.9-5.782-2.829.04-5.316 1.357-7.46 3.954Zm61.631 34.783c-5.078-7.292-7.785-16.272-8.122-26.94-.224-7.112.648-13.591 2.616-19.437 1.968-5.847 4.979-10.3 9.033-13.36-4.197-3.938-6.98-8.261-8.351-12.969-1.37-4.708-2.12-9.132-2.251-13.271-.29-9.21 1.767-17.146 6.173-23.807 4.405-6.662 10.811-10.14 19.218-10.435 8.408-.294 15.019 2.727 19.834 9.066 4.816 6.338 7.369 14.112 7.659 23.322.131 4.139-.339 8.606-1.41 13.399-1.071 4.794-3.585 9.011-7.542 12.651 4.255 3.353 7.52 7.878 9.795 13.575 2.274 5.698 3.523 12.103 3.747 19.215.337 10.667-2.002 19.839-7.015 27.513-5.014 7.675-12.228 11.678-21.642 12.008-9.415.33-16.662-3.18-21.742-10.53Zm9.028-29.204c.196 6.237 1.424 11.038 3.683 14.402 2.258 3.364 5.286 4.979 9.083 4.846 3.797-.133 6.716-1.957 8.758-5.472 2.042-3.514 2.964-8.39 2.767-14.628-.204-6.47-1.453-11.343-3.748-14.618-2.294-3.276-5.301-4.848-9.021-4.718-3.719.131-6.62 1.91-8.704 5.339-2.083 3.429-3.022 8.378-2.818 14.849Zm2.996-43.349c1.951 2.85 4.593 4.216 7.925 4.099 3.371-.118 5.93-1.667 7.679-4.646 1.748-2.979 2.549-6.771 2.404-11.376-.158-5.014-1.202-8.902-3.131-11.664-1.93-2.763-4.58-4.085-7.95-3.967-3.332.117-5.893 1.622-7.683 4.515s-2.606 6.846-2.447 11.859c.145 4.605 1.213 8.332 3.203 11.18Zm57.201 46.995 17.619.039-.15 26.07-17.62-.04.151-26.069Zm62.277 19.252-16.98.079-.097-87.484-19.828.091-.019-16.972c5.233-.374 8.896-.916 10.988-1.625 3.333-1.124 6.044-3.352 8.134-6.686 1.432-2.282 2.514-5.319 3.246-9.114.424-2.276.635-3.969.634-5.077l13.782-.064.14 126.852Zm35.451-30.561 17.555 1.504-1.967 24.026-17.555-1.504 1.967-24.026Zm58.877 36.009c-10.719-.638-17.945-6.308-21.678-17.011-3.733-10.703-5.06-25.72-3.983-45.05 1.077-19.331 4.066-34.118 8.965-44.361 4.9-10.243 12.71-15.046 23.429-14.408 10.719.637 17.953 6.335 21.702 17.093 3.711 10.755 5.027 25.798 3.95 45.129s-4.064 34.091-8.961 44.28c-4.897 10.19-12.705 14.965-23.424 14.328Zm11.336-28.904c1.906-7.018 3.233-17.258 3.983-30.719.787-14.108.604-24.599-.546-31.475-1.151-6.875-4.183-10.459-9.098-10.752-4.914-.292-8.354 2.907-10.319 9.597-1.964 6.69-3.34 17.089-4.126 31.197-.75 13.461-.53 23.806.659 31.035 1.189 7.229 4.24 10.99 9.155 11.282 4.915.293 8.345-3.096 10.292-10.165Zm26.563 39.586 34.996-122.255 13.779.254-35.113 122.252-13.662-.251Zm86.124-88.242c-1.664-3.466-4.329-5.375-7.994-5.729-5.016-.485-8.673 1.79-10.97 6.823-1.321 2.907-2.382 7.626-3.183 14.159l-16.032-1.548c1.192-9.909 3.229-17.812 6.113-23.71 5.48-11.228 13.834-16.299 25.063-15.215 8.875.857 15.618 4.963 20.231 12.316 4.612 7.353 6.395 16.669 5.349 27.945-.803 8.646-3.367 16.146-7.694 22.5-2.845 4.223-7.3 8.804-13.364 13.745l-7.204 5.887c-4.507 3.682-7.608 6.363-9.301 8.041-1.694 1.679-3.174 3.676-4.44 5.992l36.638 3.538-1.876 20.218-57.475-5.551c.932-8.362 2.935-15.889 6.008-22.582 3.077-7.559 9.398-15.265 18.964-23.118 8.305-6.838 13.728-11.786 16.27-14.845 3.907-4.77 6.142-10.189 6.706-16.257.458-4.94-.145-9.143-1.809-12.609Zm84.245 68.637-1.39 17.986-9.505-.77-1.945 25.163-16.17-1.31 1.945-25.164-33.269-2.697 1.552-20.083 36.377-68.471 18.547 1.504-5.647 73.072 9.505.77Zm-46.715-3.786 21.039 1.705 3.902-50.489-24.941 48.784Z"/><path fill="#fddf19" stroke="#000" stroke-width="2" d="m420.127 122.631 10.069-1.033-9.311 59.552-9.458.97-8.088-33.437-2.454-11.078-.891 11.421-3.365 34.613-9.2.944-17.485-56.803 10.519-1.079 8.586 32.671 1.995 9.137.753-9.22 3.013-34.06 10.455-1.073 7.942 32.737 2.092 9.127.828-9.069 4-34.32Zm47.32 34.612c-.118 2.574-1.082 5.243-2.893 8.008-2.813 4.392-6.927 6.765-12.341 7.122-4.468.294-8.492-1.214-12.072-4.524-3.58-3.309-5.555-8.947-5.925-16.912-.346-7.464.93-13.289 3.828-17.475 2.898-4.185 6.806-6.44 11.726-6.764 2.922-.192 5.585.308 7.989 1.499s4.436 3.187 6.096 5.988c1.494 2.468 2.523 5.376 3.088 8.725.328 1.963.557 4.805.687 8.527l-24.04 1.582c.329 4.317 1.577 7.277 3.741 8.881 1.318.998 2.868 1.438 4.652 1.321 1.89-.125 3.395-.885 4.516-2.282.611-.754 1.135-1.781 1.57-3.079l9.378-.617Zm-9.701-12.616c-.289-2.971-1.13-5.184-2.523-6.64-1.392-1.456-3.066-2.12-5.021-1.991-2.127.14-3.738 1.066-4.833 2.778-1.095 1.712-1.728 3.976-1.899 6.792l14.276-.939Zm12.565-37.69 9.168-.932 4.003 58.187-9.169.931-4.002-58.186Zm50.889 22.109-9.401.822c-.268-1.591-.795-3.002-1.581-4.231-1.134-1.648-2.785-2.377-4.953-2.188-3.091.271-5.092 2.339-6.004 6.206-.481 2.055-.622 4.741-.422 8.061.189 3.161.642 5.676 1.358 7.547 1.31 3.487 3.478 5.098 6.504 4.833 2.147-.188 3.628-1.033 4.444-2.534.816-1.502 1.253-3.393 1.31-5.676l9.369-.82c-.009 3.444-.824 6.772-2.443 9.985-2.581 5.178-6.694 8.014-12.339 8.508-5.645.494-9.921-1.197-12.829-5.074-2.908-3.876-4.558-9.094-4.952-15.653-.444-7.402.681-13.287 3.375-17.654 2.694-4.366 6.627-6.776 11.8-7.229 4.4-.385 8.073.512 11.019 2.69 2.947 2.178 4.862 6.314 5.745 12.407Zm35.005-17.942c3.087 4.47 4.712 9.822 4.874 16.055.166 6.339-1.176 11.809-4.025 16.41-2.85 4.602-7.296 7.004-13.338 7.205-6.041.201-10.605-1.901-13.69-6.305-3.085-4.404-4.71-9.775-4.876-16.114-.162-6.233 1.18-11.683 4.028-16.351 2.848-4.668 7.293-7.102 13.334-7.304 6.042-.201 10.607 1.934 13.693 6.404Zm-13.475 3.145c-2.688.089-4.727 1.327-6.117 3.713-1.391 2.385-2.029 5.744-1.916 10.075.113 4.332.926 7.648 2.439 9.951 1.513 2.302 3.613 3.408 6.301 3.319 2.687-.09 4.721-1.334 6.1-3.732 1.379-2.399 2.012-5.764 1.899-10.095-.113-4.331-.921-7.642-2.422-9.931-1.502-2.29-3.597-3.389-6.284-3.3Zm43.225-7.147c-.928-1.991-2.518-2.86-4.768-2.607-2.615.293-4.294 1.529-5.038 3.707-.403 1.239-.517 3.028-.34 5.369l1.951 25.874-9.291 1.043-3.237-42.914 8.905-1 .473 6.272c.968-2.363 1.919-4.074 2.855-5.133 1.652-1.883 3.893-2.983 6.722-3.3 2.679-.301 4.899.179 6.658 1.44 1.43 1.192 2.567 2.801 3.412 4.828 1.01-2.66 2.359-4.68 4.049-6.063 1.797-1.395 3.853-2.223 6.168-2.482 1.543-.174 3.092.024 4.648.592 1.556.568 3.014 1.703 4.375 3.407 1.099 1.388 1.902 3.154 2.409 5.298.324 1.422.591 3.527.801 6.314l1.98 27.105-9.388 1.054-2.065-27.374c-.123-1.63-.438-2.947-.946-3.951-.965-1.907-2.541-2.738-4.727-2.492-2.529.283-4.179 1.768-4.949 4.453-.39 1.423-.512 3.094-.368 5.014l1.931 25.598-9.227 1.036-1.931-25.599c-.192-2.551-.546-4.38-1.062-5.489Zm72.225 7.796c-.051 2.577-.946 5.284-2.686 8.122-2.699 4.504-6.75 7.046-12.153 7.625-4.46.478-8.521-.863-12.185-4.023-3.664-3.159-5.783-8.711-6.357-16.656-.538-7.444.588-13.317 3.378-17.62 2.789-4.301 6.639-6.715 11.549-7.242 2.915-.312 5.59.077 8.024 1.168 2.434 1.092 4.517 3.002 6.248 5.733 1.557 2.404 2.66 5.269 3.311 8.592.378 1.948.68 4.778.905 8.492l-23.991 2.571c.441 4.301 1.763 7.208 3.968 8.721 1.343.943 2.905 1.319 4.684 1.128 1.887-.202 3.372-1.024 4.456-2.466.592-.779 1.089-1.826 1.491-3.142l9.358-1.003Zm-10.021-12.207c-.365-2.956-1.262-5.133-2.692-6.531-1.43-1.397-3.12-1.992-5.071-1.783-2.123.228-3.709 1.22-4.76 2.976-1.051 1.756-1.625 4.044-1.724 6.865l14.247-1.527ZM511.902 230.654l.58 8.408-4.33.639c-4.319.626-7.342.006-9.069-1.859-1.118-1.185-1.77-3.119-1.955-5.803l-1.825-26.488-4.89.498-.552-8.013 4.889-.498-.827-12 9.072-.924.827 12 5.695-.579.552 8.013-5.694.58 1.566 22.737c.122 1.763.38 2.843.775 3.24.394.398 1.524.501 3.39.311.279-.028.573-.065.883-.11.31-.044.615-.095.913-.152Zm34.117-36.095c3.031 4.532 4.589 9.916 4.674 16.152.087 6.341-1.322 11.785-4.228 16.33-2.906 4.544-7.381 6.857-13.424 6.938-6.043.081-10.58-2.112-13.609-6.577-3.03-4.466-4.588-9.869-4.675-16.211-.085-6.236 1.325-11.66 4.23-16.271 2.905-4.61 7.379-6.956 13.422-7.037 6.043-.081 10.58 2.145 13.61 6.676Zm-13.511 2.876c-2.688.036-4.742 1.233-6.162 3.591s-2.1 5.704-2.04 10.037c.059 4.334.831 7.667 2.315 9.999 1.484 2.332 3.57 3.48 6.258 3.445 2.688-.036 4.736-1.24 6.145-3.611 1.409-2.371 2.083-5.723 2.024-10.056-.059-4.334-.826-7.66-2.299-9.98-1.472-2.319-3.553-3.46-6.241-3.425ZM382.412 579.587l8.021-1.467 1.443 62.725-8.022 1.468-1.442-62.726Zm48.233 54.165-8.074 1.478-16.805-41.668 1.025 44.555-7.523 1.376-1.443-62.726 8.467-1.549 16.394 40.974-1.007-43.789 7.523-1.376 1.443 62.725Zm34.155-69.238.255 11.107-11.56 2.115 1.187 51.619-8.126 1.486-1.187-51.619-11.612 2.125-.256-11.107 31.299-5.726Zm32.424 29.537-18.768 3.433.371 16.129 21.39-3.914.259 11.277-29.28 5.357-1.442-62.725 28.336-5.185.255 11.107-20.446 3.741.307 13.319 18.768-3.433.25 10.894Zm25.387-1.825-8.336 1.525.566 24.597-7.891 1.444-1.442-62.726 18.952-3.467c2.711-.411 4.807-.253 6.289.473 1.482.726 2.752 1.961 3.81 3.704.875 1.436 1.58 3.073 2.114 4.913.533 1.839.829 3.993.885 6.461.069 2.979-.327 5.993-1.187 9.042-.86 3.049-2.342 5.364-4.447 6.946 1.809.837 3.11 2.259 3.902 4.265.792 2.006 1.238 5.207 1.34 9.605l.096 4.213c.066 2.865.181 4.795.344 5.791.247 1.579.764 2.681 1.55 3.306l.036 1.575-8.886 1.626a64.167 64.167 0 0 1-.601-3.266 48.042 48.042 0 0 1-.465-5.343l-.187-5.82c-.127-3.994-.638-6.578-1.534-7.753-.895-1.175-2.532-1.545-4.908-1.111Zm4.639-12.301c1.581-1.486 2.33-3.988 2.25-7.505-.088-3.802-.924-6.213-2.51-7.233-.89-.578-2.209-.707-3.957-.387l-9.384 1.716.387 16.852 9.149-1.674c1.817-.332 3.172-.922 4.065-1.769Zm49.532 27.09-8.074 1.478-16.804-41.668 1.024 44.555-7.523 1.376-1.442-62.726 8.467-1.549 16.393 40.974-1.006-43.789 7.523-1.376 1.442 62.725Zm33.787-33.702-18.768 3.434.371 16.128 21.389-3.913.26 11.277-29.28 5.357-1.442-62.726 28.336-5.184.255 11.107-20.446 3.74.306 13.32 18.769-3.434.25 10.894Zm36.175-42.087.255 11.107-11.56 2.115 1.187 51.618-8.126 1.487-1.187-51.619-11.612 2.125-.256-11.107 31.299-5.726Zm9.853 48.452.292 12.681-7.943 1.453-.291-12.681 7.942-1.453Zm-8.384-17.739-.291-12.681 7.942-1.454.292 12.682-7.943 1.453ZM388.901 723.187l-7.949 1.414-.211-46.628-9.284 1.652-.041-9.046c2.45-.623 4.163-1.208 5.142-1.755 1.558-.869 2.823-2.276 3.795-4.222.666-1.332 1.167-3.039 1.503-5.121.194-1.248.29-2.167.287-2.758l6.452-1.148.306 67.612Zm24.402-2.382c-2.958.526-5.624-.501-7.997-3.081-2.373-2.579-3.745-6.714-4.116-12.404l7.732-1.376c.19 1.958.688 3.487 1.492 4.588.804 1.102 1.869 1.534 3.194 1.299 2.559-.456 4.344-3.2 5.357-8.234.551-2.773.887-6.737 1.009-11.892-.701 1.649-1.449 2.949-2.244 3.899-1.445 1.75-3.23 2.815-5.353 3.192-3.14.559-5.934-.803-8.383-4.085-2.449-3.282-3.689-8.42-3.721-15.414-.033-7.243 1.161-13.328 3.582-18.254 2.421-4.926 5.582-7.736 9.484-8.431 6.008-1.069 10.148 2.752 12.422 11.463 1.294 4.934 1.96 11.613 1.998 20.038.037 8.175-.54 15.107-1.731 20.794-2.276 10.827-6.518 16.793-12.725 17.898Zm-2.981-56.636c-1.479 2.254-2.208 5.76-2.187 10.516.019 4.01.509 6.933 1.47 8.768.962 1.835 2.433 2.577 4.411 2.225 1.071-.19 2.076-.898 3.015-2.123 1.751-2.24 2.616-5.739 2.595-10.495-.018-3.824-.553-6.762-1.607-8.814-1.054-2.053-2.488-2.917-4.303-2.594-1.325.235-2.456 1.075-3.394 2.517Zm38.637-5.569c-.934-1.731-2.264-2.443-3.988-2.137-2.359.42-3.959 2.214-4.798 5.381-.482 1.828-.76 4.646-.834 8.455l-7.541 1.342c.101-5.774.688-10.529 1.761-14.267 2.039-7.114 5.699-11.14 10.98-12.08 4.174-.743 7.505.648 9.991 4.172 2.486 3.524 3.744 8.55 3.774 15.078.023 5.005-.829 9.605-2.553 13.801-1.132 2.784-2.997 5.993-5.597 9.629l-3.086 4.329c-1.931 2.708-3.253 4.655-3.965 5.839-.712 1.185-1.31 2.52-1.794 4.006l17.233-3.066.053 11.703-27.033 4.811c.05-4.863.638-9.4 1.763-13.614 1.087-4.704 3.679-9.941 7.776-15.71 3.556-5.019 5.855-8.571 6.9-10.654 1.601-3.241 2.394-6.618 2.379-10.13-.013-2.86-.487-5.156-1.421-6.888Zm15.29 37.273 8.249-1.468.063 13.895-8.249 1.468-.063-13.895Zm33.168 8.004-7.95 1.415-.211-46.629-9.283 1.652-.041-9.046c2.449-.622 4.163-1.207 5.141-1.755 1.558-.868 2.823-2.276 3.795-4.222.666-1.332 1.167-3.039 1.503-5.12.194-1.248.29-2.168.287-2.758l6.452-1.148.307 67.611Zm26.753-48.673c3.502-.624 6.384.902 8.644 4.575s3.404 8.681 3.433 15.022c.028 6.311-1.044 12.07-3.219 17.279-2.174 5.21-5.575 8.226-10.203 9.049-4.973.885-8.655-2.022-11.047-8.72-1.858-5.239-2.808-12.256-2.847-21.054-.024-5.16.084-9.379.324-12.657.427-5.832 1.286-10.776 2.575-14.832 1.111-3.464 2.574-6.353 4.389-8.667 1.815-2.314 3.992-3.697 6.533-4.149 3.667-.653 6.596.436 8.788 3.266 2.193 2.83 3.437 6.894 3.734 12.192l-7.732 1.376c-.005-1.088-.255-2.241-.751-3.46-.845-1.965-2.111-2.798-3.799-2.497-2.522.449-4.308 3.193-5.357 8.233-.569 2.777-.95 6.796-1.144 12.057.953-2.13 2.063-3.758 3.329-4.886 1.266-1.127 2.716-1.837 4.35-2.127ZM519 668.817c-1.515 2.292-2.263 5.691-2.242 10.199.016 3.637.601 6.504 1.755 8.601 1.154 2.097 2.611 2.988 4.372 2.675 1.724-.307 3.075-1.659 4.055-4.058.979-2.399 1.46-5.37 1.444-8.914-.018-3.948-.594-6.871-1.729-8.769-1.135-1.898-2.519-2.701-4.152-2.411-1.325.236-2.493 1.128-3.503 2.677Zm24.188 22.669c-2.286-3.575-3.443-8.207-3.468-13.896-.018-3.793.471-7.317 1.464-10.574.993-3.257 2.457-5.835 4.392-7.735-1.915-1.837-3.165-3.971-3.748-6.403-.583-2.432-.88-4.751-.89-6.958-.022-4.912 1.039-9.293 3.183-13.143 2.144-3.85 5.185-6.126 9.124-6.827 3.938-.701 6.995.49 9.171 3.572 2.175 3.081 3.274 7.078 3.296 11.99.01 2.207-.265 4.628-.825 7.263-.56 2.635-1.789 5.055-3.686 7.259 1.95 1.52 3.422 3.731 4.416 6.634.994 2.903 1.5 6.251 1.517 10.044.026 5.688-1.182 10.749-3.623 15.181-2.441 4.432-5.867 7.04-10.277 7.825-4.41.785-7.759-.626-10.046-4.232Zm4.586-16.216c.015 3.326.53 5.817 1.546 7.472 1.016 1.654 2.413 2.324 4.191 2.007 1.779-.316 3.168-1.481 4.167-3.495.999-2.013 1.491-4.683 1.476-8.009-.016-3.45-.541-5.978-1.574-7.583-1.034-1.605-2.422-2.253-4.164-1.943-1.742.311-3.122 1.45-4.14 3.42-1.017 1.97-1.518 4.681-1.502 8.131Zm1.937-23.398c.879 1.399 2.098 1.96 3.659 1.682 1.579-.281 2.796-1.275 3.651-2.983.855-1.707 1.277-3.789 1.266-6.245-.012-2.673-.453-4.687-1.322-6.041s-2.093-1.891-3.672-1.61c-1.56.278-2.778 1.249-3.651 2.913-.873 1.664-1.304 3.833-1.292 6.506.011 2.456.465 4.382 1.361 5.778Zm23.053 24.691 8.249-1.468.063 13.896-8.249 1.467-.063-13.895Zm33.168 8.005-7.95 1.414-.211-46.628-9.283 1.652-.041-9.046c2.449-.623 4.163-1.208 5.141-1.755 1.558-.869 2.824-2.276 3.796-4.222.666-1.332 1.166-3.039 1.502-5.121.194-1.248.29-2.167.287-2.758l6.452-1.148.307 67.612Zm13.331-16.279 8.249-1.468.063 13.895-8.249 1.468-.063-13.895Zm33.168 8.005-7.95 1.414-.211-46.629-9.284 1.652-.041-9.046c2.45-.622 4.164-1.207 5.142-1.755 1.558-.868 2.823-2.275 3.795-4.221.666-1.332 1.167-3.039 1.503-5.121.194-1.248.29-2.167.287-2.758l6.452-1.148.307 67.612Z"/><path fill="none" stroke="#5e5e5e" stroke-width="10" d="M525 885c0 11.046-22.386 20-50 20s-50-8.954-50-20"/><path fill="#e8cd1b" stroke="#000" stroke-width="5" d="M465 885c0-55.228-44.772-100-100-100-41.003 0-76.223 24.687-91.656 60h-46.906L205 865l-19.5-20-20.5 20-20.312-20L125 865l-20-20-20 20-20-20-40 38.906L65 925h208.344c15.433 35.313 50.653 60 91.656 60 55.228 0 100-44.772 100-100Zm-20 0c0 11.046-8.954 20-20 20s-20-8.954-20-20 8.954-20 20-20 20 8.954 20 20Z"/><g stroke="#000"><path fill="#420b75" stroke-width="5" d="M507.481 783.992c-13.877 0-25.126 11.25-25.126 25.126v150.756c0 13.877 11.249 25.126 25.126 25.126h477.393c13.877 0 25.126-11.249 25.126-25.126V809.118c0-13.876-11.249-25.126-25.126-25.126H507.481Zm11.385 22.692h454.623c13.216 0 23.948 8.789 23.948 19.63v117.778c-.001 10.841-10.732 19.629-23.948 19.629H518.866c-13.216.001-23.948-8.788-23.948-19.629V826.314c0-10.841 10.732-19.63 23.948-19.63Z"/><path fill="#8f1442" stroke-width="5" d="M518.866 806.684c-13.216 0-23.948 8.789-23.948 19.63v117.778c0 10.841 10.732 19.63 23.948 19.629h454.623c13.216 0 23.947-8.788 23.948-19.629V826.314c0-10.841-10.732-19.63-23.948-19.63H518.866Zm16.881 56.534c9.626 0 17.713 6.226 20.69 14.84.19.507.364 1.007.51 1.531.345 1.303.529 2.656.629 4.043.016.325.156.615.157.943 0 .082-.039.153-.04.235.003.134.04.258.04.393 0 12.142-9.844 21.985-21.986 21.985-2.516 0-4.893-.517-7.145-1.296-8.613-2.977-14.84-11.064-14.84-20.689 0-11.995 9.615-21.711 21.553-21.946.147-.003.285-.039.432-.039Z"/><path fill="#fddf19" d="M598.251 911.893h-9.998v-37.539h-11.676v-7.282c3.082-.151 5.239-.376 6.471-.676 1.964-.476 3.561-1.427 4.794-2.853.845-.976 1.484-2.277 1.918-3.904.251-.976.376-1.702.376-2.177h8.115v54.431Zm30.679 1.577c-3.72 0-7.064-1.208-10.032-3.623-2.967-2.415-4.668-5.937-5.102-10.567h9.724c.229 1.601.845 2.903 1.849 3.904 1.005 1.001 2.34 1.501 4.007 1.501 3.218 0 5.478-1.952 6.779-5.856.708-2.152 1.153-5.293 1.336-9.422-.891 1.226-1.838 2.165-2.842 2.816-1.827 1.201-4.075 1.801-6.746 1.801-3.949 0-7.453-1.495-10.512-4.485-3.058-2.991-4.588-7.302-4.588-12.933 0-5.831 1.535-10.554 4.606-14.17 3.07-3.617 7.059-5.425 11.967-5.425 7.555 0 12.737 3.666 15.545 10.999 1.598 4.154 2.397 9.622 2.397 16.404 0 6.582-.765 12.075-2.295 16.48-2.921 8.384-8.286 12.576-16.093 12.576Zm-3.424-45.986c-1.871 1.602-2.807 4.317-2.807 8.146 0 3.229.599 5.65 1.797 7.264 1.199 1.614 3.042 2.421 5.53 2.421 1.347 0 2.614-.425 3.801-1.276 2.214-1.552 3.321-4.242 3.321-8.071 0-3.078-.656-5.518-1.969-7.32-1.312-1.802-3.11-2.703-5.393-2.703-1.666 0-3.093.513-4.28 1.539Zm48.587 1.052c-1.164-1.527-2.83-2.29-4.999-2.29-2.967 0-4.987 1.213-6.06 3.641-.617 1.401-.982 3.629-1.096 6.682h-9.484c.159-4.63.924-8.371 2.294-11.224 2.602-5.431 7.224-8.146 13.867-8.146 5.25 0 9.427 1.595 12.532 4.786 3.104 3.191 4.657 7.414 4.657 12.669 0 4.03-1.096 7.608-3.287 10.736-1.439 2.078-3.801 4.393-7.088 6.945l-3.904 3.041c-2.442 1.902-4.114 3.278-5.016 4.129a11.922 11.922 0 0 0-2.277 2.966h21.674v9.422h-34c.091-3.904.856-7.47 2.294-10.699 1.392-3.628 4.679-7.47 9.861-11.524 4.497-3.529 7.407-6.056 8.731-7.583 2.032-2.377 3.048-4.98 3.048-7.808 0-2.302-.582-4.217-1.747-5.743Zm19.004 32.17h10.375v11.187h-10.375v-11.187Zm41.636 11.187h-9.998v-37.539h-11.676v-7.282c3.082-.151 5.239-.376 6.471-.676 1.963-.476 3.561-1.427 4.794-2.853.845-.976 1.484-2.277 1.917-3.904.252-.976.377-1.702.377-2.177h8.115v54.431Zm33.898-35.324c4.406 0 8.018 1.639 10.837 4.917 2.819 3.279 4.229 7.471 4.229 12.576 0 5.08-1.381 9.56-4.143 13.439-2.762 3.879-7.054 5.818-12.875 5.818-6.254 0-10.865-2.865-13.833-8.596-2.305-4.48-3.458-10.261-3.458-17.343 0-4.154.16-7.533.479-10.135.571-4.63 1.678-8.484 3.322-11.562 1.415-2.628 3.27-4.743 5.564-6.344 2.294-1.602 5.039-2.403 8.234-2.403 4.611 0 8.287 1.295 11.026 3.885 2.739 2.591 4.28 6.038 4.622 10.342h-9.724c0-.876-.308-1.839-.925-2.89-1.05-1.702-2.636-2.553-4.759-2.553-3.173 0-5.433 1.952-6.78 5.856-.73 2.152-1.232 5.331-1.506 9.535 1.21-1.577 2.614-2.728 4.211-3.454 1.598-.725 3.425-1.088 5.479-1.088Zm-6.574 10.21c-1.918 1.627-2.876 4.255-2.876 7.884 0 2.928.719 5.318 2.157 7.169 1.438 1.852 3.264 2.778 5.478 2.778 2.169 0 3.875-.894 5.119-2.684 1.244-1.789 1.866-4.11 1.866-6.963 0-3.178-.707-5.612-2.123-7.301-1.415-1.69-3.15-2.534-5.204-2.534-1.667 0-3.139.55-4.417 1.651Zm30.268 21.698c-2.853-3.203-4.28-7.095-4.28-11.675 0-3.053.634-5.818 1.901-8.296 1.266-2.477 3.121-4.342 5.564-5.593-2.397-1.752-3.955-3.648-4.674-5.687-.719-2.04-1.079-3.948-1.079-5.725 0-3.954 1.358-7.326 4.075-10.117 2.716-2.79 6.551-4.185 11.505-4.185 4.953 0 8.788 1.395 11.504 4.185 2.717 2.791 4.075 6.163 4.075 10.117 0 1.777-.36 3.685-1.079 5.725-.719 2.039-2.277 3.81-4.673 5.312 2.442 1.501 4.28 3.491 5.512 5.968 1.233 2.478 1.849 5.243 1.849 8.296 0 4.58-1.546 8.478-4.639 11.694-3.093 3.215-7.413 4.823-12.96 4.823-5.547 0-9.747-1.614-12.601-4.842Zm5.855-12.388c0 2.678.634 4.755 1.901 6.231 1.267 1.477 3.019 2.215 5.256 2.215s3.989-.738 5.255-2.215c1.267-1.476 1.901-3.553 1.901-6.231 0-2.778-.645-4.886-1.935-6.325s-3.03-2.159-5.221-2.159c-2.192 0-3.932.72-5.222 2.159-1.29 1.439-1.935 3.547-1.935 6.325Zm2.568-18.544c1.096 1.251 2.625 1.877 4.589 1.877 1.985 0 3.521-.626 4.605-1.877 1.084-1.251 1.626-2.866 1.626-4.843 0-2.152-.542-3.835-1.626-5.049-1.084-1.213-2.62-1.82-4.605-1.82-1.964 0-3.499.607-4.606 1.82-1.107 1.214-1.66 2.897-1.66 5.049 0 1.977.559 3.592 1.677 4.843Zm28.831 23.161h10.375v11.187h-10.375v-11.187Zm41.636 11.187h-9.998v-37.539h-11.676v-7.282c3.081-.151 5.239-.376 6.471-.676 1.963-.476 3.561-1.427 4.794-2.853.844-.976 1.484-2.277 1.917-3.904.251-.976.377-1.702.377-2.177h8.115v54.431Zm16.846-11.187h10.375v11.187h-10.375v-11.187Zm39.479-32.17c-1.164-1.527-2.83-2.29-4.999-2.29-2.967 0-4.988 1.213-6.06 3.641-.617 1.401-.982 3.629-1.096 6.682H905.9c.16-4.63.925-8.371 2.294-11.224 2.603-5.431 7.225-8.146 13.868-8.146 5.25 0 9.427 1.595 12.532 4.786 3.104 3.191 4.656 7.414 4.656 12.669 0 4.03-1.095 7.608-3.287 10.736-1.438 2.078-3.8 4.393-7.087 6.945l-3.904 3.041c-2.442 1.902-4.114 3.278-5.016 4.129a11.874 11.874 0 0 0-2.277 2.966h21.674v9.422h-34c.091-3.904.856-7.47 2.294-10.699 1.392-3.628 4.679-7.47 9.861-11.524 4.497-3.529 7.407-6.056 8.731-7.583 2.032-2.377 3.047-4.98 3.047-7.808 0-2.302-.582-4.217-1.746-5.743Zm33.932 44.708c-6.323 0-10.757-2.427-13.302-7.282s-3.818-11.775-3.818-20.759 1.273-15.917 3.818-20.797c2.545-4.88 6.979-7.32 13.302-7.32 6.323 0 10.763 2.44 13.32 7.32 2.534 4.88 3.801 11.813 3.801 20.797s-1.273 15.904-3.818 20.759-6.98 7.282-13.303 7.282Zm5.719-13.701c.89-3.304 1.335-8.084 1.335-14.34 0-6.557-.451-11.412-1.353-14.565-.901-3.154-2.802-4.73-5.701-4.73-2.899 0-4.816 1.576-5.752 4.73-.936 3.153-1.404 8.008-1.404 14.565 0 6.256.468 11.042 1.404 14.358.936 3.316 2.853 4.974 5.752 4.974 2.899 0 4.805-1.664 5.719-4.992Z"/></g><path fill="none" stroke="#8b8b8b" stroke-width="10" d="M425 885c0-11.046 22.386-20 50-20s50 8.954 50 20"/><path fill="none" stroke="#000" stroke-width="5" d="M25 885h190M45 905h170"/></g></svg>