<svg xmlns="http://www.w3.org/2000/svg" xml:space="preserve" stroke-miterlimit="10" style="fill-rule:nonzero;clip-rule:evenodd;stroke-linecap:round;stroke-linejoin:round" viewBox="0 0 2048 1024"><g stroke="#000" stroke-linecap="butt" stroke-width="5"><path fill="#ddd" d="M600 500s-20 20-20 40 20 40 20 40h80l160 60V440l-160 60h-80Z"/><path fill="#eb493a" d="M680 580s-20-20-20-40 20-40 20-40h-80s-20 20-20 40 20 40 20 40h80Z"/><path fill="#8b8b8b" d="M800 540c0-55.228 28.954-100 40-100s40 44.772 40 100-28.954 100-40 100-40-44.772-40-100Z"/><path fill="#adadad" d="M620 580h40l20 100h-40l-20-100Z"/></g><path fill="#fddf19" stroke="#000" stroke-linecap="butt" stroke-width="5" d="M973.756 634.513h-24.797V503.88H920v-25.343c7.643-.523 12.993-1.306 16.05-2.352 4.869-1.654 8.832-4.964 11.889-9.928 2.095-3.396 3.68-7.925 4.756-13.586.623-3.396.934-5.922.934-7.576h20.127v189.418ZM1049.85 640c-9.23 0-17.53-4.202-24.89-12.606-7.36-8.404-11.57-20.662-12.65-36.773h24.12c.56 5.573 2.09 10.102 4.58 13.585 2.5 3.484 5.81 5.226 9.94 5.226 7.98 0 13.59-6.793 16.81-20.379 1.76-7.49 2.86-18.419 3.32-32.789-2.21 4.267-4.56 7.533-7.05 9.797-4.53 4.181-10.11 6.271-16.73 6.271-9.8 0-18.49-5.204-26.07-15.611-7.59-10.407-11.38-25.408-11.38-45.003 0-20.292 3.81-36.73 11.42-49.314 7.61-12.585 17.51-18.877 29.68-18.877 18.74 0 31.59 12.759 38.56 38.276 3.96 14.457 5.94 33.485 5.94 57.087 0 22.904-1.9 42.02-5.69 57.348-7.25 29.175-20.55 43.762-39.91 43.762Zm-8.5-160.026c-4.64 5.574-6.96 15.023-6.96 28.347 0 11.235 1.49 19.661 4.46 25.278 2.97 5.617 7.54 8.426 13.71 8.426 3.34 0 6.49-1.481 9.43-4.442 5.49-5.399 8.24-14.761 8.24-28.086 0-10.712-1.63-19.203-4.89-25.473-3.25-6.271-7.71-9.406-13.37-9.406-4.13 0-7.67 1.785-10.62 5.356Zm120.51 3.658c-2.89-5.313-7.02-7.969-12.4-7.969-7.36 0-12.37 4.224-15.03 12.671-1.53 4.877-2.44 12.628-2.72 23.253h-23.52c.39-16.111 2.29-29.131 5.69-39.059 6.45-18.899 17.92-28.348 34.39-28.348 13.02 0 23.38 5.552 31.08 16.656 7.7 11.104 11.55 25.8 11.55 44.089 0 14.021-2.72 26.475-8.15 37.361-3.57 7.228-9.43 15.284-17.58 24.167l-9.68 10.582c-6.06 6.618-10.2 11.408-12.44 14.369-2.24 2.961-4.12 6.401-5.65 10.32h53.76v32.789h-84.33c.23-13.586 2.12-25.996 5.69-37.23 3.45-12.628 11.61-25.996 24.46-40.105 11.15-12.279 18.37-21.075 21.65-26.388 5.04-8.273 7.56-17.33 7.56-27.171 0-8.013-1.44-14.675-4.33-19.987Zm47.13 111.953h25.73v38.928h-25.73v-38.928Zm103.27 38.928h-24.8V503.88h-28.96v-25.343c7.64-.523 12.99-1.306 16.05-2.352 4.87-1.654 8.83-4.964 11.89-9.928 2.09-3.396 3.68-7.925 4.76-13.586.62-3.396.93-5.922.93-7.576h20.13v189.418Zm84.07-122.926c10.93 0 19.89 5.705 26.88 17.113 6.99 11.409 10.49 25.996 10.49 43.762 0 17.68-3.43 33.268-10.28 46.767-6.85 13.499-17.49 20.248-31.93 20.248-15.51 0-26.95-9.971-34.31-29.915-5.72-15.589-8.58-35.706-8.58-60.352 0-14.457.4-26.214 1.19-35.271 1.42-16.112 4.16-29.524 8.24-40.236 3.51-9.144 8.11-16.503 13.8-22.077 5.69-5.573 12.5-8.36 20.42-8.36 11.44 0 20.55 4.507 27.35 13.52 6.79 9.014 10.61 21.011 11.46 35.99h-24.11c0-3.048-.77-6.401-2.3-10.059-2.6-5.922-6.54-8.883-11.8-8.883-7.87 0-13.48 6.793-16.82 20.379-1.81 7.49-3.05 18.55-3.73 33.181 3-5.487 6.48-9.493 10.44-12.018 3.97-2.526 8.49-3.789 13.59-3.789Zm-16.31 35.533c-4.75 5.66-7.13 14.805-7.13 27.433 0 10.189 1.78 18.506 5.35 24.951 3.57 6.444 8.1 9.666 13.59 9.666 5.38 0 9.61-3.113 12.69-9.34 3.09-6.227 4.63-14.304 4.63-24.232 0-11.061-1.75-19.53-5.26-25.409-3.51-5.878-7.81-8.817-12.91-8.817-4.13 0-7.78 1.916-10.96 5.748Zm75.08 75.506c-7.08-11.148-10.62-24.69-10.62-40.627 0-10.625 1.57-20.249 4.71-28.87 3.15-8.622 7.75-15.11 13.8-19.465-5.94-6.096-9.8-12.693-11.59-19.791-1.78-7.097-2.67-13.738-2.67-19.921 0-13.76 3.37-25.496 10.1-35.206 6.74-9.711 16.25-14.566 28.54-14.566 12.28 0 21.79 4.855 28.53 14.566 6.74 9.71 10.11 21.446 10.11 35.206 0 6.183-.9 12.824-2.68 19.921-1.78 7.098-5.65 13.26-11.59 18.485 6.06 5.225 10.61 12.149 13.67 20.771 3.06 8.621 4.59 18.245 4.59 28.87 0 15.937-3.84 29.501-11.51 40.692-7.67 11.191-18.39 16.786-32.14 16.786-13.76 0-24.18-5.617-31.25-16.851Zm14.52-43.109c0 9.318 1.57 16.547 4.71 21.685 3.14 5.138 7.49 7.707 13.04 7.707 5.54 0 9.89-2.569 13.03-7.707 3.14-5.138 4.72-12.367 4.72-21.685 0-9.667-1.6-17.004-4.8-22.012-3.2-5.008-7.52-7.512-12.95-7.512-5.44 0-9.76 2.504-12.95 7.512-3.2 5.008-4.8 12.345-4.8 22.012Zm6.37-64.533c2.71 4.354 6.51 6.531 11.38 6.531 4.92 0 8.73-2.177 11.42-6.531 2.69-4.355 4.03-9.972 4.03-16.852 0-7.49-1.34-13.346-4.03-17.57-2.69-4.224-6.5-6.336-11.42-6.336-4.87 0-8.68 2.112-11.43 6.336-2.74 4.224-4.11 10.08-4.11 17.57 0 6.88 1.38 12.497 4.16 16.852Zm71.5 80.601h25.73v38.928h-25.73v-38.928Zm145.05 0h25.73v38.928h-25.73v-38.928Zm97.91-111.953c-2.88-5.313-7.02-7.969-12.39-7.969-7.36 0-12.37 4.224-15.04 12.671-1.52 4.877-2.43 12.628-2.71 23.253h-23.53c.4-16.111 2.3-29.131 5.69-39.059 6.46-18.899 17.92-28.348 34.4-28.348 13.02 0 23.38 5.552 31.08 16.656 7.7 11.104 11.55 25.8 11.55 44.089 0 14.021-2.72 26.475-8.15 37.361-3.57 7.228-9.43 15.284-17.58 24.167l-9.68 10.582c-6.06 6.618-10.21 11.408-12.45 14.369-2.23 2.961-4.11 6.401-5.64 10.32h53.75v32.789h-84.33c.23-13.586 2.13-25.996 5.69-37.23 3.46-12.628 11.61-25.996 24.46-40.105 11.16-12.279 18.37-21.075 21.66-26.388 5.04-8.273 7.56-17.33 7.56-27.171 0-8.013-1.45-14.675-4.34-19.987Zm84.16 155.584c-15.68 0-26.68-8.447-32.99-25.343-6.31-16.895-9.47-40.975-9.47-72.24 0-31.265 3.16-55.389 9.47-72.371 6.31-16.982 17.31-25.474 32.99-25.474 15.69 0 26.7 8.492 33.04 25.474 6.28 16.982 9.42 41.106 9.42 72.371 0 31.265-3.15 55.345-9.46 72.24-6.32 16.896-17.31 25.343-33 25.343Zm14.18-47.681c2.21-11.496 3.32-28.13 3.32-49.902 0-22.817-1.12-39.713-3.36-50.686-2.23-10.973-6.95-16.46-14.14-16.46s-11.94 5.487-14.26 16.46c-2.33 10.973-3.49 27.869-3.49 50.686 0 21.772 1.16 38.428 3.49 49.967 2.32 11.54 7.07 17.309 14.26 17.309 7.19 0 11.92-5.791 14.18-17.374Zm100.72-28.086c-.68 3.309-1.04 8.447-1.1 15.414h-22.93c.34-14.718 1.25-24.885 2.72-30.502 1.47-5.618 5.26-12.084 11.38-19.4l6.2-7.446c2.03-2.351 3.68-4.92 4.92-7.707 2.27-4.79 3.4-10.059 3.4-15.807 0-6.618-1.26-12.649-3.78-18.092-2.52-5.444-7.12-8.165-13.8-8.165-6.57 0-11.22 3.353-13.97 10.059a54.57 54.57 0 0 0-4.12 20.901h-24.54c.68-24.82 6.31-42.412 16.9-52.776 6.68-6.619 14.89-9.928 24.63-9.928 12.79 0 23.42 4.703 31.88 14.108 8.47 9.406 12.7 23.34 12.7 41.803 0 11.322-1.84 20.858-5.52 28.609-2.15 4.703-6.28 10.712-12.4 18.027l-6.03 7.185c-3.28 3.919-5.46 8.491-6.54 13.717Zm.68 71.064h-25.3V596.76h25.3v37.753Zm-338.93-.138h-24.79V503.742h-28.96v-25.343c7.64-.523 12.99-1.306 16.05-2.352 4.87-1.654 8.83-4.964 11.89-9.928 2.09-3.396 3.68-7.925 4.75-13.586.63-3.396.94-5.922.94-7.576h20.12v189.418Z"/><g stroke-linecap="butt" stroke-width="5"><path fill="#8b8b8b" stroke="#000" d="M364.8 547.264s109.2-31.033 145.6 41.378c10.447 20.782 11.503 46.871 9.6 71.358-4.728 60.835-38.631 125.792-72 177.422-46.8 72.412-208 62.067-208 62.067l124.8-352.225Z"/><g stroke="#000"><path fill="#8b8b8b" d="m615.462 616.571-79.827 67.161s-10.275 11.53-21.818 12.927c-11.544 1.397-30.26-13.289-30.26-13.289s-54.126-44.993-94.902-41.997c-40.777 2.995-85.341 29.512-62.4 62.067 22.94 32.554 154.16 68.15 154.16 68.15s18.398 7.078 33.011 5.674c14.614-1.404 25.442-11.29 25.442-11.29l92.293-59.348-15.699-90.055Z"/><path fill="#ef9f46" d="M601.584 624.155c13.481-25.788 78.445-24.149 78.629-24.128 18.295 2.158 8.783 18.501 8.783 18.501l-21.65 6.954 20.973-6.534s11.809 3.444 9.671 15.304c-1.298 7.2-24.468 10.986-24.468 10.986l19.862-6.143s14.578 3.883 10.55 16.156c-2.282 6.954-24.236 9.743-24.236 9.743l19.862-6.143s12.672 5.57 7.043 18.068c-1.969 4.372-54.061 39.451-80.315 26.26-26.255-13.191-38.185-53.236-24.704-79.024Z"/></g><path fill="#ef9f46" stroke="#000" d="M448 340.881c-68.925 0-124.812 55.568-124.812 124.125-.001 68.558 55.887 124.156 124.812 124.156 37.103 0 70.328-16.215 93.188-41.781-31.769-3.915-72.376-40.969-72.376-40.969h96.75c4.613-12.959 7.25-26.874 7.25-41.406.001-68.557-55.887-124.125-124.812-124.125Z"/><path fill="#f5891d" stroke="#000" d="M514.568 420s8.771 10.05 20.8 20.689c17.953 15.878 41.6 35.184 41.6 41.378 0 10.345-62.4 0-62.4 0s-20.8 5.172-20.8 0 20.8-20.689 20.8-20.689V420Z"/><g fill="#303030" stroke="#000"><path d="M333.6 568.464c-17.231 0-31.2-46.314-31.2-103.445 0-57.132 13.969-103.446 31.2-103.446s31.2 46.314 31.2 103.446c0 57.131-13.969 103.445-31.2 103.445Z"/><path d="M305.658 461.778c-12.184-12.119 10.863-54.693 51.478-95.091 40.614-40.398 83.416-63.322 95.6-51.203 12.185 12.119-10.862 54.693-51.477 95.091-40.615 40.398-83.416 63.322-95.601 51.203Z"/><path d="M344 347.093c0-26.281 46.562-47.587 104-47.587s104 21.306 104 47.587c0 26.282-46.562 47.587-104 47.587s-104-21.305-104-47.587Z"/></g><path fill="#f5891d" stroke="#000" d="M364.8 423.641c10.4-15.517 41.6 0 41.6 0v62.067s-10.4 20.689-20.8 20.689-20.8-20.689-20.8-20.689-10.4-46.551 0-62.067Z"/><path fill="#ddd" stroke="#000" d="M460 420.689c0-11.426 9.312-20.689 20.8-20.689 11.488 0 20.8 9.263 20.8 20.689s-9.312 20.689-20.8 20.689c-11.488 0-20.8-9.263-20.8-20.689Z"/><path stroke="#000" d="M476.997 421.269c0-5.522 4.478-10 10-10 5.523 0 10 4.478 10 10 0 5.523-4.477 10-10 10-5.522 0-10-4.477-10-10Z"/><path fill="#fff" stroke="#fff" d="M480.147 417.24c0-1.208 1.034-2.187 2.309-2.187 1.275 0 2.308.979 2.308 2.187 0 1.208-1.033 2.188-2.308 2.188s-2.309-.98-2.309-2.188Z"/><path fill="#ddd" stroke="#000" d="M527.893 417.337c0-11.426 9.312-20.689 20.8-20.689 11.487 0 20.8 9.263 20.8 20.689s-9.313 20.689-20.8 20.689c-11.488 0-20.8-9.263-20.8-20.689Z"/><path stroke="#000" d="M544.89 417.917c0-5.522 4.477-10 10-10s10 4.478 10 10c0 5.523-4.477 10-10 10s-10-4.477-10-10Z"/><path fill="#fff" stroke="#fff" d="M548.04 413.888c0-1.208 1.034-2.187 2.309-2.187 1.274 0 2.308.979 2.308 2.187 0 1.208-1.034 2.188-2.308 2.188-1.275 0-2.309-.98-2.309-2.188Z"/></g><path fill="#ed6d48" stroke="#000" stroke-linecap="butt" stroke-width="5" d="M23.442 23.272 420 208.71V1020L23.442 880.922V23.272Z"/><path fill="#f5891d" stroke="#000" stroke-linecap="butt" stroke-width="5" d="M267.281 662.051c0-32.005 20.756-57.95 46.36-57.95 25.603 0 46.359 25.945 46.359 57.95C360 694.055 339.244 720 313.641 720c-25.604 0-46.36-25.945-46.36-57.949Z"/><path fill="#ef9f46" d="M280 646.829c0-14.817 9.609-26.829 21.463-26.829 11.854 0 21.464 12.012 21.464 26.829 0 14.818-9.61 26.83-21.464 26.83S280 661.647 280 646.829Z"/></svg>