<svg xmlns="http://www.w3.org/2000/svg" xml:space="preserve" stroke-miterlimit="10" style="fill-rule:nonzero;clip-rule:evenodd;stroke-linecap:round;stroke-linejoin:round" viewBox="0 0 2048 1024"><g stroke="#000" stroke-linecap="butt" stroke-width="5"><path fill="#e8cd1b" d="M391.955 200.448h799.995v623.104H391.955V200.448Z"/><path fill="none" d="m791.955 644.807-400-161.255m400 160 155.499-62.687 244.496-98.568"/><g fill="#e8cd1b"><path d="M1522.85 200.448c-13.59 0-24.6 15.625-24.6 34.899v106.37a166.518 166.518 0 0 0-24.06 5.162c-15.04-40.791-36.49-98.924-37.51-101.68-5.87-15.924-18.72-26.558-30.44-26.138-1.67.06-3.31.343-4.91.872-12.83 4.233-17.79 22.408-11.07 40.607 1.08 2.936 19.59 60.783 33.89 99.563 0 0-24.28 42.647-24.28 63.7 0 6.631-.01 34.02 0 41.879 0 46.258 40.03 83.758 89.43 83.758 11.87 0 23.18-2.207 33.55-6.144a94.314 94.314 0 0 0 33.55 6.144c49.4 0 89.43-37.5 89.43-83.758v-41.879c0-17.18-21.15-63.352-25.11-66.35 14.05-39.011 31.4-94.887 32.45-97.822 6.57-18.245 1.49-36.428-11.37-40.57a17.902 17.902 0 0 0-4.96-.836c-11.72-.337-24.5 10.428-30.25 26.392-.99 2.761-21.93 60.908-36.66 101.826-3.56-1.006-22.48-4.726-22.48-4.726v-106.37c0-19.274-11.02-34.899-24.6-34.899Z"/><path d="M1321.97 370.071c-13.74-5.038-31.71-1.187-43.55 7.104-8.29 5.799-14.15 21.229-7.21 28.434 23.9 24.818 62.02 33.646 88.51 55.988 24 20.241 35.13 52.815 61.37 70.407 19.66 13.188 45.78 16.906 69.87 17.61 14.15.413 31.31-3.583 39.63-14.411 11.66-15.179 16.35-36.234 13.57-54.814-2.93-19.54-10.45-44.323-29.59-52.174-31.37-12.867-69.98 7.809-102.55-2.024-34.24-10.337-56.54-43.824-90.05-56.12Z"/></g><path fill="#fff" d="M565.003 431.776c0-39.641 34.697-71.776 77.499-71.776C685.303 360 720 392.135 720 431.776s-34.697 71.776-77.498 71.776c-42.802 0-77.499-32.135-77.499-71.776Z"/><path fill="#303030" d="M616.669 431.776c0-13.214 11.566-23.925 25.833-23.925 14.267 0 25.832 10.711 25.832 23.925s-11.565 23.925-25.832 23.925c-14.267 0-25.833-10.711-25.833-23.925Z"/><path fill="#fff" d="M642.502 419.813c0-6.606 5.782-11.962 12.916-11.962s12.916 5.356 12.916 11.962c0 6.607-5.782 11.963-12.916 11.963s-12.916-5.356-12.916-11.963ZM880 431.776C880 392.135 914.697 360 957.498 360c42.802 0 77.502 32.135 77.502 71.776s-34.7 71.776-77.502 71.776c-42.801 0-77.498-32.135-77.498-71.776Z"/><path fill="#303030" d="M931.666 431.776c0-13.214 11.565-23.925 25.832-23.925 14.267 0 25.833 10.711 25.833 23.925s-11.566 23.925-25.833 23.925c-14.267 0-25.832-10.711-25.832-23.925Z"/><path fill="#fff" d="M957.498 419.813c0-6.606 5.783-11.962 12.917-11.962 7.133 0 12.916 5.356 12.916 11.962 0 6.607-5.783 11.963-12.916 11.963-7.134 0-12.917-5.356-12.917-11.963Z"/></g></svg>