<svg xmlns="http://www.w3.org/2000/svg" xml:space="preserve" stroke-miterlimit="10" style="fill-rule:nonzero;clip-rule:evenodd;stroke-linecap:round;stroke-linejoin:round" viewBox="0 0 1024 1024"><g stroke="#000" stroke-linecap="butt" stroke-width="10"><path fill="#f1d244" d="M120 60v740l140 140h640V60H120Z"/><path fill="#fddf19" d="M120 800h140v140L120 800Z"/></g><path d="M151.731 390h14.714v70.88h-14.714V390Zm58.617 45.394h-15.051v25.486h-14.714V390h30.871c7.117 0 12.791 1.827 17.023 5.482 4.231 3.654 6.347 9.313 6.347 16.974 0 8.368-2.116 14.282-6.347 17.744-4.232 3.463-10.275 5.194-18.129 5.194Zm6.925-14.763c1.923-1.699 2.885-4.392 2.885-8.078 0-3.687-.97-6.316-2.909-7.887-1.94-1.57-4.657-2.356-8.151-2.356h-13.801v20.87h13.801c3.494 0 6.219-.85 8.175-2.549Zm46.884 25.919v14.33h-14.57v-14.33h14.57Zm-14.57-21.687v-14.33h14.57v14.33h-14.57Zm86.267 36.017h-14.041v-48.087h-16.398v-9.329c4.328-.192 7.358-.481 9.089-.865 2.757-.609 5.001-1.828 6.732-3.655 1.186-1.25 2.084-2.917 2.693-5.001.352-1.25.529-2.18.529-2.789h11.396v69.726Zm43.086 2.019c-5.226 0-9.922-1.547-14.09-4.64-4.167-3.094-6.555-7.606-7.165-13.536h13.657c.321 2.051 1.186 3.718 2.597 5.001 1.41 1.282 3.286 1.923 5.626 1.923 4.52 0 7.694-2.5 9.521-7.501.994-2.757 1.619-6.781 1.875-12.07-1.25 1.571-2.58 2.773-3.991 3.606-2.564 1.539-5.722 2.308-9.473 2.308-5.546 0-10.467-1.915-14.762-5.746-4.296-3.831-6.444-9.353-6.444-16.566 0-7.469 2.156-13.52 6.468-18.152 4.311-4.633 9.913-6.949 16.806-6.949 10.611 0 17.888 4.696 21.831 14.089 2.244 5.322 3.366 12.327 3.366 21.014 0 8.431-1.074 15.468-3.222 21.11-4.103 10.74-11.637 16.109-22.6 16.109Zm-4.809-58.906c-2.629 2.052-3.943 5.53-3.943 10.435 0 4.135.841 7.237 2.525 9.305 1.683 2.067 4.271 3.101 7.766 3.101 1.891 0 3.67-.545 5.337-1.635 3.11-1.987 4.665-5.433 4.665-10.338 0-3.943-.922-7.069-2.765-9.377-1.844-2.308-4.368-3.462-7.574-3.462-2.34 0-4.344.657-6.011 1.971Zm68.235 1.347c-1.635-1.956-3.975-2.934-7.021-2.934-4.167 0-7.004 1.555-8.511 4.665-.866 1.795-1.379 4.648-1.539 8.559h-13.32c.225-5.931 1.299-10.723 3.222-14.378 3.655-6.956 10.146-10.435 19.475-10.435 7.373 0 13.24 2.044 17.6 6.132 4.36 4.087 6.54 9.497 6.54 16.229 0 5.161-1.539 9.745-4.617 13.753-2.019 2.66-5.337 5.626-9.954 8.896l-5.482 3.895c-3.43 2.436-5.778 4.199-7.044 5.289a15.49 15.49 0 0 0-3.198 3.799h30.439v12.07h-47.75c.128-5.001 1.202-9.57 3.222-13.705 1.955-4.648 6.571-9.569 13.849-14.763 6.315-4.52 10.402-7.758 12.262-9.713 2.853-3.046 4.279-6.38 4.279-10.002 0-2.949-.817-5.402-2.452-7.357Zm26.688 41.21h14.57v14.33h-14.57v-14.33Zm58.473 14.33h-14.041v-48.087h-16.398v-9.329c4.328-.192 7.358-.481 9.089-.865 2.757-.609 5.001-1.828 6.732-3.655 1.186-1.25 2.084-2.917 2.693-5.001.352-1.25.529-2.18.529-2.789h11.396v69.726Zm47.606-45.25c6.187 0 11.26 2.1 15.219 6.299 3.96 4.2 5.939 9.57 5.939 16.11 0 6.507-1.939 12.246-5.818 17.215-3.879 4.968-9.906 7.453-18.081 7.453-8.784 0-15.259-3.671-19.427-11.012-3.238-5.738-4.857-13.144-4.857-22.216 0-5.321.225-9.649.674-12.983.801-5.931 2.356-10.868 4.664-14.811 1.988-3.366 4.592-6.075 7.814-8.127 3.222-2.051 7.077-3.077 11.565-3.077 6.476 0 11.637 1.659 15.484 4.977 3.847 3.318 6.011 7.734 6.491 13.248h-13.656c0-1.122-.433-2.357-1.298-3.703-1.475-2.18-3.703-3.27-6.685-3.27-4.456 0-7.629 2.501-9.521 7.502-1.026 2.757-1.731 6.828-2.115 12.214 1.699-2.02 3.67-3.495 5.914-4.424 2.244-.93 4.809-1.395 7.694-1.395Zm-9.233 13.08c-2.692 2.083-4.039 5.45-4.039 10.098 0 3.751 1.01 6.812 3.03 9.184 2.019 2.373 4.584 3.559 7.693 3.559 3.046 0 5.442-1.146 7.189-3.438 1.748-2.292 2.621-5.266 2.621-8.92 0-4.072-.994-7.189-2.981-9.353-1.988-2.164-4.424-3.246-7.309-3.246-2.341 0-4.408.705-6.204 2.116Zm42.509 27.794c-4.007-4.104-6.011-9.089-6.011-14.955 0-3.911.89-7.454 2.669-10.627 1.779-3.174 4.384-5.562 7.814-7.165-3.366-2.244-5.554-4.673-6.564-7.285-1.01-2.613-1.515-5.057-1.515-7.334 0-5.065 1.908-9.384 5.723-12.959 3.815-3.574 9.2-5.362 16.157-5.362 6.956 0 12.342 1.788 16.157 5.362 3.815 3.575 5.722 7.894 5.722 12.959 0 2.277-.505 4.721-1.514 7.334-1.01 2.612-3.198 4.88-6.564 6.804 3.43 1.923 6.011 4.472 7.742 7.646 1.731 3.173 2.596 6.716 2.596 10.627 0 5.866-2.172 10.859-6.515 14.979-4.344 4.119-10.411 6.179-18.201 6.179-7.79 0-13.689-2.068-17.696-6.203Zm8.223-15.869c0 3.43.889 6.091 2.669 7.983 1.779 1.891 4.239 2.837 7.381 2.837 3.142 0 5.602-.946 7.381-2.837 1.779-1.892 2.669-4.553 2.669-7.983 0-3.558-.906-6.259-2.717-8.102-1.811-1.844-4.256-2.765-7.333-2.765-3.078 0-5.522.921-7.333 2.765-1.812 1.843-2.717 4.544-2.717 8.102Zm3.606-23.755c1.539 1.603 3.687 2.405 6.444 2.405 2.789 0 4.945-.802 6.467-2.405 1.523-1.602 2.285-3.67 2.285-6.203 0-2.757-.762-4.913-2.285-6.467-1.522-1.555-3.678-2.333-6.467-2.333-2.757 0-4.913.778-6.468 2.333-1.555 1.554-2.332 3.71-2.332 6.467 0 2.533.785 4.601 2.356 6.203Zm40.489 29.67h14.57v14.33h-14.57v-14.33Zm58.473 14.33h-14.041v-48.087h-16.397v-9.329c4.327-.192 7.357-.481 9.088-.865 2.757-.609 5.001-1.828 6.732-3.655 1.186-1.25 2.084-2.917 2.693-5.001.353-1.25.529-2.18.529-2.789H719.2v69.726Zm23.659-14.33h14.57v14.33h-14.57v-14.33Zm55.444-41.21c-1.635-1.956-3.975-2.934-7.021-2.934-4.167 0-7.004 1.555-8.511 4.665-.866 1.795-1.379 4.648-1.539 8.559h-13.32c.225-5.931 1.299-10.723 3.222-14.378 3.655-6.956 10.146-10.435 19.475-10.435 7.373 0 13.24 2.044 17.6 6.132 4.36 4.087 6.54 9.497 6.54 16.229 0 5.161-1.539 9.745-4.617 13.753-2.019 2.66-5.337 5.626-9.954 8.896l-5.482 3.895c-3.43 2.436-5.778 4.199-7.044 5.289a15.49 15.49 0 0 0-3.198 3.799h30.439v12.07h-47.75c.128-5.001 1.202-9.57 3.222-13.705 1.955-4.648 6.571-9.569 13.849-14.763 6.315-4.52 10.402-7.758 12.262-9.713 2.853-3.046 4.279-6.38 4.279-10.002 0-2.949-.817-5.402-2.452-7.357Zm47.654 57.271c-8.88 0-15.107-3.11-18.682-9.329-3.574-6.219-5.362-15.083-5.362-26.592 0-11.509 1.788-20.389 5.362-26.64 3.575-6.251 9.802-9.377 18.682-9.377 8.88 0 15.115 3.126 18.705 9.377 3.559 6.251 5.338 15.131 5.338 26.64s-1.787 20.373-5.362 26.592c-3.574 6.219-9.801 9.329-18.681 9.329Zm8.03-17.552c1.25-4.231 1.876-10.354 1.876-18.369 0-8.399-.634-14.618-1.9-18.658-1.266-4.039-3.935-6.058-8.006-6.058-4.072 0-6.764 2.019-8.079 6.058-1.314 4.04-1.971 10.259-1.971 18.658 0 8.015.657 14.146 1.971 18.393 1.315 4.248 4.007 6.372 8.079 6.372 4.071 0 6.748-2.132 8.03-6.396ZM173.512 553.366h-15.051v25.486h-14.714v-70.88h30.871c7.117 0 12.791 1.828 17.023 5.482 4.231 3.655 6.347 9.313 6.347 16.975 0 8.367-2.116 14.282-6.347 17.744-4.232 3.462-10.275 5.193-18.129 5.193Zm6.925-14.762c1.923-1.699 2.885-4.392 2.885-8.079 0-3.687-.97-6.315-2.909-7.886-1.94-1.571-4.657-2.356-8.151-2.356h-13.801v20.869h13.801c3.494 0 6.219-.849 8.175-2.548Zm71.264-5.53c4.424 5.546 6.636 12.101 6.636 19.667 0 7.694-2.212 14.274-6.636 19.74-4.424 5.465-11.14 8.198-20.148 8.198-9.009 0-15.725-2.733-20.149-8.198-4.424-5.466-6.636-12.046-6.636-19.74 0-7.566 2.212-14.121 6.636-19.667 4.424-5.546 11.14-8.319 20.149-8.319 9.008 0 15.724 2.773 20.148 8.319Zm-20.196 3.27c-4.008 0-7.093 1.418-9.257 4.255-2.164 2.837-3.246 6.885-3.246 12.142 0 5.258 1.082 9.313 3.246 12.166 2.164 2.853 5.249 4.28 9.257 4.28 4.007 0 7.084-1.427 9.232-4.28 2.148-2.853 3.222-6.908 3.222-12.166 0-5.257-1.074-9.305-3.222-12.142-2.148-2.837-5.225-4.255-9.232-4.255Zm62.993 2.74c-5.514 0-9.217 1.796-11.108 5.386-1.058 2.02-1.587 5.129-1.587 9.329v25.053h-13.801v-52.414h13.08v9.136c2.116-3.494 3.959-5.882 5.53-7.165 2.564-2.148 5.898-3.222 10.002-3.222.256 0 .473.008.649.024.176.017.569.041 1.178.073v14.041a37.213 37.213 0 0 0-3.943-.241Zm35.969 30.006v10.243l-6.492.24c-6.476.225-10.9-.897-13.272-3.366-1.539-1.571-2.308-3.991-2.308-7.261V536.68h-7.309v-9.761h7.309V512.3h13.56v14.619h8.512v9.761h-8.512v27.698c0 2.148.273 3.486.818 4.015.545.529 2.212.794 5.001.794a38.5 38.5 0 0 0 2.693-.097Zm28.13-4.568v14.33h-14.57v-14.33h14.57Zm-14.57-21.687v-14.33h14.57v14.33h-14.57Zm57.608 31.641c-4.007-4.103-6.011-9.088-6.011-14.955 0-3.911.89-7.453 2.669-10.627 1.779-3.174 4.384-5.562 7.814-7.165-3.366-2.244-5.554-4.672-6.564-7.285-1.01-2.613-1.515-5.057-1.515-7.333 0-5.065 1.908-9.385 5.723-12.959 3.815-3.575 9.2-5.362 16.157-5.362 6.956 0 12.342 1.787 16.157 5.362 3.815 3.574 5.722 7.894 5.722 12.959 0 2.276-.505 4.72-1.514 7.333-1.01 2.613-3.198 4.881-6.564 6.804 3.43 1.924 6.011 4.472 7.742 7.646 1.731 3.174 2.596 6.716 2.596 10.627 0 5.867-2.172 10.86-6.515 14.979-4.344 4.12-10.411 6.179-18.201 6.179-7.79 0-13.689-2.067-17.696-6.203Zm8.223-15.868c0 3.43.889 6.091 2.669 7.982 1.779 1.891 4.239 2.837 7.381 2.837 3.141 0 5.602-.946 7.381-2.837 1.779-1.891 2.669-4.552 2.669-7.982 0-3.559-.906-6.26-2.717-8.103s-4.256-2.765-7.333-2.765c-3.078 0-5.522.922-7.333 2.765-1.812 1.843-2.717 4.544-2.717 8.103Zm3.606-23.755c1.539 1.603 3.687 2.404 6.444 2.404 2.789 0 4.945-.801 6.467-2.404 1.523-1.603 2.285-3.671 2.285-6.203 0-2.757-.762-4.913-2.285-6.468-1.522-1.555-3.678-2.332-6.467-2.332-2.757 0-4.913.777-6.468 2.332-1.555 1.555-2.332 3.711-2.332 6.468 0 2.532.785 4.6 2.356 6.203Zm61.455 45.73c-8.88 0-15.107-3.109-18.682-9.329-3.574-6.219-5.361-15.083-5.361-26.591 0-11.509 1.787-20.389 5.361-26.64 3.575-6.252 9.802-9.377 18.682-9.377 8.88 0 15.115 3.125 18.706 9.377 3.558 6.251 5.337 15.131 5.337 26.64 0 11.508-1.787 20.372-5.361 26.591-3.575 6.22-9.802 9.329-18.682 9.329Zm8.03-17.551c1.251-4.232 1.876-10.355 1.876-18.369 0-8.4-.633-14.619-1.9-18.658-1.266-4.039-3.935-6.059-8.006-6.059s-6.764 2.02-8.079 6.059c-1.314 4.039-1.971 10.258-1.971 18.658 0 8.014.657 14.145 1.971 18.393 1.315 4.247 4.008 6.371 8.079 6.371 4.071 0 6.748-2.132 8.03-6.395ZM211.827 290.169c-7.157 6.554-16.309 9.831-27.456 9.831-13.792 0-24.636-4.427-32.53-13.281C143.947 277.821 140 265.625 140 250.13c0-16.753 4.489-29.666 13.468-38.737 7.807-7.899 17.739-11.849 29.797-11.849 16.135 0 27.933 5.295 35.393 15.886 4.121 5.946 6.333 11.914 6.637 17.903h-20.039c-1.301-4.6-2.971-8.073-5.01-10.416-3.643-4.167-9.043-6.25-16.2-6.25-7.287 0-13.034 2.94-17.241 8.821-4.207 5.881-6.311 14.204-6.311 24.968s2.223 18.826 6.669 24.186c4.446 5.36 10.095 8.04 16.948 8.04 7.027 0 12.383-2.3 16.07-6.901 2.039-2.474 3.73-6.185 5.075-11.133h19.843c-1.735 10.461-6.159 18.967-13.272 25.521ZM282.808 300c-13.706 0-24.181-3.733-31.424-11.198-9.716-9.158-14.574-22.352-14.574-39.583 0-17.578 4.858-30.773 14.574-39.584 7.243-7.465 17.718-11.197 31.424-11.197s24.181 3.732 31.424 11.197c9.673 8.811 14.509 22.006 14.509 39.584 0 17.231-4.836 30.425-14.509 39.583-7.243 7.465-17.718 11.198-31.424 11.198Zm18.933-25.781c4.641-5.86 6.961-14.193 6.961-25 0-10.764-2.331-19.087-6.994-24.968-4.662-5.881-10.962-8.821-18.9-8.821-7.937 0-14.27 2.929-18.998 8.789-4.727 5.859-7.091 14.192-7.091 25 0 10.807 2.364 19.14 7.091 25 4.728 5.859 11.061 8.789 18.998 8.789 7.938 0 14.248-2.93 18.933-8.789Zm119.842 23.112h-20.039l-39.167-68.164v68.164h-18.672v-95.964h21.015l38.19 66.992v-66.992h18.673v95.964Zm88.352-95.964v16.992h-28.692v78.972h-20.169v-78.972h-28.821v-16.992h77.682Zm52.439 58.334h-20.689v37.63h-19.584v-95.964h47.039c6.723.13 11.895.955 15.517 2.474 3.622 1.519 6.691 3.754 9.206 6.706a29.711 29.711 0 0 1 4.945 8.073c1.214 2.951 1.822 6.315 1.822 10.091 0 4.557-1.15 9.039-3.449 13.444-2.299 4.405-6.094 7.519-11.385 9.342 4.424 1.78 7.558 4.308 9.401 7.585s2.765 8.279 2.765 15.007v6.445c0 4.384.174 7.357.521 8.919.52 2.474 1.734 4.297 3.643 5.469v2.409H580.07c-.607-2.127-1.041-3.841-1.301-5.143a47.403 47.403 0 0 1-.846-8.269l-.13-8.919c-.087-6.12-1.203-10.2-3.35-12.24-2.147-2.04-6.17-3.059-12.069-3.059Zm12.166-17.448c3.991-1.823 5.986-5.426 5.986-10.808 0-5.816-1.93-9.722-5.791-11.718-2.168-1.129-5.421-1.693-9.759-1.693h-23.291v25.781h22.706c4.511 0 7.894-.521 10.149-1.562Zm99.478 35.351H638.69l-6.636 19.727h-20.95l34.222-95.964h22.641l33.962 95.964h-21.73l-6.181-19.727Zm-5.595-16.536-11.971-37.761-12.362 37.761h24.333Zm113.335 29.101c-7.156 6.554-16.308 9.831-27.455 9.831-13.793 0-24.637-4.427-32.531-13.281-7.894-8.898-11.841-21.094-11.841-36.589 0-16.753 4.49-29.666 13.468-38.737 7.807-7.899 17.74-11.849 29.798-11.849 16.135 0 27.932 5.295 35.393 15.886 4.12 5.946 6.332 11.914 6.636 17.903h-20.039c-1.301-4.6-2.971-8.073-5.009-10.416-3.644-4.167-9.044-6.25-16.201-6.25-7.286 0-13.033 2.94-17.241 8.821-4.207 5.881-6.31 14.204-6.31 24.968s2.222 18.826 6.668 24.186c4.446 5.36 10.095 8.04 16.949 8.04 7.026 0 12.383-2.3 16.07-6.901 2.038-2.474 3.73-6.185 5.074-11.133h19.844c-1.735 10.461-6.159 18.967-13.273 25.521ZM880 201.367v16.992h-28.692v78.972h-20.169v-78.972h-28.821v-16.992H880Zm-580.991-51.413h-20.04V190H260V87.875h45.563c6.512.139 11.523 1.016 15.031 2.633 3.508 1.616 6.48 3.995 8.917 7.136a32.293 32.293 0 0 1 4.789 8.591c1.177 3.141 1.765 6.721 1.765 10.739 0 4.85-1.113 9.619-3.34 14.308-2.227 4.688-5.903 8.002-11.029 9.942 4.286 1.894 7.321 4.584 9.107 8.071 1.785 3.488 2.678 8.811 2.678 15.971v6.859c0 4.665.168 7.829.504 9.492.505 2.632 1.681 4.572 3.529 5.819V190h-21.363c-.588-2.263-1.009-4.088-1.261-5.473a55.144 55.144 0 0 1-.819-8.8l-.126-9.492c-.084-6.512-1.166-10.854-3.245-13.025-2.08-2.171-5.977-3.256-11.691-3.256Zm11.785-18.568c3.865-1.94 5.798-5.774 5.798-11.502 0-6.189-1.87-10.346-5.609-12.471-2.101-1.201-5.252-1.801-9.453-1.801h-22.561v27.436h21.994c4.369 0 7.646-.554 9.831-1.662Zm106.63 13.995h-45.123v26.259h51.425V190h-70.394V87.875h68.125v18.083h-49.156v21.686h45.123v17.737ZM513.97 190h-19.41l-37.938-72.541V190h-18.087V87.875h20.356l36.993 71.294V87.875h18.086V190Zm85.581-102.125v18.083H571.76V190h-19.537v-84.042h-27.917V87.875h75.245Zm56.214 81.132h-34.22L615.117 190h-20.292l33.148-102.125h21.931L682.801 190h-21.049l-5.987-20.993Zm-5.42-17.598-11.595-40.185-11.974 40.185h23.569Zm44.24-63.534h19.41v83.765H760V190h-65.415V87.875Z"/><path fill="#303030" d="M427.688 811.95h14.033v67.597h-14.033V811.95Zm54.114 23.021c3.455-4.402 9.386-6.604 17.793-6.604 5.473 0 10.334 1.086 14.584 3.256 4.249 2.171 6.374 6.268 6.374 12.291v22.93c0 1.589.031 3.515.092 5.778.092 1.712.352 2.874.78 3.485.428.612 1.07 1.116 1.926 1.514v1.926h-14.217c-.397-1.009-.672-1.957-.825-2.844a34.293 34.293 0 0 1-.367-3.026 26.88 26.88 0 0 1-6.237 4.998c-2.813 1.621-5.992 2.431-9.539 2.431-4.525 0-8.262-1.292-11.213-3.875-2.95-2.584-4.425-6.245-4.425-10.984 0-6.145 2.369-10.593 7.108-13.345 2.599-1.498 6.421-2.568 11.465-3.21l4.448-.55c2.416-.306 4.143-.688 5.183-1.147 1.865-.795 2.797-2.033 2.797-3.714 0-2.049-.711-3.463-2.132-4.242-1.422-.78-3.509-1.17-6.26-1.17-3.088 0-5.274.764-6.558 2.293-.917 1.131-1.529 2.66-1.835 4.586h-12.611c.275-4.372 1.498-7.964 3.669-10.777Zm9.722 35.129c1.223 1.008 2.721 1.513 4.494 1.513 2.813 0 5.404-.826 7.774-2.477 2.369-1.65 3.599-4.662 3.691-9.034v-4.861c-.825.52-1.658.94-2.499 1.261-.841.321-1.995.619-3.463.894l-2.935.551c-2.751.489-4.723 1.085-5.915 1.788-2.018 1.193-3.027 3.042-3.027 5.549 0 2.232.627 3.837 1.88 4.816Zm54.756 18.206c1.407 1.192 3.776 1.788 7.109 1.788 4.708 0 7.857-1.574 9.447-4.723 1.039-2.018 1.559-5.412 1.559-10.181v-3.21c-1.254 2.14-2.599 3.745-4.036 4.815-2.598 1.987-5.977 2.981-10.135 2.981-6.42 0-11.549-2.255-15.386-6.764-3.836-4.51-5.755-10.617-5.755-18.321 0-7.43 1.85-13.674 5.549-18.734 3.699-5.06 8.943-7.59 15.73-7.59 2.507 0 4.693.382 6.558 1.147 3.179 1.314 5.748 3.73 7.704 7.246v-7.2h12.703v47.418c0 6.451-1.085 11.313-3.256 14.584-3.73 5.625-10.884 8.438-21.462 8.438-6.39 0-11.602-1.253-15.638-3.76-4.036-2.507-6.268-6.253-6.696-11.236h14.217c.367 1.529.963 2.629 1.788 3.302Zm-2.201-25.819c1.773 4.219 4.953 6.328 9.539 6.328 3.057 0 5.641-1.154 7.75-3.462 2.11-2.308 3.165-5.985 3.165-11.029 0-4.739-1.002-8.347-3.004-10.823-2.003-2.476-4.686-3.715-8.049-3.715-4.586 0-7.75 2.156-9.493 6.467-.917 2.293-1.375 5.121-1.375 8.484 0 2.904.489 5.487 1.467 7.75Zm70.578-20.866c-5.258 0-8.79 1.712-10.593 5.136-1.009 1.926-1.514 4.892-1.514 8.897v23.893h-13.162V829.56h12.474v8.713c2.018-3.332 3.776-5.61 5.274-6.833 2.446-2.048 5.626-3.073 9.539-3.073.245 0 .451.008.619.023.168.016.543.038 1.124.069v13.391a34.828 34.828 0 0 0-3.761-.229Zm54.206 23.251c-.336 2.965-1.88 5.977-4.632 9.034-4.28 4.861-10.272 7.292-17.977 7.292-6.359 0-11.969-2.049-16.83-6.146-4.861-4.096-7.292-10.761-7.292-19.994 0-8.653 2.194-15.287 6.581-19.903 4.387-4.617 10.082-6.925 17.083-6.925 4.158 0 7.903.779 11.235 2.339 3.333 1.559 6.084 4.02 8.255 7.383 1.957 2.966 3.226 6.405 3.806 10.318.337 2.293.474 5.595.413 9.906h-34.211c.183 5.014 1.758 8.53 4.723 10.548 1.804 1.253 3.975 1.88 6.513 1.88 2.69 0 4.876-.764 6.557-2.293.918-.825 1.728-1.972 2.431-3.439h13.345Zm-12.932-15.318c-.214-3.454-1.261-6.076-3.142-7.864-1.88-1.789-4.211-2.683-6.993-2.683-3.027 0-5.373.947-7.04 2.843-1.666 1.896-2.713 4.464-3.141 7.704h20.316Zm65.166 15.318c-.336 2.965-1.88 5.977-4.632 9.034-4.28 4.861-10.272 7.292-17.977 7.292-6.359 0-11.969-2.049-16.83-6.146-4.861-4.096-7.292-10.761-7.292-19.994 0-8.653 2.194-15.287 6.581-19.903 4.387-4.617 10.082-6.925 17.083-6.925 4.158 0 7.903.779 11.235 2.339 3.333 1.559 6.084 4.02 8.255 7.383 1.957 2.966 3.226 6.405 3.807 10.318.336 2.293.473 5.595.412 9.906h-34.211c.183 5.014 1.758 8.53 4.724 10.548 1.803 1.253 3.974 1.88 6.512 1.88 2.69 0 4.876-.764 6.558-2.293.917-.825 1.727-1.972 2.43-3.439h13.345Zm-12.932-15.318c-.214-3.454-1.261-6.076-3.142-7.864-1.88-1.789-4.211-2.683-6.993-2.683-3.027 0-5.373.947-7.04 2.843-1.666 1.896-2.713 4.464-3.141 7.704h20.316Z"/><path fill="none" stroke="#000" stroke-linecap="butt" stroke-width="10" d="M740 806.094h90v90h-90v-90Z"/><path fill="none" stroke="#e94420" stroke-linecap="butt" stroke-width="24" d="m700 806.094 80 50 90-100"/><g fill="#3e68ff" stroke="#000" stroke-linecap="butt"><path stroke-width="10" d="M645.885 589.224c-69.442 27.144-103.728 105.45-76.584 174.892 27.144 69.441 105.45 103.727 174.892 76.583 69.442-27.144 103.727-105.45 76.583-174.892-27.144-69.442-105.45-103.727-174.891-76.583Zm7.028 17.955c59.522-23.266 126.642 6.135 149.908 65.657 23.266 59.521-6.135 126.641-65.657 149.908-59.521 23.266-126.641-6.136-149.908-65.657-23.266-59.522 6.136-126.642 65.657-149.908Z"/><path stroke-width="5" d="m663.651 749.479-20.136 7.87 16.257 41.589-19.685 7.695-45.212-115.664 41.301-16.144c9.521-3.722 18.277-3.707 26.27.044 7.992 3.75 14.432 11.877 19.319 24.38 5.337 13.654 6.279 24.412 2.826 32.275-3.452 7.862-10.432 13.847-20.94 17.955Zm-.153-27.712c1.49-3.778 1.059-8.675-1.293-14.691-2.351-6.016-5.326-9.799-8.922-11.348-3.597-1.549-7.733-1.41-12.407.417l-18.463 7.217 13.312 34.056 18.463-7.217c4.674-1.827 7.778-4.638 9.31-8.434Zm124.858 13.25c-3.988 10.665-11.494 18.152-22.516 22.461-13.638 5.331-26.446 4.186-38.423-3.435-11.997-7.673-21.646-20.848-28.946-39.523-7.893-20.193-9.538-37.491-4.934-51.895 3.998-12.539 11.959-21.138 23.881-25.799 15.954-6.236 30.115-4.413 42.481 5.467 6.875 5.575 11.874 11.913 14.997 19.015l-19.815 7.745c-3.454-5.042-6.741-8.582-9.861-10.619-5.565-3.614-11.886-4.038-18.963-1.272-7.205 2.817-11.502 8.582-12.891 17.297-1.39 8.714.451 19.558 5.523 32.532 5.071 12.974 11.067 21.832 17.988 26.574 6.922 4.742 13.771 5.789 20.547 3.14 6.948-2.715 11.16-7.558 12.638-14.529.85-3.769.775-8.896-.227-15.379l19.621-7.67c3.213 13.278 2.846 25.241-1.1 35.89Z"/></g></svg>