<svg xmlns="http://www.w3.org/2000/svg" xml:space="preserve" stroke-miterlimit="10" style="fill-rule:nonzero;clip-rule:evenodd;stroke-linecap:round;stroke-linejoin:round" viewBox="0 0 1024 1024"><g stroke="#000" stroke-linecap="butt"><path fill="none" stroke-width="20" d="M110.12 244.535c0-59.604 185.223-107.923 413.707-107.923 228.484 0 413.706 48.319 413.706 107.923 0 59.605-185.222 107.924-413.706 107.924S110.12 304.14 110.12 244.535Z"/><path fill="#adadad" stroke-width="10" d="M218.043 892.076c0-59.604 136.904-107.923 305.784-107.923 168.879 0 305.783 48.319 305.783 107.923 0 59.605-136.904 107.924-305.783 107.924-168.88 0-305.784-48.319-305.784-107.924Z"/><path fill="none" stroke-width="10" d="m110.12 244.535 107.923 647.541m719.49-647.541L829.61 892.076"/></g><path fill="none" stroke="#000" stroke-linecap="butt" stroke-width="3" d="m670.222 143.12 65.712 65.711 179.257 179.258"/><path fill="#fddf19" stroke="#000" stroke-linecap="butt" stroke-width="10" d="m605.966 20 251.567 674.621-505.965 188.676L100 208.676 605.966 20Z"/><path fill="none" stroke="#000" stroke-linecap="butt" stroke-width="10" d="m670.139 764.501-256.96-288.395m5.392-386.226-5.392 386.226"/><path fill="#e94420" d="m539.834 294.124 87.211-32.521 11.757 31.527-87.212 32.521c-15.08 5.624-27.738 7.552-37.973 5.785-18.807-3.389-33.005-17.943-42.596-43.662-9.59-25.718-8.4-46.049 3.571-60.992 6.579-8.037 17.408-14.867 32.489-20.49l87.211-32.522 11.757 31.527-87.212 32.522c-9.754 3.637-16.426 7.502-20.017 11.594-6.555 6.728-7.479 16.404-2.771 29.028 4.682 12.558 11.703 19.233 21.063 20.026 5.394.742 12.968-.706 22.722-4.343Zm-8.025 145.489-23.851-63.96 141.887-52.91 23.851 63.96c3.302 9.248 5.13 17.286 5.483 24.114.609 11.629-2.249 22.294-8.573 31.995-5.131 7.803-11.453 14.176-18.966 19.119-7.513 4.944-14.991 8.803-22.435 11.579-18.867 7.036-36.324 9.032-52.37 5.99-21.654-4.163-36.663-17.458-45.026-39.887Zm114.294-16.347c5.923-7.639 6.255-18.509.997-32.611l-10.667-28.606-92.602 34.531 10.667 28.606c5.459 14.639 16.164 22.273 32.114 22.903 8.75.333 18.354-1.452 28.815-5.352 14.439-5.384 24.664-11.875 30.676-19.471Zm-8.062 145.389-11.757-31.527-51.018 19.025-11.493-30.822 141.887-52.91 24.114 64.665c5.559 14.908 6.333 28.157 2.323 39.749-4.011 11.592-13.685 20.248-29.022 25.967-16.749 6.246-30.242 6.229-40.478-.05-10.236-6.28-18.422-17.645-24.556-34.097Zm34.96 3.484c4.904 2.761 11.045 2.766 18.425.014 7.38-2.752 11.885-6.746 13.514-11.981 1.63-5.235 1.08-11.513-1.649-18.832l-10.78-28.908-41.777 15.578 10.78 28.909c2.729 7.319 6.558 12.393 11.487 15.22Z"/><g fill="none" stroke="#000" stroke-linecap="butt"><path stroke-width="20" d="M653.607 142.029c164.911 14.201 283.926 54.728 283.926 102.506 0 59.605-185.222 107.924-413.706 107.924S110.12 304.14 110.12 244.535"/><path stroke-width="3" d="M880 300 242.133 937.867M880 580l-420 420m90-650L190 710m100-380L150 470m52.348 337.227L384.292 989.17M151.545 497.393l496.534 496.534m-63.619-639.83 288.587 288.588M290.644 334.144l542.414 542.414"/></g></svg>