<svg xmlns="http://www.w3.org/2000/svg" xml:space="preserve" stroke-miterlimit="10" style="fill-rule:nonzero;clip-rule:evenodd;stroke-linecap:round;stroke-linejoin:round" viewBox="0 0 1024 1024"><path fill="#68c40c" d="M247.727 37.47c-78.894 0-142.85 58.653-142.85 131.004 0 17.062 3.659 33.325 10.13 48.274-20.058 22.557-32.107 51.355-32.107 82.73 0 39.185 18.857 74.246 48.589 98.253-29.732 24.007-48.59 59.068-48.59 98.253s18.858 74.246 48.59 98.253c-29.732 24.007-48.59 59.068-48.59 98.253 0 33.597 13.899 64.148 36.572 87.336-22.673 23.188-36.571 53.74-36.571 87.336 0 72.352 63.956 131.004 142.85 131.004 32.603 0 62.561-10.125 86.603-26.985C338.539 1000.94 378.594 1020 423.542 1020c44.195 0 83.682-18.41 109.885-47.318C559.63 1001.59 599.116 1020 643.311 1020c28.352 0 54.701-7.68 76.92-20.742C742.449 1012.32 768.799 1020 797.15 1020 876.044 1020 940 961.348 940 888.996c0-39.185-18.857-74.246-48.59-98.253C921.143 766.736 940 731.675 940 692.49s-18.857-74.246-48.59-98.253C921.143 570.23 940 535.169 940 495.984c0-44.274-24.01-83.341-60.677-107.055 23.935-23.425 38.7-54.816 38.7-89.451 0-23.893-7.079-46.215-19.264-65.502 12.184-19.286 19.264-41.608 19.264-65.502 0-72.351-63.956-131.004-142.85-131.004-28.351 0-54.701 7.68-76.919 20.743-22.219-13.063-48.568-20.743-76.919-20.743-44.196 0-83.682 18.41-109.885 47.319C485.247 55.88 445.76 37.47 401.565 37.47c-28.351 0-54.701 7.68-76.919 20.743-22.218-13.063-48.568-20.743-76.919-20.743Z"/><path fill="#60cf4d" d="M258.506 52.015c-75.669 0-137.011 56.916-137.011 127.126 0 16.556 3.51 32.338 9.716 46.844-19.238 21.889-30.795 49.834-30.795 80.281 0 38.025 18.087 72.048 46.604 95.344-28.517 23.296-46.604 57.319-46.604 95.344 0 38.025 18.087 72.047 46.604 95.344-28.517 23.296-46.604 57.319-46.604 95.344 0 32.602 13.33 62.249 35.077 84.75-21.747 22.502-35.077 52.148-35.077 84.75 0 70.21 61.342 127.126 137.012 127.126 31.27 0 60.004-9.826 83.063-26.187 25.115 28.881 63.534 47.369 106.644 47.379 42.389 0 80.261-17.869 105.394-45.922 25.132 28.053 63.004 45.922 105.393 45.922 27.192 0 52.465-7.457 73.775-20.133 21.31 12.676 46.583 20.133 73.775 20.133 75.669 0 137.011-56.921 137.011-127.13 0-38.025-18.086-72.048-46.603-95.344 28.517-23.297 46.603-57.319 46.603-95.344 0-38.025-18.086-72.048-46.603-95.344 28.517-23.297 46.603-57.319 46.603-95.344 0-42.964-23.029-80.874-58.196-103.885 22.956-22.732 37.118-53.194 37.118-86.803 0-23.186-6.79-44.847-18.477-63.563 11.686-18.715 18.477-40.377 18.477-63.562 0-70.21-61.342-127.126-137.011-127.126-27.193 0-52.466 7.453-73.776 20.129-21.31-12.676-46.583-20.129-73.775-20.129-42.389 0-80.261 17.865-105.393 45.918-25.132-28.053-63.005-45.918-105.393-45.918-27.193 0-52.465 7.453-73.776 20.129-21.31-12.676-46.582-20.129-73.775-20.129Z"/><path fill="#c2d047" d="M265.504 65.203c-73.576 0-133.221 55.342-133.221 123.609 0 16.099 3.413 31.443 9.447 45.548-18.705 21.284-29.943 48.456-29.943 78.06 0 36.973 17.587 70.055 45.315 92.707-27.728 22.652-45.315 55.733-45.315 92.706 0 36.973 17.587 70.055 45.315 92.706-27.728 22.652-45.315 55.734-45.315 92.707 0 31.7 12.962 60.527 34.106 82.406-21.144 21.878-34.106 50.705-34.106 82.405 0 68.267 59.645 123.609 133.221 123.609 30.405 0 58.344-9.554 80.765-25.462 24.421 28.082 61.777 46.063 103.695 46.063 41.216 0 78.041-17.37 102.477-44.647 24.437 27.277 61.262 44.647 102.478 44.647 26.44 0 51.014-7.246 71.734-19.571 20.721 12.325 45.295 19.571 71.735 19.571 73.575 0 133.22-55.341 133.22-123.608 0-36.973-17.586-70.055-45.314-92.707 27.728-22.652 45.315-55.733 45.314-92.706 0-36.973-17.586-70.055-45.314-92.707 27.728-22.651 45.315-55.733 45.314-92.706 0-41.775-22.391-78.636-56.586-101.011 22.321-22.103 36.091-51.722 36.091-84.402 0-22.544-6.602-43.606-17.966-61.804 11.363-18.198 17.966-39.26 17.966-61.804 0-68.267-59.645-123.609-133.221-123.609-26.44 0-51.014 7.246-71.734 19.572-20.721-12.326-45.294-19.572-71.735-19.572-41.216 0-78.04 17.37-102.477 44.647-24.437-27.276-61.262-44.647-102.478-44.647-26.44 0-51.013 7.246-71.734 19.572-20.721-12.326-45.294-19.572-71.734-19.572Z"/><path fill="#eb493a" stroke="#000" stroke-linecap="butt" stroke-width="5" d="M180 120h660v820H180V120Z"/><path fill="#8f1442" stroke="#000" stroke-linecap="butt" stroke-width="5" d="M200 140h620v780H200V140Z"/><path fill="#ed6d48" stroke="#000" stroke-linecap="butt" stroke-width="5" d="M209.665 150.271h600.582v759.824H209.665V150.271Z"/><path fill="#4c2a6e" stroke="#000" stroke-linecap="butt" stroke-width="5" d="M240 300h540v140H240V300Z"/><path fill="#fddf19" d="M466.244 352.676H460v-32.067h9.746l5.83 25.214 5.787-25.214H491v32.067h-6.243v-21.69c0-.624.007-1.497.022-2.621.014-1.124.021-1.991.021-2.6l-6.069 26.911h-6.505l-6.026-26.911c0 .609.007 1.476.022 2.6.014 1.124.022 1.997.022 2.621v21.69Zm49.753-6.592h-11.813l-2.219 6.592h-7.005l11.443-32.067h7.57l11.356 32.067h-7.266l-2.066-6.592Zm-1.871-5.526-4.003-12.618-4.134 12.618h8.137Zm37.896 9.725c-2.393 2.19-5.453 3.285-9.18 3.285-4.612 0-8.238-1.48-10.877-4.438-2.64-2.974-3.96-7.049-3.96-12.227 0-5.598 1.501-9.912 4.503-12.944 2.611-2.639 5.932-3.959 9.964-3.959 5.395 0 9.34 1.769 11.835 5.308 1.378 1.987 2.117 3.981 2.219 5.983h-6.701c-.435-1.538-.993-2.698-1.675-3.481-1.218-1.392-3.024-2.089-5.417-2.089-2.436 0-4.358.983-5.765 2.948-1.407 1.965-2.11 4.746-2.11 8.343 0 3.597.743 6.291 2.23 8.082 1.486 1.791 3.375 2.687 5.667 2.687 2.349 0 4.141-.769 5.373-2.306.682-.827 1.248-2.067 1.697-3.72h6.635c-.58 3.495-2.059 6.338-4.438 8.528Zm17.796-4.09v6.483h-6.592v-6.483h6.592Zm-6.592-9.812v-6.483h6.592v6.483h-6.592Zm-273.964 64.096h-8.502a6.335 6.335 0 0 0-1.194-2.914c-.931-1.166-2.377-1.748-4.338-1.748-2.795 0-4.707 1.262-5.736 3.788-.543 1.342-.815 3.125-.815 5.351 0 2.119.272 3.823.815 5.112.99 2.402 2.853 3.603 5.59 3.603 1.942 0 3.32-.477 4.135-1.431.815-.953 1.31-2.189 1.485-3.708h8.473c-.194 2.296-1.107 4.468-2.737 6.516-2.601 3.303-6.454 4.954-11.559 4.954-5.106 0-8.862-1.377-11.269-4.132s-3.61-6.332-3.61-10.729c0-4.962 1.33-8.821 3.989-11.576 2.659-2.755 6.328-4.133 11.006-4.133 3.979 0 7.236.813 9.769 2.438 2.533 1.624 4.032 4.494 4.498 8.609Zm17.732-.556c-1.009 0-1.883.114-2.62.344-1.301.424-2.281 1.21-2.941 2.358l-7.454-.318 2.97-21.219h23.264v6.411h-17.266l-1.514 8.397c1.281-.759 2.281-1.263 2.999-1.51 1.203-.406 2.669-.609 4.397-.609 3.494 0 6.541 1.068 9.142 3.205 2.601 2.137 3.902 5.245 3.902 9.325 0 3.549-1.252 6.719-3.756 9.51-2.504 2.79-6.251 4.185-11.239 4.185-4.018 0-7.318-.98-9.9-2.94-2.582-1.961-4.018-4.742-4.309-8.345h8.269c.33 1.643.961 2.91 1.893 3.802.931.891 2.29 1.337 4.076 1.337 2.057 0 3.625-.658 4.702-1.973 1.078-1.316 1.616-2.972 1.616-4.967 0-1.96-.504-3.616-1.514-4.967-1.009-1.351-2.582-2.026-4.717-2.026Zm32.844 11.178v7.894h-8.823v-7.894h8.823Zm-8.823-11.947v-7.894h8.823v7.894h-8.823Zm29.001.769c-1.01 0-1.883.114-2.621.344-1.3.424-2.281 1.21-2.941 2.358l-7.453-.318 2.969-21.219h23.265v6.411h-17.267l-1.514 8.397c1.282-.759 2.281-1.263 2.999-1.51 1.204-.406 2.669-.609 4.397-.609 3.494 0 6.542 1.068 9.143 3.205 2.601 2.137 3.901 5.245 3.901 9.325 0 3.549-1.252 6.719-3.756 9.51-2.504 2.79-6.25 4.185-11.239 4.185-4.018 0-7.318-.98-9.899-2.94-2.582-1.961-4.019-4.742-4.31-8.345h8.269c.33 1.643.961 2.91 1.893 3.802.932.891 2.291 1.337 4.076 1.337 2.058 0 3.625-.658 4.703-1.973 1.077-1.316 1.616-2.972 1.616-4.967 0-1.96-.505-3.616-1.514-4.967-1.01-1.351-2.582-2.026-4.717-2.026Zm38.375 19.841c-2.62 0-4.726-.477-6.318-1.431-.951-.565-1.98-1.554-3.086-2.967v3.629h-8.124V380h8.269v13.881c1.049-1.342 2.203-2.367 3.465-3.073 1.495-.883 3.397-1.325 5.707-1.325 4.173 0 7.439 1.369 9.798 4.106 2.358 2.738 3.537 6.27 3.537 10.596 0 4.486-1.164 8.204-3.494 11.153-2.329 2.949-5.58 4.424-9.754 4.424Zm4.543-14.782c0-2.048-.292-3.744-.874-5.086-1.106-2.543-3.144-3.815-6.114-3.815-3.009 0-5.076 1.246-6.202 3.736-.583 1.324-.874 3.037-.874 5.139 0 2.472.602 4.521 1.806 6.145 1.203 1.625 3.037 2.437 5.503 2.437 2.135 0 3.794-.785 4.978-2.357 1.185-1.572 1.777-3.638 1.777-6.199Zm26.35 6.119v7.894h-8.822v-7.894h8.822Zm-8.822-11.947v-7.894h8.822v7.894h-8.822ZM466.321 380v38.993h-8.066v-4c-1.184 1.713-2.533 2.958-4.047 3.735-1.514.778-3.397 1.166-5.649 1.166-3.707 0-6.827-1.364-9.361-4.093-2.533-2.728-3.799-6.229-3.799-10.503 0-4.927 1.247-8.804 3.741-11.629 2.494-2.826 5.828-4.239 10.002-4.239 1.921 0 3.63.385 5.124 1.153a9.724 9.724 0 0 1 3.64 3.192V380h8.415Zm-22.362 24.742c0 2.666.582 4.794 1.747 6.384 1.145 1.607 2.892 2.41 5.241 2.41 2.349 0 4.135-.794 5.357-2.384 1.223-1.589 1.835-3.646 1.835-6.172 0-3.532-.98-6.057-2.941-7.576-1.203-.918-2.601-1.378-4.193-1.378-2.426 0-4.207.835-5.343 2.504-1.135 1.669-1.703 3.739-1.703 6.212Zm37.444-16.504c-.932 1.131-1.378 2.641-1.339 4.53h-7.745a17.394 17.394 0 0 1 1.077-5.43c.679-1.501 1.747-2.888 3.203-4.159 1.087-.901 2.378-1.59 3.872-2.066 1.495-.477 3.329-.716 5.503-.716 4.038 0 7.294.95 9.769 2.848 2.475 1.898 3.712 4.446 3.712 7.642 0 2.261-.737 4.168-2.213 5.722-.931.972-1.902 1.634-2.911 1.987.757 0 1.844.592 3.261 1.775 2.116 1.784 3.174 4.221 3.174 7.311 0 3.25-1.238 6.106-3.713 8.57-2.475 2.463-6.139 3.695-10.991 3.695-5.979 0-10.133-1.775-12.462-5.324-1.223-1.89-1.903-4.363-2.038-7.418h8.152c0 1.537.272 2.808.815 3.815 1.01 1.854 2.844 2.781 5.504 2.781 1.63 0 3.052-.507 4.265-1.523 1.213-1.015 1.82-2.477 1.82-4.384 0-2.525-1.126-4.212-3.378-5.06-1.281-.476-3.3-.715-6.056-.715v-5.404c2.698-.035 4.581-.273 5.649-.715 1.844-.742 2.766-2.243 2.766-4.503 0-1.466-.471-2.658-1.412-3.576-.942-.919-2.267-1.378-3.975-1.378-1.96 0-3.397.565-4.309 1.695Zm37.328 22.861v7.894h-8.823v-7.894h8.823Zm-8.823-11.947v-7.894h8.823v7.894h-8.823Zm35.668 19.841h-8.502v-26.49h-9.929v-5.139c2.621-.106 4.455-.265 5.503-.477 1.67-.335 3.028-1.006 4.077-2.013.718-.689 1.261-1.607 1.63-2.755.214-.689.32-1.201.32-1.536h6.901v38.41Zm31.33-30.596c-.99-1.077-2.407-1.616-4.251-1.616-2.524 0-4.242.857-5.154 2.57-.524.989-.835 2.561-.932 4.715h-8.065c.136-3.267.786-5.907 1.951-7.92 2.213-3.833 6.143-5.749 11.792-5.749 4.464 0 8.017 1.126 10.657 3.378 2.64 2.251 3.959 5.232 3.959 8.94 0 2.843-.931 5.369-2.795 7.576-1.223 1.466-3.232 3.1-6.027 4.901l-3.319 2.146c-2.077 1.342-3.499 2.313-4.266 2.914a8.79 8.79 0 0 0-1.936 2.092h18.431v6.649h-28.913c.078-2.755.728-5.271 1.951-7.549 1.184-2.561 3.979-5.272 8.385-8.133 3.824-2.49 6.299-4.273 7.425-5.351 1.728-1.677 2.592-3.514 2.592-5.51 0-1.624-.495-2.975-1.485-4.053Zm28.01 22.702v7.894h-8.823v-7.894h8.823Zm-8.823-11.947v-7.894h8.823v7.894h-8.823Zm24.517-10.914c-.932 1.131-1.379 2.641-1.34 4.53h-7.745a17.423 17.423 0 0 1 1.078-5.43c.679-1.501 1.747-2.888 3.202-4.159 1.087-.901 2.378-1.59 3.873-2.066 1.495-.477 3.329-.716 5.503-.716 4.037 0 7.294.95 9.769 2.848 2.475 1.898 3.712 4.446 3.712 7.642 0 2.261-.738 4.168-2.213 5.722-.932.972-1.902 1.634-2.912 1.987.757 0 1.845.592 3.262 1.775 2.115 1.784 3.173 4.221 3.173 7.311 0 3.25-1.237 6.106-3.712 8.57-2.475 2.463-6.139 3.695-10.992 3.695-5.978 0-10.132-1.775-12.462-5.324-1.223-1.89-1.902-4.363-2.038-7.418h8.153c0 1.537.272 2.808.815 3.815 1.01 1.854 2.844 2.781 5.503 2.781 1.631 0 3.053-.507 4.266-1.523 1.213-1.015 1.82-2.477 1.82-4.384 0-2.525-1.126-4.212-3.378-5.06-1.281-.476-3.3-.715-6.056-.715v-5.404c2.698-.035 4.581-.273 5.648-.715 1.844-.742 2.767-2.243 2.767-4.503 0-1.466-.471-2.658-1.413-3.576-.941-.919-2.266-1.378-3.974-1.378-1.961 0-3.397.565-4.309 1.695Zm48.013 4.689c-2.213 2.861-4.067 5.81-5.561 8.848-1.184 2.384-2.252 5.298-3.203 8.742-.951 3.443-1.427 6.269-1.427 8.476h-8.618c.252-6.887 2.737-14.048 7.454-21.483 3.047-4.609 5.6-7.823 7.657-9.642h-21.051l.116-6.782h29.816v5.907c-1.243 1.113-2.97 3.091-5.183 5.934Zm22.478 18.172v7.894h-8.822v-7.894h8.822Zm-8.822-11.947v-7.894h8.822v7.894h-8.822Zm33.833-10.755c-.99-1.077-2.407-1.616-4.251-1.616-2.523 0-4.241.857-5.153 2.57-.525.989-.835 2.561-.932 4.715h-8.065c.135-3.267.786-5.907 1.95-7.92 2.213-3.833 6.144-5.749 11.793-5.749 4.464 0 8.016 1.126 10.656 3.378 2.64 2.251 3.96 5.232 3.96 8.94 0 2.843-.932 5.369-2.795 7.576-1.223 1.466-3.232 3.1-6.027 4.901l-3.319 2.146c-2.077 1.342-3.499 2.313-4.266 2.914a8.79 8.79 0 0 0-1.936 2.092h18.43v6.649h-28.912c.077-2.755.728-5.271 1.95-7.549 1.185-2.561 3.98-5.272 8.386-8.133 3.824-2.49 6.299-4.273 7.425-5.351 1.727-1.677 2.591-3.514 2.591-5.51 0-1.624-.495-2.975-1.485-4.053Zm43.471 22.12c-.213 1.713-1.193 3.452-2.94 5.218-2.718 2.808-6.523 4.212-11.414 4.212-4.038 0-7.6-1.183-10.686-3.55-3.086-2.366-4.629-6.216-4.629-11.549 0-4.998 1.392-8.83 4.178-11.497 2.785-2.667 6.401-4 10.846-4 2.64 0 5.018.45 7.133 1.351 2.116.901 3.863 2.322 5.241 4.265 1.243 1.713 2.048 3.7 2.417 5.96.214 1.325.301 3.232.262 5.722H738.27c.116 2.896 1.116 4.927 2.999 6.093 1.145.724 2.523 1.086 4.135 1.086 1.708 0 3.096-.442 4.163-1.325.583-.477 1.097-1.139 1.543-1.986h8.473Zm-8.21-8.848c-.136-1.996-.801-3.51-1.995-4.543-1.194-1.033-2.674-1.55-4.44-1.55-1.922 0-3.412.548-4.47 1.643-1.058 1.094-1.722 2.578-1.994 4.45h12.899Z"/><path fill="#8f1442" d="M248.437 587.228c0-22.091 17.909-40 40-40 22.092 0 40 17.909 40 40 0 22.092-17.908 40-40 40-22.091 0-40-17.908-40-40Z"/><path fill="#eb493a" stroke="#000" stroke-linecap="butt" stroke-width="5" d="M240 580c0-22.091 17.909-40 40-40s40 17.909 40 40-17.909 40-40 40-40-17.909-40-40Z"/><path fill="#4c2a6e" stroke="#000" stroke-linecap="butt" stroke-width="5" d="M242.28 200H780v89.824H242.28V200Z"/><path fill="#fddf19" d="M259.697 219.295h10.342v49.815h-10.342v-49.815Zm41.198 31.903h-10.578v17.912h-10.342v-49.815h21.697c5.002 0 8.99 1.284 11.964 3.852 2.974 2.569 4.461 6.546 4.461 11.93 0 5.881-1.487 10.038-4.461 12.471-2.974 2.434-7.221 3.65-12.741 3.65Zm4.866-10.375c1.352-1.194 2.028-3.087 2.028-5.678 0-2.591-.681-4.439-2.045-5.543-1.363-1.104-3.272-1.656-5.728-1.656h-9.699v14.668h9.699c2.456 0 4.371-.597 5.745-1.791Zm32.952 18.216v10.071h-10.241v-10.071h10.241Zm-10.241-15.242v-10.071h10.241v10.071h-10.241Zm60.631 25.313h-9.869v-33.796H367.71v-6.556c3.041-.136 5.17-.338 6.387-.609 1.938-.428 3.515-1.284 4.732-2.568.833-.879 1.464-2.051 1.892-3.515.248-.879.372-1.532.372-1.96h8.01v49.004Zm30.281 1.42c-3.673 0-6.973-1.088-9.902-3.262-2.929-2.174-4.608-5.345-5.036-9.513h9.598c.225 1.442.834 2.613 1.825 3.514.991.902 2.309 1.352 3.954 1.352 3.177 0 5.408-1.757 6.692-5.272.698-1.938 1.138-4.765 1.318-8.483-.879 1.104-1.814 1.949-2.805 2.535-1.803 1.081-4.022 1.622-6.658 1.622-3.898 0-7.356-1.346-10.375-4.038-3.02-2.693-4.529-6.574-4.529-11.643 0-5.25 1.515-9.503 4.545-12.758 3.031-3.256 6.968-4.884 11.812-4.884 7.458 0 12.572 3.301 15.344 9.902 1.577 3.741 2.365 8.664 2.365 14.769 0 5.926-.754 10.871-2.264 14.837-2.884 7.548-8.179 11.322-15.884 11.322Zm-3.38-41.401c-1.847 1.442-2.771 3.887-2.771 7.334 0 2.907.591 5.086 1.774 6.54 1.183 1.453 3.002 2.179 5.458 2.179 1.33 0 2.58-.383 3.752-1.149 2.185-1.396 3.278-3.819 3.278-7.266 0-2.771-.648-4.968-1.943-6.59-1.296-1.622-3.07-2.433-5.323-2.433-1.645 0-3.053.462-4.225 1.385Zm47.957.947c-1.149-1.375-2.794-2.062-4.934-2.062-2.929 0-4.923 1.093-5.982 3.278-.609 1.262-.969 3.267-1.082 6.016h-9.361c.157-4.168.912-7.537 2.264-10.105 2.569-4.889 7.131-7.334 13.687-7.334 5.183 0 9.306 1.437 12.37 4.309 3.064 2.873 4.596 6.675 4.596 11.406 0 3.628-1.081 6.85-3.244 9.666-1.42 1.87-3.752 3.954-6.996 6.252l-3.853 2.738c-2.411 1.712-4.061 2.951-4.951 3.717a10.882 10.882 0 0 0-2.247 2.67h21.393v8.483h-33.56c.09-3.515.845-6.725 2.264-9.632 1.375-3.267 4.619-6.725 9.734-10.375 4.438-3.177 7.311-5.453 8.618-6.827 2.005-2.14 3.007-4.484 3.007-7.03 0-2.072-.574-3.796-1.723-5.17Zm18.757 28.963h10.24v10.071h-10.24v-10.071Zm41.096 10.071h-9.869v-33.796h-11.524v-6.556c3.041-.136 5.171-.338 6.387-.609 1.938-.428 3.515-1.284 4.732-2.568.833-.879 1.464-2.051 1.892-3.515.248-.879.372-1.532.372-1.96h8.01v49.004Zm33.458-31.802c4.348 0 7.914 1.476 10.696 4.427 2.783 2.952 4.174 6.726 4.174 11.322 0 4.574-1.363 8.607-4.089 12.099-2.726 3.492-6.962 5.238-12.708 5.238-6.173 0-10.724-2.579-13.653-7.739-2.276-4.033-3.414-9.238-3.414-15.614 0-3.74.158-6.781.474-9.125.563-4.168 1.656-7.638 3.278-10.409 1.397-2.366 3.227-4.269 5.492-5.711 2.264-1.442 4.973-2.163 8.128-2.163 4.551 0 8.178 1.166 10.882 3.498 2.704 2.331 4.225 5.435 4.562 9.31h-9.598c0-.788-.304-1.656-.912-2.602-1.037-1.532-2.602-2.298-4.698-2.298-3.132 0-5.362 1.757-6.691 5.272-.721 1.938-1.217 4.799-1.487 8.584 1.194-1.419 2.579-2.456 4.156-3.109 1.578-.653 3.38-.98 5.408-.98Zm-6.489 9.193c-1.893 1.464-2.839 3.83-2.839 7.097 0 2.636.71 4.787 2.129 6.455 1.42 1.667 3.222 2.501 5.408 2.501 2.14 0 3.824-.806 5.052-2.417 1.228-1.611 1.842-3.7 1.842-6.269 0-2.861-.698-5.052-2.095-6.573-1.397-1.521-3.11-2.281-5.137-2.281-1.645 0-3.098.495-4.36 1.487Zm29.876 19.534c-2.817-2.884-4.225-6.388-4.225-10.511 0-2.749.625-5.238 1.876-7.469 1.25-2.23 3.081-3.909 5.492-5.035-2.366-1.578-3.904-3.284-4.613-5.121-.71-1.836-1.065-3.554-1.065-5.153 0-3.56 1.341-6.596 4.022-9.109 2.681-2.512 6.466-3.768 11.355-3.768s8.675 1.256 11.356 3.768c2.681 2.513 4.021 5.549 4.021 9.109 0 1.599-.354 3.317-1.064 5.153-.71 1.837-2.248 3.431-4.613 4.783 2.411 1.351 4.224 3.143 5.441 5.373 1.217 2.231 1.825 4.72 1.825 7.469 0 4.123-1.527 7.632-4.579 10.528-3.053 2.895-7.317 4.342-12.792 4.342s-9.621-1.453-12.437-4.359Zm5.779-11.153c0 2.411.625 4.281 1.876 5.61 1.25 1.329 2.979 1.994 5.187 1.994s3.938-.665 5.188-1.994c1.25-1.329 1.876-3.199 1.876-5.61 0-2.501-.637-4.399-1.91-5.695-1.273-1.295-2.991-1.943-5.154-1.943s-3.881.648-5.154 1.943c-1.273 1.296-1.909 3.194-1.909 5.695Zm2.535-16.695c1.081 1.126 2.591 1.69 4.528 1.69 1.96 0 3.476-.564 4.546-1.69 1.07-1.127 1.605-2.58 1.605-4.36 0-1.938-.535-3.453-1.605-4.546-1.07-1.092-2.586-1.639-4.546-1.639-1.937 0-3.453.547-4.545 1.639-1.093 1.093-1.639 2.608-1.639 4.546 0 1.78.552 3.233 1.656 4.36Zm28.456 20.852h10.24v10.071h-10.24v-10.071Zm41.096 10.071h-9.869v-33.796h-11.524v-6.556c3.042-.136 5.171-.338 6.387-.609 1.938-.428 3.515-1.284 4.732-2.568.834-.879 1.464-2.051 1.893-3.515.247-.879.371-1.532.371-1.96h8.01v49.004Zm16.628-10.071h10.24v10.071h-10.24v-10.071Zm38.967-28.963c-1.15-1.375-2.794-2.062-4.935-2.062-2.929 0-4.923 1.093-5.982 3.278-.608 1.262-.968 3.267-1.081 6.016h-9.362c.158-4.168.913-7.537 2.265-10.105 2.568-4.889 7.131-7.334 13.687-7.334 5.182 0 9.305 1.437 12.37 4.309 3.064 2.873 4.596 6.675 4.596 11.406 0 3.628-1.082 6.85-3.245 9.666-1.419 1.87-3.751 3.954-6.995 6.252l-3.853 2.738c-2.411 1.712-4.061 2.951-4.951 3.717a10.908 10.908 0 0 0-2.248 2.67h21.393v8.483H692.22c.09-3.515.845-6.725 2.264-9.632 1.374-3.267 4.619-6.725 9.733-10.375 4.439-3.177 7.311-5.453 8.618-6.827 2.005-2.14 3.008-4.484 3.008-7.03 0-2.072-.574-3.796-1.723-5.17Zm33.491 40.251c-6.241 0-10.617-2.186-13.129-6.557-2.513-4.371-3.769-10.6-3.769-18.689 0-8.088 1.256-14.329 3.769-18.723 2.512-4.393 6.888-6.59 13.129-6.59s10.624 2.197 13.147 6.59c2.501 4.394 3.751 10.635 3.751 18.723 0 8.089-1.256 14.318-3.768 18.689-2.512 4.371-6.889 6.557-13.13 6.557Zm5.644-12.336c.879-2.974 1.318-7.277 1.318-12.91 0-5.903-.445-10.274-1.335-13.113-.889-2.839-2.765-4.258-5.627-4.258-2.861 0-4.754 1.419-5.677 4.258-.924 2.839-1.386 7.21-1.386 13.113 0 5.633.462 9.942 1.386 12.927.923 2.985 2.816 4.478 5.677 4.478 2.862 0 4.743-1.498 5.644-4.495Z"/><g stroke="#000" stroke-linecap="butt" stroke-width="5"><path fill="#8b8b8b" d="M800 680h30.272v60H800v-60Z"/><path fill="#adadad" d="M800 680h20v60h-20v-60Z"/></g><g stroke="#000" stroke-linecap="butt" stroke-width="5"><path fill="#8b8b8b" d="M800 340h30.442v60H800v-60Z"/><path fill="#adadad" d="M800 340h20v60h-20v-60Z"/></g><path fill="#ed6d48" d="M248.437 567.228c0-11.045 8.955-20 20-20 11.046 0 20 8.955 20 20 0 11.046-8.954 20-20 20-11.045 0-20-8.954-20-20Z"/></svg>