<svg xmlns="http://www.w3.org/2000/svg" xml:space="preserve" stroke-miterlimit="10" style="fill-rule:nonzero;clip-rule:evenodd;stroke-linecap:round;stroke-linejoin:round" viewBox="0 0 1024 1024"><path fill="#eb493a" stroke="#000" stroke-linecap="butt" stroke-width="5" d="M20 100h660v820H20V100Z"/><path fill="#8f1442" stroke="#000" stroke-linecap="butt" stroke-width="5" d="M40 120h620v780H40V120Z"/><path fill="#ed6d48" stroke="#000" stroke-linecap="butt" stroke-width="5" d="M49.665 130.271h600.582v759.824H49.665V130.271Z"/><path fill="#8f1442" d="M88.438 567.228c0-22.091 17.908-40 39.999-40 22.092 0 40 17.909 40 40 0 22.092-17.908 40-40 40-22.091 0-40-17.908-40-40Z"/><path fill="#eb493a" stroke="#000" stroke-linecap="butt" stroke-width="5" d="M80 560c0-22.091 17.909-40 40-40s40 17.909 40 40-17.909 40-40 40-40-17.909-40-40Z"/><g stroke="#000" stroke-linecap="butt" stroke-width="5"><path fill="#8b8b8b" d="M640 660h30.272v60H640v-60Z"/><path fill="#adadad" d="M640 660h20v60h-20v-60Z"/></g><g stroke="#000" stroke-linecap="butt" stroke-width="5"><path fill="#8b8b8b" d="M640 320h30.442v60H640v-60Z"/><path fill="#adadad" d="M640 320h20v60h-20v-60Z"/></g><path fill="#ed6d48" d="M88.438 547.228c0-11.045 8.954-20 19.999-20 11.046 0 20 8.955 20 20 0 11.046-8.954 20-20 20-11.045 0-20-8.954-20-20Z"/><g stroke="#303030" stroke-linecap="butt" stroke-width="5"><path d="M640 960s92.903-15 139.355 0c46.451 15 0 60 0 60H640v-60Zm-40 0s-92.903-15-139.355 0c-46.451 15 0 60 0 60H600v-60Z"/><path fill="#adadad" d="M287.101 157.536c119.635-125 551.364-135 665.798 0 114.431 135-208.062 540-208.062 540H495.163s-327.698-415-208.062-540Z"/><path fill="#8b8b8b" d="M460 660s90 20 160 20 160-20 160-20l-20 21.47V960s-30.066 20-60 20-59.737-20-59.737-20L640 880l-20-100-20 100v80s-29.023 20-60 20-60-20-60-20V684.613L460 660Z"/><path fill="#ef9f46" d="M911.287 717.536c39.011 0 37.614 25.125 63.621 40.125 52.012 30 4.292 122.375 4.292 122.375s-10.404 5-20.807 0c-10.403-5-20.806-20-20.806-20s-10.403 15-20.806 20-20.806 0-20.806 0l-20.806-20s-10.404 15-20.807 20c-10.403 5-20.806 0-20.806 0l-20.806-20s-10.403 15-20.806 20-20.806 0-20.806 0-5.733-9.989-8.486-15.615c-9.847 4.612-23.557 15.95-30.819 1.99-10.403-20-10.403-60 0-80 .329-.632 49.944-68.875 75.423-68.875h104.031ZM750.364 825.692c.439 2.137 1.037 4.143 1.56 6.219 3.613 14.327 8.909 27.16 13.102 35.969l-14.662-42.188Z"/><path fill="#8b8b8b" d="M978.388 199.536c-52.016-139.5-166.45-72.155-208.062 0-41.613 72.155 41.612 149.121 41.612 288.621 0 139.5-41.612 249.379-41.612 249.379h104.031c52.015 0 104.031 20 104.031 20S1020 627.657 1020 488.157c0-139.5-20.029-230.736-41.612-288.621Z"/><path fill="#ef9f46" d="M328.713 712.814c-39.011 0-37.614 25.125-63.621 40.125-52.016 30-4.292 122.375-4.292 122.375s10.404 5 20.807 0c10.403-5 20.806-20 20.806-20s10.403 15 20.806 20 20.806 0 20.806 0l20.806-20s10.404 15 20.807 20c10.403 5 20.806 0 20.806 0l20.806-20s10.403 15 20.806 20 20.806 0 20.806 0 5.733-9.99 8.486-15.615c9.847 4.612 23.557 15.95 30.819 1.99 10.403-20 10.403-60 0-80-.329-.633-49.944-68.875-75.423-68.875H328.713ZM489.636 820.97c-.439 2.136-1.037 4.142-1.56 6.219-3.613 14.326-8.909 27.159-13.102 35.969l14.662-42.188Z"/><path fill="#8b8b8b" d="M261.612 194.814c52.016-139.5 166.45-72.155 208.062 0 41.613 72.155-41.612 149.12-41.612 288.62s41.612 249.38 41.612 249.38H365.643c-52.015 0-104.031 20-104.031 20S220 622.934 220 483.434s20.029-230.735 41.612-288.62ZM600 500h40v180h-40V500Z"/><path fill="#ddd" d="M540 240h160l-80 300-80-300Z"/><path fill="#ddd" d="M600 340h40v160l-20 40-20-40V340Z"/><path fill="#303030" d="m500 300-40-20 20-40h60l80 300-160-200 40-40Zm240 0 40-20-20-40h-60l-80 300 160-200-40-40Z"/><path d="M520 280v80l80-20h40l80 20v-80l-80 20h-40l-80-20Z"/><path d="M600 300h40v40h-40v-40Z"/><path fill="#ef9f46" d="M536.583 16.25c-52.136 10-41.709 40-41.709 40v100s-20.854 40-20.854 80c0 31.623 62.563 40 62.563 40s10.427 15 41.708 20c31.282 5 52.136 5 83.418 0 31.281-5 41.708-20 41.708-20s62.563-8.377 62.563-40c0-20-20.854-80-20.854-80v-100s10.427-30-41.709-40-114.698-10-166.834 0Z"/><path fill="#ed6d48" d="M557.437 176.25c20.854-5 31.282 20 62.563 20 31.281 0 41.709-25 62.563-20s20.854 40 20.854 40-1.083-15-21.937-20c-20.855-5-61.48 0-61.48 0s-40.531-5-61.386 0c-20.854 5-22.031 20-22.031 20s0-35 20.854-40Z"/><path fill="#ef9f46" d="M494.874 83.764s-8.852-3.926-15.897-6.945c-7.635-3.273-16.073 8.425-16.073 13.425s12.331 13.37 12.331 13.37S460 108.712 460 118.712s6.615 20.245 14.178 20.474c7.563.229 20.696-15.422 20.696-15.422v-40Zm250.252 0s8.852-3.926 15.897-6.945c7.635-3.273 16.073 8.425 16.073 13.425s-12.331 13.37-12.331 13.37S780 108.712 780 118.712s-6.615 20.245-14.178 20.474c-7.563.229-20.696-15.422-20.696-15.422v-40Zm-145.98 52.486s10.427-40 20.854-40 20.854 40 20.854 40 10.427 15 0 20-31.281 5-41.708 0 0-20 0-20Z"/><path d="M599.146 96.25h41.708v20h-41.708v-20Zm-98.971-16.973 35.279 18.91-10.174 17.458-35.279-18.91 10.174-17.458Zm238.522.605-35.28 18.91 10.174 17.458 35.28-18.91-10.174-17.458Z"/><path d="M715.003 91.806h-83.417v40s62.563 10 83.417 0 0-40 0-40Zm-190.006 0h83.417v40s-62.563 10-83.417 0 0-40 0-40Z"/><path fill="none" d="M460 660s80 20 160 20 160-20 160-20l-20 20s-70 20-140 20-140-20-140-20l-20-20Z"/><path fill="#f1d244" d="M580 660h80v60h-80v-60Z"/></g></svg>