<svg xmlns="http://www.w3.org/2000/svg" xml:space="preserve" stroke-miterlimit="10" style="fill-rule:nonzero;clip-rule:evenodd;stroke-linecap:round;stroke-linejoin:round" viewBox="0 0 1024 1024"><g stroke="#000" stroke-linecap="butt"><path fill="#e94420" stroke-width="10" d="M735.682 122.1c-71.143-.053-150.087 35.884-220.455 99.088-70.095-62.603-148.61-98.172-219.389-98.12-32.306.024-62.993 7.447-90.532 23.085C79.413 217.642 67.085 433.61 177.765 628.519c99.133 174.574 263.287 272.964 386.926 240.246 103.216-21.784 214.517-109.937 289.064-241.215 110.68-194.909 98.352-410.876-27.541-482.365-27.539-15.638-58.226-23.061-90.532-23.085Z"/><path fill="#ddd" stroke-width="10" d="M181.346 809.997 70.449 846.666l36.965-110.006L15 663.322l110.897-36.668 55.449 183.343Zm665.383 18.334L957.627 865l-36.966-110.006 92.419-73.337-110.902-36.669-55.449 183.343Z"/><path fill="#adadad" stroke-width="10" d="M107.414 699.991h73.932v110.006l-73.932-110.006Zm813.247 18.334h-73.932v110.006l73.932-110.006Z"/><path fill="#ddd" stroke-width="10" d="M107.414 498.313v201.678c46.396 11.357 93.848 19.22 141.49 22.912 76.211 5.907 152.53 11.147 228.946 13.169 147.672 3.908 295.379-8.534 442.811-17.747V506.914c-70.082 6.698-139.956 16.064-210.244 20.095-71.12 4.078-142.441 5.128-213.674 4.214-68.298-.877-136.627-3.832-204.685-9.585-61.821-5.226-123.096-15.55-184.644-23.325Z"/><path fill="#fddf19" stroke-width="8" d="M130 545h18.471v97.155h43.777v21.296H130V545Zm116.163 131.725c-12.634 0-22.289-4.607-28.965-13.822-8.956-11.304-13.433-27.59-13.433-48.858 0-21.698 4.477-37.984 13.433-48.859 6.676-9.215 16.331-13.822 28.965-13.822s22.289 4.607 28.965 13.822c8.916 10.875 13.373 27.161 13.373 48.859 0 21.268-4.457 37.554-13.373 48.858-6.676 9.215-16.331 13.822-28.965 13.822Zm17.451-31.822c4.278-7.233 6.417-17.519 6.417-30.858 0-13.287-2.149-23.559-6.447-30.819-4.298-7.259-10.105-10.888-17.421-10.888-7.316 0-13.153 3.616-17.511 10.848-4.358 7.233-6.537 17.519-6.537 30.859 0 13.339 2.179 23.625 6.537 30.858 4.358 7.232 10.195 10.848 17.511 10.848 7.316 0 13.133-3.616 17.451-10.848Zm105.953 26.325c-6.597 8.09-15.032 12.135-25.307 12.135-12.714 0-22.708-5.465-29.985-16.394-7.276-10.982-10.914-26.036-10.914-45.162 0-20.679 4.138-36.617 12.414-47.814 7.196-9.751 16.351-14.626 27.465-14.626 14.873 0 25.747 6.536 32.624 19.608 3.798 7.34 5.837 14.706 6.117 22.099H363.51c-1.199-5.679-2.738-9.965-4.618-12.858-3.358-5.143-8.335-7.714-14.932-7.714-6.716 0-12.014 3.629-15.892 10.889-3.878 7.259-5.817 17.531-5.817 30.818 0 13.286 2.049 23.237 6.147 29.853 4.098 6.617 9.305 9.925 15.622 9.925 6.477 0 11.414-2.839 14.813-8.518 1.879-3.054 3.438-7.634 4.677-13.742h18.291c-1.599 12.911-5.677 23.412-12.234 31.501Zm75.988-6.598h-32.563l-6.117 24.349h-19.31l31.544-118.451h20.869l31.304 118.451h-20.03l-5.697-24.349Zm-5.157-20.412-11.035-46.609-11.394 46.609h22.429Zm46.23-72.669h18.471v97.156h43.777V690h-62.248V571.549Zm130.244 117.43v-52.877H582.33v52.877h-18.291V570.528h18.291v45.162h34.542v-45.162h18.351v118.451h-18.351Zm75.609.273c-12.634 0-22.289-4.607-28.965-13.822-8.956-11.304-13.433-27.59-13.433-48.858 0-21.698 4.477-37.984 13.433-48.859 6.676-9.215 16.331-13.822 28.965-13.822 12.633 0 22.289 4.607 28.965 13.822 8.916 10.875 13.373 27.161 13.373 48.859 0 21.268-4.457 37.554-13.373 48.858-6.676 9.215-16.332 13.822-28.965 13.822Zm17.451-31.822c4.278-7.233 6.417-17.519 6.417-30.858 0-13.287-2.149-23.559-6.447-30.819-4.298-7.259-10.105-10.888-17.421-10.888-7.316 0-13.153 3.616-17.511 10.848-4.358 7.233-6.537 17.519-6.537 30.859 0 13.339 2.179 23.625 6.537 30.858 4.358 7.232 10.195 10.848 17.511 10.848 7.316 0 13.133-3.616 17.451-10.848Zm77.35 4.613c4.358 0 7.896-.643 10.614-1.929 5.158-2.464 7.736-7.045 7.736-13.741 0-3.911-1.279-6.938-3.838-9.081-2.558-2.089-6.576-3.938-12.053-5.545l-9.356-2.812c-9.195-2.786-15.552-5.813-19.07-9.081-5.957-5.465-8.935-14.01-8.935-25.635 0-10.608 2.878-19.42 8.635-26.438 5.757-7.019 14.213-10.528 25.367-10.528 9.316 0 17.262 3.309 23.838 9.925 6.577 6.616 10.025 16.219 10.345 28.809h-17.751c-.32-7.125-2.639-12.188-6.957-15.188-2.878-1.982-6.456-2.973-10.734-2.973-4.758 0-8.556 1.285-11.394 3.857-2.839 2.571-4.258 6.161-4.258 10.768 0 4.232 1.399 7.393 4.198 9.483 1.799 1.392 5.637 3.026 11.514 4.902l15.232 4.901c6.677 2.143 11.714 5.01 15.112 8.599 5.278 5.572 7.916 13.634 7.916 24.188 0 10.822-3.088 19.809-9.265 26.961-6.177 7.152-14.902 10.728-26.177 10.728-11.514 0-20.569-3.522-27.166-10.567-6.596-7.045-9.895-16.728-9.895-29.05h17.631c.56 5.411 1.66 9.455 3.299 12.134 2.998 4.875 8.136 7.313 15.412 7.313ZM900 557.253v20.974h-26.446v97.477h-18.591v-97.477h-26.566v-20.974H900Z"/></g></svg>