<svg xmlns="http://www.w3.org/2000/svg" xmlns:xlink="http://www.w3.org/1999/xlink" xml:space="preserve" stroke-miterlimit="10" style="fill-rule:nonzero;clip-rule:evenodd;stroke-linecap:round;stroke-linejoin:round" viewBox="0 0 1024 1024"><defs><radialGradient id="h" cx="338.42" cy="458.605" r="87.755" gradientTransform="translate(-36.947 -32.007) scale(1.07475)" gradientUnits="userSpaceOnUse"><stop offset="0" stop-color="#5309cd"/><stop offset="1"/></radialGradient><radialGradient id="i" cx="338.42" cy="458.605" r="87.755" gradientTransform="matrix(-1.07475 0 0 1.07475 768.374 -32.007)" gradientUnits="userSpaceOnUse"><stop offset="0" stop-color="#5309cd"/><stop offset="1"/></radialGradient><radialGradient id="m" cx="338.42" cy="458.605" r="87.755" gradientTransform="translate(-36.947 175.277) scale(1.07475)" gradientUnits="userSpaceOnUse"><stop offset="0" stop-color="#5309cd"/><stop offset="1"/></radialGradient><radialGradient id="n" cx="338.42" cy="458.605" r="87.755" gradientTransform="matrix(-1.07475 0 0 1.07475 768.374 175.277)" gradientUnits="userSpaceOnUse"><stop offset="0" stop-color="#5309cd"/><stop offset="1"/></radialGradient><radialGradient id="r" cx="338.42" cy="458.605" r="87.755" gradientTransform="translate(249.978 175.277) scale(1.07475)" gradientUnits="userSpaceOnUse"><stop offset="0" stop-color="#5309cd"/><stop offset="1"/></radialGradient><radialGradient id="s" cx="338.42" cy="458.605" r="87.755" gradientTransform="matrix(-1.07475 0 0 1.07475 1055.3 175.277)" gradientUnits="userSpaceOnUse"><stop offset="0" stop-color="#5309cd"/><stop offset="1"/></radialGradient><radialGradient id="w" cx="338.42" cy="458.605" r="87.755" gradientTransform="translate(249.978 -32.007) scale(1.07475)" gradientUnits="userSpaceOnUse"><stop offset="0" stop-color="#5309cd"/><stop offset="1"/></radialGradient><radialGradient id="x" cx="338.42" cy="458.605" r="87.755" gradientTransform="matrix(-1.07475 0 0 1.07475 1055.3 -32.007)" gradientUnits="userSpaceOnUse"><stop offset="0" stop-color="#5309cd"/><stop offset="1"/></radialGradient><radialGradient id="z" cx="312.128" cy="700.863" r="3.06" gradientTransform="translate(-40.588 -35.643) scale(1.07475)" gradientUnits="userSpaceOnUse"><stop offset="0" stop-color="#ff471f"/><stop offset="1" stop-color="#c51111"/></radialGradient><radialGradient id="A" cx="312.128" cy="700.863" r="3.06" gradientTransform="translate(-40.56 -42.13) scale(1.07475)" gradientUnits="userSpaceOnUse"><stop offset="0" stop-color="#ff471f"/><stop offset="1" stop-color="#c51111"/></radialGradient><radialGradient id="B" cx="312.128" cy="700.863" r="3.06" gradientTransform="translate(-33.984 -42.13) scale(1.07475)" gradientUnits="userSpaceOnUse"><stop offset="0" stop-color="#ff471f"/><stop offset="1" stop-color="#c51111"/></radialGradient><radialGradient id="C" cx="312.128" cy="700.863" r="3.06" gradientTransform="translate(-33.984 -35.643) scale(1.07475)" gradientUnits="userSpaceOnUse"><stop offset="0" stop-color="#ff471f"/><stop offset="1" stop-color="#c51111"/></radialGradient><radialGradient id="D" cx="312.128" cy="700.863" r="3.06" gradientTransform="translate(-26.94 -35.643) scale(1.07475)" gradientUnits="userSpaceOnUse"><stop offset="0" stop-color="#ff471f"/><stop offset="1" stop-color="#c51111"/></radialGradient><radialGradient id="E" cx="312.128" cy="700.863" r="3.06" gradientTransform="translate(-26.913 -42.13) scale(1.07475)" gradientUnits="userSpaceOnUse"><stop offset="0" stop-color="#ff471f"/><stop offset="1" stop-color="#c51111"/></radialGradient><radialGradient id="F" cx="312.128" cy="700.863" r="3.06" gradientTransform="translate(-20.336 -42.13) scale(1.07475)" gradientUnits="userSpaceOnUse"><stop offset="0" stop-color="#ff471f"/><stop offset="1" stop-color="#c51111"/></radialGradient><radialGradient id="G" cx="312.128" cy="700.863" r="3.06" gradientTransform="translate(-20.336 -35.643) scale(1.07475)" gradientUnits="userSpaceOnUse"><stop offset="0" stop-color="#ff471f"/><stop offset="1" stop-color="#c51111"/></radialGradient><radialGradient id="H" cx="312.128" cy="700.863" r="3.06" gradientTransform="translate(-13.31 -35.643) scale(1.07475)" gradientUnits="userSpaceOnUse"><stop offset="0" stop-color="#ff471f"/><stop offset="1" stop-color="#c51111"/></radialGradient><radialGradient id="I" cx="312.128" cy="700.863" r="3.06" gradientTransform="translate(-13.283 -42.13) scale(1.07475)" gradientUnits="userSpaceOnUse"><stop offset="0" stop-color="#ff471f"/><stop offset="1" stop-color="#c51111"/></radialGradient><radialGradient id="J" cx="312.128" cy="700.863" r="3.06" gradientTransform="translate(-6.707 -42.13) scale(1.07475)" gradientUnits="userSpaceOnUse"><stop offset="0" stop-color="#ff471f"/><stop offset="1" stop-color="#c51111"/></radialGradient><radialGradient id="K" cx="312.128" cy="700.863" r="3.06" gradientTransform="translate(-6.707 -35.643) scale(1.07475)" gradientUnits="userSpaceOnUse"><stop offset="0" stop-color="#ff471f"/><stop offset="1" stop-color="#c51111"/></radialGradient><linearGradient id="a" x1="511.364" x2="512.533" y1="402.292" y2="333.528" gradientTransform="translate(-38.274 -37.165) scale(1.07475)" gradientUnits="userSpaceOnUse"><stop offset="0" stop-color="#eca762"/><stop offset="1" stop-color="#8d5e16"/></linearGradient><linearGradient id="b" x1="435.725" x2="594.799" y1="883.226" y2="883.226" gradientTransform="translate(-38.274 -37.165) scale(1.07475)" gradientUnits="userSpaceOnUse"><stop offset="0" stop-color="#ed6d48"/><stop offset="1" stop-color="#996b3b"/></linearGradient><linearGradient id="c" x1="510.053" x2="594.799" y1="883.226" y2="883.226" gradientTransform="translate(-38.274 -37.165) scale(1.07475)" gradientUnits="userSpaceOnUse"><stop offset="0" stop-color="#ed6d48"/><stop offset="1" stop-color="#996b3b"/></linearGradient><linearGradient id="d" x1="420.681" x2="609.843" y1="961.961" y2="961.961" gradientTransform="translate(-38.274 -37.165) scale(1.07475)" gradientUnits="userSpaceOnUse"><stop offset="0" stop-color="#ed6d48"/><stop offset="1" stop-color="#996b3b"/></linearGradient><linearGradient id="e" x1="520.154" x2="527.965" y1="897.664" y2="897.664" gradientTransform="translate(-38.274 -37.165) scale(1.07475)" gradientUnits="userSpaceOnUse"><stop offset="0" stop-color="#eca762"/><stop offset="1"/></linearGradient><linearGradient id="j" x1="285.458" x2="468.518" y1="564.858" y2="564.858" gradientTransform="translate(-38.274 -37.165) scale(1.07475)" gradientUnits="userSpaceOnUse"><stop offset="0" stop-color="#ed6d48"/><stop offset="1" stop-color="#996b3b"/></linearGradient><linearGradient id="o" x1="285.458" x2="468.518" y1="564.858" y2="564.858" gradientTransform="translate(-38.274 170.119) scale(1.07475)" gradientUnits="userSpaceOnUse"><stop offset="0" stop-color="#ed6d48"/><stop offset="1" stop-color="#996b3b"/></linearGradient><linearGradient id="t" x1="285.458" x2="468.518" y1="564.858" y2="564.858" gradientTransform="translate(248.651 170.119) scale(1.07475)" gradientUnits="userSpaceOnUse"><stop offset="0" stop-color="#ed6d48"/><stop offset="1" stop-color="#996b3b"/></linearGradient><linearGradient id="y" x1="285.458" x2="468.518" y1="564.858" y2="564.858" gradientTransform="translate(248.651 -37.165) scale(1.07475)" gradientUnits="userSpaceOnUse"><stop offset="0" stop-color="#ed6d48"/><stop offset="1" stop-color="#996b3b"/></linearGradient><linearGradient id="L" x1="327.925" x2="337.502" y1="729.914" y2="730.011" gradientTransform="translate(-39.058 -37.173) scale(1.07475)" gradientUnits="userSpaceOnUse"><stop offset="0" stop-color="#ef9f46"/><stop offset="1" stop-color="#a6741a"/></linearGradient><linearGradient id="M" x1="328.421" x2="341.949" y1="712.794" y2="713.073" gradientTransform="translate(-40.142 -37.173) scale(1.07475)" gradientUnits="userSpaceOnUse"><stop offset="0" stop-color="#ef9f46"/><stop offset="1" stop-color="#a6741a"/></linearGradient><linearGradient id="N" x1="438.281" x2="710.182" y1="306.375" y2="171.08" gradientTransform="translate(-38.274 -37.165) scale(1.07475)" gradientUnits="userSpaceOnUse"><stop offset="0" stop-color="#ed6d48"/><stop offset="1" stop-color="#996b3b"/></linearGradient><linearGradient id="O" x1="438.281" x2="710.182" y1="306.375" y2="171.08" gradientTransform="translate(5.984 -16.74) scale(.98831)" gradientUnits="userSpaceOnUse"><stop offset="0" stop-color="#ed6d48"/><stop offset="1" stop-color="#996b3b"/></linearGradient><linearGradient id="P" x1="411.28" x2="501.297" y1="235.783" y2="235.783" gradientTransform="translate(-38.91 -6.22) scale(1.07475)" gradientUnits="userSpaceOnUse"><stop offset="0"/><stop offset="1"/></linearGradient><linearGradient id="Q" x1="514.623" x2="619.243" y1="236.302" y2="236.302" gradientTransform="translate(-38.91 -6.22) scale(1.07475)" gradientUnits="userSpaceOnUse"><stop offset="0"/><stop offset="1"/></linearGradient><linearGradient id="R" x1="411.28" x2="501.297" y1="235.783" y2="235.783" gradientTransform="translate(-44.648 -12.26) scale(1.07475)" gradientUnits="userSpaceOnUse"><stop offset="0"/><stop offset="1"/></linearGradient><linearGradient id="S" x1="514.623" x2="619.243" y1="236.302" y2="236.302" gradientTransform="translate(-44.648 -12.26) scale(1.07475)" gradientUnits="userSpaceOnUse"><stop offset="0"/><stop offset="1"/></linearGradient><path id="f" d="M288.197 403.222h157.372V563.36H288.197V403.222Z"/><path id="k" d="M288.197 610.506h157.372v160.138H288.197V610.506Z"/><path id="p" d="M575.122 610.506h157.372v160.138H575.122V610.506Z"/><path id="u" d="M575.122 403.222h157.372V563.36H575.122V403.222Z"/></defs><path fill="url(#a)" stroke="#000" stroke-linecap="butt" stroke-width="2.474" d="M161.139 357.286h701.722v649.254H161.139V357.286Z"/><path fill="#5309cd" d="M376.108 261.79v2.051h-5.801v15.164h-2.367v-15.164h-5.801v-2.051h13.969Zm4.418 4.383c.891 0 1.754.209 2.59.627.836.418 1.472.959 1.91 1.623.422.633.703 1.371.844 2.215.125.578.187 1.5.187 2.766h-9.199c.039 1.273.34 2.294.902 3.064.563.769 1.434 1.154 2.614 1.154 1.101 0 1.98-.363 2.636-1.09.375-.421.641-.91.797-1.464h2.074c-.054.461-.236.974-.544 1.541-.309.566-.655 1.029-1.038 1.388-.64.625-1.433 1.047-2.378 1.266a7.23 7.23 0 0 1-1.723.187c-1.563 0-2.887-.568-3.973-1.705-1.086-1.136-1.629-2.728-1.629-4.775 0-2.016.547-3.652 1.641-4.91 1.094-1.258 2.523-1.887 4.289-1.887Zm3.363 5.555c-.086-.914-.285-1.645-.597-2.192-.579-1.015-1.543-1.523-2.895-1.523-.969 0-1.781.35-2.437 1.049-.657.699-1.004 1.588-1.043 2.666h6.972Zm3.563-5.274h2.73l2.883 4.418 2.918-4.418 2.566.059-4.23 6.058 4.418 6.434h-2.695l-3.118-4.711-3.023 4.711h-2.672l4.418-6.434-4.195-6.117Zm13.617-3.504h2.133v3.504h2.004v1.723h-2.004v8.191c0 .438.148.731.445.879.164.086.437.129.82.129.102 0 .211-.002.328-.006.118-.004.254-.013.411-.029v1.664c-.243.07-.495.121-.756.152a7.035 7.035 0 0 1-.85.047c-.984 0-1.652-.252-2.004-.756-.351-.503-.527-1.158-.527-1.962v-8.309h-1.699v-1.723h1.699v-3.504Z"/><path fill="#5309cd" d="M376.108 261.79v2.051h-5.801v15.164h-2.367v-15.164h-5.801v-2.051h13.969Zm4.418 4.383c.891 0 1.754.209 2.59.627.836.418 1.472.959 1.91 1.623.422.633.703 1.371.844 2.215.125.578.187 1.5.187 2.766h-9.199c.039 1.273.34 2.294.902 3.064.563.769 1.434 1.154 2.614 1.154 1.101 0 1.98-.363 2.636-1.09.375-.421.641-.91.797-1.464h2.074c-.054.461-.236.974-.544 1.541-.309.566-.655 1.029-1.038 1.388-.64.625-1.433 1.047-2.378 1.266a7.23 7.23 0 0 1-1.723.187c-1.563 0-2.887-.568-3.973-1.705-1.086-1.136-1.629-2.728-1.629-4.775 0-2.016.547-3.652 1.641-4.91 1.094-1.258 2.523-1.887 4.289-1.887Zm3.363 5.555c-.086-.914-.285-1.645-.597-2.192-.579-1.015-1.543-1.523-2.895-1.523-.969 0-1.781.35-2.437 1.049-.657.699-1.004 1.588-1.043 2.666h6.972Zm3.563-5.274h2.73l2.883 4.418 2.918-4.418 2.566.059-4.23 6.058 4.418 6.434h-2.695l-3.118-4.711-3.023 4.711h-2.672l4.418-6.434-4.195-6.117Zm13.617-3.504h2.133v3.504h2.004v1.723h-2.004v8.191c0 .438.148.731.445.879.164.086.437.129.82.129.102 0 .211-.002.328-.006.118-.004.254-.013.411-.029v1.664c-.243.07-.495.121-.756.152a7.035 7.035 0 0 1-.85.047c-.984 0-1.652-.252-2.004-.756-.351-.503-.527-1.158-.527-1.962v-8.309h-1.699v-1.723h1.699v-3.504Z"/><g stroke-linecap="butt" stroke-width="2.474"><path fill="url(#b)" stroke="#193d7a" d="M430.023 817.627h170.965v188.913H430.023V817.627Z"/><path fill="url(#c)" stroke="#000" d="M509.907 817.627h91.081v188.913h-91.081V817.627Z"/><path fill="url(#d)" stroke="#000" d="M413.854 986.868h203.303v19.672H413.854v-19.672Z"/><path fill="#ed6d48" stroke="#525050" d="M521.979 928.976c0-2.339 1.879-4.234 4.197-4.234 2.319 0 4.198 1.895 4.198 4.234s-1.879 4.235-4.198 4.235c-2.318 0-4.197-1.896-4.197-4.235Z" opacity=".341"/><path fill="url(#e)" stroke="#000" d="M520.764 927.603c0-2.339 1.879-4.235 4.197-4.235 2.319 0 4.198 1.896 4.198 4.235 0 2.338-1.879 4.234-4.198 4.234-2.318 0-4.197-1.896-4.197-4.234Z"/></g><use xlink:href="#f" fill="#ddd" stroke="#000" stroke-linecap="butt" stroke-width="2.474"/><clipPath id="g"><use xlink:href="#f"/></clipPath><g stroke="#193d7a" stroke-linecap="butt" stroke-width="2.474" clip-path="url(#g)"><path fill="url(#h)" d="M208.251 431.116c27.691-45.475 79.18-67.802 115.005-49.868 35.824 17.933 42.418 69.336 14.728 114.811-27.691 45.475-79.18 67.802-115.005 49.868-35.825-17.933-42.419-69.336-14.728-114.811Z"/><path fill="url(#i)" d="M523.177 431.116c-27.691-45.475-79.18-67.802-115.005-49.868-35.825 17.933-42.418 69.336-14.728 114.811 27.691 45.475 79.18 67.802 115.005 49.868 35.824-17.933 42.418-69.336 14.728-114.811Z"/></g><path fill="#8b8b8b" d="M272.205 563.36h197.226v26.232H272.205V563.36Z" opacity=".388"/><path fill="url(#j)" stroke="#000" stroke-linecap="butt" stroke-width="2.474" d="M268.523 556.802h196.744v26.232H268.523v-26.232Z"/><use xlink:href="#k" fill="#ddd" stroke="#000" stroke-linecap="butt" stroke-width="2.474"/><clipPath id="l"><use xlink:href="#k"/></clipPath><g stroke="#193d7a" stroke-linecap="butt" stroke-width="2.474" clip-path="url(#l)"><path fill="url(#m)" d="M208.251 638.4c27.691-45.475 79.18-67.802 115.005-49.868 35.824 17.933 42.418 69.336 14.728 114.811-27.691 45.475-79.18 67.802-115.005 49.868-35.825-17.933-42.419-69.336-14.728-114.811Z"/><path fill="url(#n)" d="M523.177 638.4c-27.691-45.475-79.18-67.802-115.005-49.868-35.825 17.933-42.418 69.336-14.728 114.811 27.691 45.475 79.18 67.802 115.005 49.868 35.824-17.933 42.418-69.336 14.728-114.811Z"/></g><path fill="#8b8b8b" d="M272.205 770.644h197.226v26.232H272.205v-26.232Z" opacity=".388"/><path fill="url(#o)" stroke="#000" stroke-linecap="butt" stroke-width="2.474" d="M268.523 764.086h196.744v26.232H268.523v-26.232Z"/><use xlink:href="#p" fill="#ddd" stroke="#000" stroke-linecap="butt" stroke-width="2.474"/><clipPath id="q"><use xlink:href="#p"/></clipPath><g stroke="#193d7a" stroke-linecap="butt" stroke-width="2.474" clip-path="url(#q)"><path fill="url(#r)" d="M495.176 638.4c27.691-45.475 79.18-67.802 115.005-49.868 35.824 17.933 42.418 69.336 14.728 114.811-27.691 45.475-79.18 67.802-115.005 49.868-35.825-17.933-42.419-69.336-14.728-114.811Z"/><path fill="url(#s)" d="M810.102 638.4c-27.691-45.475-79.18-67.802-115.005-49.868-35.825 17.933-42.419 69.336-14.728 114.811 27.691 45.475 79.18 67.802 115.005 49.868 35.824-17.933 42.418-69.336 14.728-114.811Z"/></g><path fill="#8b8b8b" d="M559.13 770.644h197.226v26.232H559.13v-26.232Z" opacity=".388"/><path fill="url(#t)" stroke="#000" stroke-linecap="butt" stroke-width="2.474" d="M555.448 764.086h196.744v26.232H555.448v-26.232Z"/><use xlink:href="#u" fill="#ddd" stroke="#000" stroke-linecap="butt" stroke-width="2.474"/><clipPath id="v"><use xlink:href="#u"/></clipPath><g stroke="#193d7a" stroke-linecap="butt" stroke-width="2.474" clip-path="url(#v)"><path fill="url(#w)" d="M495.176 431.116c27.691-45.475 79.18-67.802 115.005-49.868 35.824 17.933 42.418 69.336 14.728 114.811-27.691 45.475-79.18 67.802-115.005 49.868-35.825-17.933-42.419-69.336-14.728-114.811Z"/><path fill="url(#x)" d="M810.102 431.116c-27.691-45.475-79.18-67.802-115.005-49.868-35.825 17.933-42.419 69.336-14.728 114.811 27.691 45.475 79.18 67.802 115.005 49.868 35.824-17.933 42.418-69.336 14.728-114.811Z"/></g><path fill="#8b8b8b" d="M559.13 563.36h197.226v26.232H559.13V563.36Z" opacity=".388"/><path fill="url(#y)" stroke="#000" stroke-linecap="butt" stroke-width="2.474" d="M555.448 556.802h196.744v26.232H555.448v-26.232Z"/><path fill="none" stroke="#68c40c" stroke-linecap="butt" stroke-width="1.474" d="M298.175 717.701v7.33"/><path fill="url(#z)" d="M291.584 717.612a3.289 3.289 0 1 1 6.578 0 3.289 3.289 0 0 1-6.578 0Z"/><path fill="url(#A)" d="M291.612 711.124a3.288 3.288 0 1 1 6.576 0 3.288 3.288 0 0 1-6.576 0Z"/><path fill="url(#B)" d="M298.188 711.124a3.289 3.289 0 1 1 6.577.001 3.289 3.289 0 0 1-6.577-.001Z"/><path fill="url(#C)" d="M298.188 717.612a3.289 3.289 0 1 1 6.578 0 3.289 3.289 0 0 1-6.578 0Z"/><path fill="#e8d239" d="M294.9 714.368c0-1.792 1.466-3.244 3.275-3.244s3.275 1.452 3.275 3.244c0 1.791-1.466 3.244-3.275 3.244s-3.275-1.453-3.275-3.244Z"/><path fill="none" stroke="#68c40c" stroke-linecap="butt" stroke-width="1.474" d="M311.823 717.701v7.33"/><path fill="url(#D)" d="M305.232 717.612a3.288 3.288 0 1 1 6.577-.001 3.288 3.288 0 0 1-6.577.001Z"/><path fill="url(#E)" d="M305.259 711.124a3.289 3.289 0 1 1 6.577.001 3.289 3.289 0 0 1-6.577-.001Z"/><path fill="url(#F)" d="M311.836 711.124a3.288 3.288 0 1 1 6.576 0 3.288 3.288 0 0 1-6.576 0Z"/><path fill="url(#G)" d="M311.836 717.612a3.288 3.288 0 1 1 6.576-.002 3.288 3.288 0 0 1-6.576.002Z"/><path fill="#e8d239" d="M308.548 714.368c0-1.792 1.466-3.244 3.275-3.244 1.808 0 3.274 1.452 3.274 3.244 0 1.791-1.466 3.244-3.274 3.244-1.809 0-3.275-1.453-3.275-3.244Z"/><path fill="none" stroke="#68c40c" stroke-linecap="butt" stroke-width="1.474" d="M325.452 717.701v7.33"/><path fill="url(#H)" d="M318.862 717.612a3.288 3.288 0 1 1 6.576-.002 3.288 3.288 0 0 1-6.576.002Z"/><path fill="url(#I)" d="M318.889 711.124a3.288 3.288 0 1 1 6.576 0 3.288 3.288 0 0 1-6.576 0Z"/><path fill="url(#J)" d="M325.466 711.124a3.288 3.288 0 1 1 6.576 0 3.288 3.288 0 0 1-6.576 0Z"/><path fill="url(#K)" d="M325.466 717.612a3.288 3.288 0 1 1 6.576-.002 3.288 3.288 0 0 1-6.576.002Z"/><path fill="#e8d239" d="M322.177 714.368c0-1.792 1.467-3.244 3.275-3.244 1.809 0 3.275 1.452 3.275 3.244 0 1.791-1.466 3.244-3.275 3.244-1.808 0-3.275-1.453-3.275-3.244Z"/><path fill="url(#L)" stroke="#f5891d" stroke-linecap="butt" stroke-width="2.474" d="M299.971 733.378h23.703v20.203l-4.401 7.86h-12.782l-6.52-6.327v-21.736Z"/><path fill="url(#M)" stroke="#f5891d" stroke-linecap="butt" stroke-width="1.474" d="M296.276 725.031h31.093v8.347h-31.093v-8.347Z"/><g stroke-linecap="butt" stroke-width="2.474"><path fill="url(#N)" stroke="#000" d="m512 22.82 191.826 167.234 191.825 167.232H128.349l191.825-167.232L512 22.821Z"/><path fill="url(#O)" stroke="#000" d="m512 38.42 176.398 153.783 176.397 153.783h-705.59l176.397-153.783L512 38.421Z"/><g stroke="#4c2a6e"><g opacity=".3"><path fill="url(#P)" d="M456.204 264.942h-26.845v45.457h-26.245V183.978h55.063c12.693 0 22.814 3.259 30.361 9.778 7.548 6.518 11.322 16.61 11.322 30.275 0 14.924-3.774 25.473-11.322 31.648-7.547 6.176-18.325 9.263-32.334 9.263Zm12.351-26.33c3.43-3.031 5.146-7.834 5.146-14.409 0-6.576-1.73-11.264-5.189-14.066-3.459-2.802-8.305-4.202-14.538-4.202h-24.615v37.222h24.615c6.233 0 11.093-1.515 14.581-4.545Z" opacity="1"/><path fill="url(#Q)" d="M608.87 300.964c-9.435 8.634-21.499 12.951-36.194 12.951-18.183 0-32.477-5.832-42.884-17.496-10.406-11.722-15.609-27.789-15.609-48.201 0-22.071 5.918-39.081 17.754-51.032 10.292-10.406 23.385-15.609 39.281-15.609 21.27 0 36.823 6.975 46.657 20.927 5.432 7.833 8.348 15.695 8.749 23.586h-26.417c-1.715-6.061-3.916-10.635-6.604-13.723-4.803-5.489-11.921-8.234-21.356-8.234-9.606 0-17.182 3.874-22.728 11.622-5.546 7.747-8.32 18.711-8.32 32.892 0 14.18 2.931 24.801 8.792 31.862 5.86 7.062 13.308 10.592 22.342 10.592 9.263 0 16.324-3.03 21.184-9.091 2.688-3.259 4.918-8.148 6.69-14.666h26.159c-2.287 13.78-8.119 24.987-17.496 33.62Z" opacity="1"/></g><path fill="url(#R)" d="M450.466 258.903h-26.845v45.457h-26.245V177.939h55.063c12.694 0 22.814 3.259 30.362 9.777 7.547 6.519 11.321 16.611 11.321 30.276 0 14.924-3.774 25.473-11.321 31.648-7.548 6.176-18.326 9.263-32.335 9.263Zm12.351-26.33c3.43-3.031 5.146-7.834 5.146-14.409 0-6.576-1.73-11.264-5.189-14.066-3.459-2.802-8.305-4.203-14.538-4.203h-24.615v37.223h24.615c6.233 0 11.093-1.515 14.581-4.545Z"/><path fill="url(#S)" d="M603.132 294.925c-9.435 8.634-21.499 12.951-36.194 12.951-18.183 0-32.477-5.832-42.883-17.496-10.407-11.722-15.61-27.789-15.61-48.201 0-22.071 5.918-39.082 17.754-51.032 10.292-10.406 23.386-15.61 39.281-15.61 21.27 0 36.823 6.976 46.657 20.928 5.432 7.833 8.348 15.695 8.749 23.586h-26.417c-1.715-6.061-3.916-10.636-6.604-13.723-4.803-5.489-11.921-8.234-21.356-8.234-9.606 0-17.182 3.874-22.728 11.622-5.546 7.747-8.319 18.711-8.319 32.891 0 14.181 2.93 24.801 8.791 31.863 5.86 7.061 13.308 10.592 22.342 10.592 9.263 0 16.324-3.03 21.184-9.091 2.688-3.259 4.918-8.148 6.69-14.666h26.159c-2.287 13.78-8.119 24.986-17.496 33.62Z"/></g></g></svg>