<svg xmlns="http://www.w3.org/2000/svg" xml:space="preserve" stroke-miterlimit="10" style="fill-rule:nonzero;clip-rule:evenodd;stroke-linecap:round;stroke-linejoin:round" viewBox="0 0 1024 1024"><g fill="#fddf19" stroke="#000"><path stroke-width="2.474" d="M473.661 752.549c-8.169 1.904-13.979 8.574-15.21 16.38-1.293 3.995-.203 9.992 3.432 16.239l5.733 9.862-43.399 10.116 28.325 121.524 9.863-5.733a33.734 33.734 0 0 1 4.644-2.237c.01-.004.021-.003.031-.007.084-.039.182-.057.267-.095.83-.368 1.719-.641 2.614-.898a22.1 22.1 0 0 1 2.73-.54c.176-.024.349-.07.524-.09 9.947-1.129 19.389 5.263 21.717 15.25 1.904 8.169-1.51 16.33-7.967 20.885-3.012 2.925-8.873 4.6-16.083 4.101l-11.38-.78 10.115 43.399 194.779-45.401-23.786-102.046-9.862 5.732c-6.247 3.635-12.244 4.725-16.239 3.432-7.806-1.23-14.476-7.04-16.38-15.21-2.328-9.986 3.315-19.894 12.735-23.28.167-.059.342-.095.511-.151a21.847 21.847 0 0 1 2.687-.722c.917-.166 1.834-.313 2.742-.351.093-.003.188-.031.281-.033.011-.001.02-.006.03-.007a33.619 33.619 0 0 1 5.156-.047l11.38.781-14.656-62.877-121.523 28.326.78-11.381c.127-1.827.09-3.525-.046-5.155-.001-.01-.006-.02-.007-.03-.003-.093-.03-.188-.034-.281-.037-.908-.184-1.826-.35-2.742a22.09 22.09 0 0 0-.723-2.688c-.055-.168-.091-.344-.151-.51-3.385-9.421-13.293-15.063-23.28-12.735Zm55.747-244.966 14.656 62.877-11.381-.78a33.484 33.484 0 0 0-5.155.046c-.011.001-.02.006-.031.007-.093.003-.188.03-.281.034-.908.037-1.825.184-2.742.35-.951.188-1.848.444-2.687.723-.169.055-.344.091-.51.151-9.421 3.385-15.063 13.293-12.736 23.28 1.904 8.169 8.575 13.979 16.381 15.21 3.994 1.293 9.991.203 16.238-3.433l9.863-5.732 23.785 102.046 194.779-45.401-19.196-82.355-9.862 5.732c-6.247 3.636-12.244 4.726-16.239 3.433-7.806-1.231-14.476-7.041-16.38-15.21-2.328-9.987 3.315-19.895 12.735-23.28.166-.06.341-.096.51-.151a22.09 22.09 0 0 1 2.688-.723c.916-.166 1.834-.313 2.742-.35.093-.004.188-.031.281-.034.01 0 .02-.006.03-.007a33.612 33.612 0 0 1 5.155-.046l11.381.78-19.246-82.568-102.045 23.786 5.732 9.863a33.505 33.505 0 0 1 2.237 4.644c.004.01.004.021.008.031.038.083.056.181.094.266.368.831.641 1.719.898 2.615a22.1 22.1 0 0 1 .54 2.73c.025.176.07.349.09.524 1.129 9.947-5.263 19.389-15.249 21.716-8.17 1.905-16.331-1.509-20.885-7.967-2.926-3.011-4.601-8.872-4.102-16.082l.781-11.381-62.877 14.656Zm-301.157 29.125c-8.17 1.904-13.98 8.574-15.21 16.38-1.293 3.995-.204 9.992 3.432 16.239l5.732 9.862-82.355 19.196 45.401 194.779 194.779-45.401-10.116-43.399 11.38.781c7.211.498 13.072-1.176 16.083-4.102 6.457-4.555 9.871-12.716 7.967-20.885-2.328-9.987-11.77-16.379-21.716-15.25-.176.02-.349.066-.525.09a22.1 22.1 0 0 0-2.73.54c-.895.257-1.783.531-2.614.899-.085.037-.182.055-.267.094-.01.004-.02.003-.03.007a33.639 33.639 0 0 0-4.645 2.238l-9.862 5.732-28.326-121.524-82.568 19.246.781-11.381a33.606 33.606 0 0 0-.047-5.155c-.001-.01-.006-.02-.007-.03-.002-.093-.03-.188-.033-.281-.038-.908-.185-1.826-.351-2.742a21.912 21.912 0 0 0-.722-2.688c-.056-.168-.092-.344-.151-.51-3.386-9.42-13.294-15.063-23.28-12.735Zm15.576-373.281 19.196 82.355 9.863-5.733a33.564 33.564 0 0 1 4.644-2.237c.01-.004.021-.003.031-.007.084-.039.181-.057.266-.095.831-.368 1.719-.641 2.615-.898a22.1 22.1 0 0 1 2.73-.54c.176-.025.348-.07.524-.09 9.947-1.129 19.388 5.263 21.716 15.25 1.905 8.169-1.509 16.33-7.967 20.885-3.011 2.926-8.872 4.6-16.082 4.101l-11.381-.78 19.246 82.568 82.568-19.246-.781 11.38c-.498 7.211 1.176 13.072 4.102 16.083 4.555 6.457 12.715 9.871 20.885 7.967 9.986-2.328 16.378-11.77 15.25-21.716-.02-.176-.066-.349-.091-.525a21.916 21.916 0 0 0-.54-2.73c-.256-.895-.53-1.783-.898-2.614-.038-.085-.055-.183-.094-.267-.004-.01-.003-.021-.007-.03a33.639 33.639 0 0 0-2.238-4.645l-5.732-9.862 82.355-19.196-19.246-82.568 11.38.78c7.211.499 13.072-1.175 16.083-4.101 6.457-4.555 9.871-12.716 7.967-20.885-2.328-9.987-11.77-16.379-21.716-15.25-.176.02-.348.065-.525.09-.876.121-1.793.288-2.73.54-.895.257-1.783.531-2.614.898-.085.038-.182.056-.267.095-.01.004-.02.003-.03.007a33.525 33.525 0 0 0-4.645 2.238l-9.862 5.732-19.196-82.355-194.779 45.401Z"/><path stroke-width="2.474" d="m438.606 118.026 19.196 82.355 9.862-5.732a33.639 33.639 0 0 1 4.645-2.238c.009-.004.02-.003.03-.007.085-.039.183-.057.267-.095.831-.367 1.719-.641 2.614-.898a22.173 22.173 0 0 1 2.73-.54c.177-.025.349-.07.525-.09 9.946-1.129 19.388 5.263 21.716 15.25 1.904 8.169-1.51 16.33-7.967 20.885-3.011 2.926-8.872 4.6-16.083 4.101l-11.38-.78 19.246 82.568 82.568-19.246-.781 11.38c-.499 7.211 1.176 13.072 4.102 16.083 4.554 6.457 12.715 9.871 20.885 7.967 9.986-2.328 16.378-11.77 15.249-21.716-.02-.176-.065-.349-.09-.525a22.1 22.1 0 0 0-.54-2.73c-.257-.895-.53-1.783-.898-2.614-.038-.085-.056-.182-.094-.267-.004-.01-.004-.02-.008-.03a33.515 33.515 0 0 0-2.237-4.645l-5.732-9.862 82.354-19.196-19.196-82.355-9.862 5.732c-6.247 3.635-12.244 4.725-16.239 3.432-7.806-1.23-14.476-7.04-16.38-15.21-2.328-9.986 3.315-19.894 12.735-23.28.167-.06.342-.095.511-.151a21.847 21.847 0 0 1 2.687-.722c.917-.166 1.834-.313 2.742-.351.093-.004.188-.031.281-.033.011-.001.02-.006.03-.007a33.619 33.619 0 0 1 5.156-.047l11.38.781-19.246-82.568-194.778 45.401Zm285.58 344.156 19.246 82.568-11.381-.78a33.485 33.485 0 0 0-5.155.046c-.01.001-.02.006-.03.007-.093.003-.188.03-.281.034-.908.037-1.826.184-2.742.35a22.09 22.09 0 0 0-2.688.723c-.168.055-.344.091-.51.151-9.421 3.385-15.063 13.293-12.735 23.28 1.904 8.169 8.574 13.979 16.38 15.21 3.995 1.293 9.992.203 16.239-3.433l9.862-5.732 19.196 82.355 194.779-45.401-45.401-194.779-82.568 19.246 5.732 9.863a33.63 33.63 0 0 1 2.238 4.644c.004.01.003.021.007.031.039.083.057.181.094.266.368.831.642 1.719.899 2.615a22.1 22.1 0 0 1 .54 2.73c.024.176.07.349.09.524 1.129 9.947-5.264 19.389-15.25 21.716-8.169 1.905-16.33-1.509-20.885-7.967-2.926-3.011-4.6-8.872-4.101-16.082l.78-11.381-82.355 19.196ZM49.048 208.828 94.45 403.606l82.355-19.196-.781 11.381c-.498 7.21 1.176 13.071 4.102 16.082 4.555 6.458 12.716 9.872 20.885 7.967 9.986-2.327 16.378-11.769 15.25-21.716-.02-.176-.066-.348-.09-.524a22.1 22.1 0 0 0-.54-2.73c-.257-.896-.531-1.784-.899-2.615-.037-.085-.055-.182-.094-.266-.004-.01-.003-.021-.007-.031a33.63 33.63 0 0 0-2.238-4.644l-5.732-9.863 82.568-19.245-19.246-82.568 11.381.78c7.21.499 13.071-1.175 16.082-4.101 6.458-4.555 9.872-12.716 7.967-20.885-2.327-9.987-11.769-16.379-21.716-15.25-.176.02-.348.065-.524.09a22.1 22.1 0 0 0-2.73.54c-.896.257-1.784.531-2.615.898-.085.038-.182.056-.266.095-.01.003-.021.003-.031.007a33.564 33.564 0 0 0-4.644 2.237l-9.863 5.733-19.196-82.355-194.779 45.401Z"/><path stroke-linecap="butt" stroke-width="5" d="m76.385 325.952 173.742 41.284"/><path stroke-width="2.474" d="m94.45 403.606 45.4 194.779 82.355-19.196-5.732-9.862c-3.635-6.247-4.725-12.244-3.432-16.239 1.23-7.806 7.04-14.476 15.21-16.38 9.986-2.328 19.894 3.315 23.28 12.735.059.166.095.341.151.51.279.839.535 1.736.722 2.688.166.916.313 1.834.351 2.742.003.093.031.188.033.281.001.01.006.02.007.03.136 1.63.173 3.328.047 5.155l-.781 11.381 82.568-19.246-19.196-82.355 11.38.781c7.211.499 13.072-1.176 16.083-4.102 6.457-4.554 9.871-12.715 7.967-20.885-2.328-9.986-11.77-16.378-21.716-15.249-.176.02-.349.065-.525.09a22.1 22.1 0 0 0-2.73.54c-.895.257-1.783.53-2.614.898-.085.038-.182.056-.267.094-.01.004-.02.004-.03.007a33.639 33.639 0 0 0-4.645 2.238l-9.862 5.732-19.246-82.567-82.568 19.245 5.732 9.863a33.63 33.63 0 0 1 2.238 4.644c.004.01.003.021.007.031.039.084.057.182.094.266.368.831.642 1.719.899 2.615a22.1 22.1 0 0 1 .54 2.73c.024.176.07.349.09.524 1.128 9.947-5.264 19.389-15.25 21.716-8.169 1.905-16.33-1.509-20.885-7.967-2.926-3.011-4.6-8.872-4.102-16.082l.781-11.381-82.355 19.196Z"/><path stroke-linecap="butt" stroke-width="5" d="m249.647 367.486 44.419 10.217"/><g stroke-linecap="butt"><path stroke-linejoin="miter" stroke-width="2.474" d="m289.228 358.206 19.246 82.567 9.862-5.732a33.584 33.584 0 0 1 4.645-2.238c.009-.003.02-.003.03-.007.084-.038.182-.057.267-.094.831-.368 1.719-.641 2.614-.898a22.1 22.1 0 0 1 2.73-.54c.176-.025.349-.07.525-.09 9.946-1.129 19.388 5.263 21.716 15.249 1.904 8.17-1.51 16.331-7.967 20.885-3.011 2.926-8.872 4.601-16.083 4.102l-11.38-.781 19.196 82.355 43.399-10.116-5.732-9.862c-3.636-6.247-4.725-12.244-3.432-16.239 1.23-7.806 7.04-14.476 15.21-16.38 9.986-2.328 19.894 3.315 23.28 12.735.059.167.095.342.151.511.279.839.535 1.736.722 2.687.166.917.313 1.834.351 2.742.003.093.031.189.033.281.001.011.006.02.007.03.136 1.63.173 3.329.047 5.156l-.781 11.38 121.524-28.326-23.737-101.832-9.862 5.732c-6.247 3.635-12.244 4.725-16.239 3.432-7.805-1.23-14.476-7.04-16.38-15.21-2.328-9.987 3.315-19.894 12.735-23.28.167-.06.342-.095.511-.151a22.074 22.074 0 0 1 2.687-.723c.917-.165 1.834-.313 2.742-.35.093-.004.188-.031.281-.033.011-.001.02-.007.03-.008a33.751 33.751 0 0 1 5.156-.046l11.38.781-14.705-63.09-82.355 19.196 5.732 9.862a33.639 33.639 0 0 1 2.238 4.645c.004.009.003.02.007.03.039.084.056.182.094.267.368.831.642 1.719.898 2.614.252.936.42 1.854.54 2.73.025.176.071.349.091.525 1.128 9.946-5.264 19.388-15.25 21.716-8.17 1.904-16.33-1.51-20.885-7.967-2.926-3.011-4.6-8.872-4.102-16.083l.781-11.38-82.568 19.246Z"/><path stroke-width="5" d="m293.928 377.757 217.331 51.963"/></g><path stroke-width="2.474" d="m484.007 312.805 14.705 63.09-11.38-.781a33.751 33.751 0 0 0-5.156.046c-.01.001-.019.007-.03.008-.093.002-.188.029-.281.033-.908.037-1.825.185-2.742.35-.951.188-1.848.444-2.687.723-.169.056-.344.091-.511.151-9.42 3.386-15.063 13.293-12.735 23.28 1.904 8.17 8.575 13.98 16.38 15.21 3.995 1.293 9.992.203 16.239-3.432l9.862-5.732 23.737 101.832 62.877-14.656-.781 11.381c-.499 7.21 1.176 13.071 4.102 16.082 4.554 6.458 12.715 9.872 20.885 7.967 9.986-2.327 16.378-11.769 15.249-21.716-.02-.176-.065-.348-.09-.524a22.1 22.1 0 0 0-.54-2.73c-.257-.896-.53-1.784-.898-2.615-.038-.085-.056-.182-.094-.266-.004-.01-.004-.021-.008-.031a33.505 33.505 0 0 0-2.237-4.644l-5.732-9.863 102.045-23.786-19.196-82.354-9.862 5.732c-6.247 3.635-12.244 4.725-16.239 3.432-7.806-1.23-14.476-7.04-16.38-15.21-2.328-9.987 3.315-19.894 12.735-23.28.167-.06.342-.095.51-.151a22.09 22.09 0 0 1 2.688-.723c.917-.165 1.834-.312 2.742-.35.093-.004.188-.031.281-.034.01 0 .02-.006.03-.007a33.75 33.75 0 0 1 5.156-.046l11.38.781-19.246-82.568-82.354 19.196 5.732 9.862a33.515 33.515 0 0 1 2.237 4.645c.004.01.004.02.008.03.038.085.056.182.094.267.368.831.641 1.719.898 2.614a22.1 22.1 0 0 1 .54 2.73c.025.176.07.349.09.525 1.129 9.946-5.263 19.388-15.249 21.716-8.17 1.904-16.331-1.51-20.885-7.967-2.926-3.011-4.601-8.872-4.102-16.083l.781-11.38-82.568 19.246Z"/><path stroke-linecap="butt" stroke-width="5" d="M511.203 428.877 683.68 286.414"/><path stroke-width="2.474" d="m678.785 267.404 19.246 82.568-11.38-.781a33.751 33.751 0 0 0-5.156.046c-.01.001-.02.007-.03.007-.093.003-.188.03-.281.034-.908.037-1.825.185-2.742.35a22.09 22.09 0 0 0-2.688.723c-.168.056-.343.091-.51.151-9.42 3.386-15.063 13.293-12.735 23.28 1.904 8.17 8.574 13.98 16.38 15.21 3.995 1.293 9.992.203 16.239-3.432l9.862-5.732 19.196 82.354 82.355-19.196-.78 11.381c-.499 7.21 1.175 13.071 4.101 16.082 4.555 6.458 12.716 9.872 20.885 7.967 9.987-2.327 16.379-11.769 15.25-21.716-.02-.176-.066-.348-.09-.524a22.1 22.1 0 0 0-.54-2.73c-.257-.896-.531-1.784-.899-2.615-.037-.085-.055-.182-.094-.266-.004-.01-.003-.021-.007-.031a33.63 33.63 0 0 0-2.238-4.644l-5.732-9.863 82.568-19.246-45.401-194.778-82.355 19.196 5.732 9.862a33.411 33.411 0 0 1 2.238 4.645c.004.01.003.02.007.03.039.085.057.182.095.267.368.831.641 1.719.898 2.614.252.936.419 1.855.54 2.73.024.176.07.349.09.525 1.129 9.946-5.264 19.388-15.25 21.716-8.169 1.904-16.33-1.509-20.885-7.967-2.926-3.011-4.6-8.872-4.101-16.082l.78-11.381-82.568 19.246Z"/><path stroke-linecap="butt" stroke-width="5" d="m682.965 287.025 35.77-29.248"/><path stroke-width="2.474" d="m633.384 72.625 19.246 82.568-11.38-.781a33.619 33.619 0 0 0-5.156.047c-.01.001-.019.006-.03.007-.093.002-.188.029-.281.033-.908.038-1.825.185-2.742.351-.951.187-1.849.443-2.687.722-.169.056-.344.091-.511.151-9.42 3.386-15.063 13.294-12.735 23.28 1.904 8.17 8.574 13.98 16.38 15.21 3.995 1.293 9.992.203 16.239-3.432l9.862-5.732 19.196 82.355 82.568-19.246-.78 11.381c-.499 7.21 1.175 13.071 4.101 16.082 4.555 6.457 12.716 9.871 20.885 7.967 9.987-2.328 16.379-11.77 15.25-21.716-.02-.176-.066-.349-.09-.525a22.1 22.1 0 0 0-.54-2.73c-.257-.895-.53-1.783-.898-2.614-.038-.085-.056-.182-.095-.267-.004-.01-.003-.02-.007-.03a33.639 33.639 0 0 0-2.238-4.645l-5.732-9.862 82.355-19.196-45.401-194.779-194.779 45.4Z"/><path stroke-linecap="butt" stroke-width="5" d="M718.038 258.158 855.59 143.922"/></g></svg>