<svg xmlns="http://www.w3.org/2000/svg" xml:space="preserve" stroke-miterlimit="10" style="fill-rule:nonzero;clip-rule:evenodd;stroke-linecap:round;stroke-linejoin:round" viewBox="0 0 1024 1024"><g stroke="#000" stroke-linecap="butt" stroke-width="10"><path fill="#8b8b8b" d="M700.607 549.826h60v380l-60 40v-420Z"/><path fill="#adadad" d="M600.607 549.826h100v420l-100-20v-400Z"/></g><g stroke="#000" stroke-linecap="butt"><g stroke-width="10"><path fill="#303030" d="M463.623 228.156c86.536 0 156.688 59.422 156.688 132.722v379.204l-319.724-37.92V360.878c0-65.128 61.772-119.201 134.82-130.47.293-.045.595-.075.888-.119 4.226-.634 8.495-1.15 12.822-1.511 4.787-.373 9.604-.622 14.506-.622Z"/><path fill="#5e5e5e" d="m300 696.931 320-86.301v129.452l-320-43.151Z"/><path fill="#adadad" d="M620.311 740.082 340.552 847.959s-240.74 72.929-301.344 5.611c-60.604-67.317 41.568-91.912 41.568-91.912l219.811-64.727 319.724 43.151Z"/></g><path fill="#fddf19" stroke-width="10" d="M368.707 730.465 263.136 464.731l351.901-94.905 105.57 246.753-351.9 113.886Z"/><path fill="#fddf19" stroke-width="10" d="m511.451 559.636 135.436-115.08-31.85-74.73-351.901 94.905 31.19 78.362 217.125 16.543Z"/><g stroke-width="2"><path fill="#ddd" d="m499.326 417.141 95.255-27.185 18.877 68.68-93.324 29.908-20.808-71.403Z"/><path fill="#eb493a" d="M529.478 469.579c-3.651-2.084-6.068-5.194-7.25-9.329-.788-2.756-.875-5.432-.261-8.028.614-2.595 1.969-4.804 4.063-6.625-2.824-.903-4.856-2.173-6.094-3.811-1.238-1.638-2.087-3.259-2.546-4.864-1.021-3.569-.547-6.999 1.421-10.287 1.969-3.288 5.404-5.633 10.307-7.035 4.903-1.402 9.06-1.228 12.469.522 3.409 1.751 5.624 4.411 6.645 7.981.459 1.604.595 3.429.41 5.474-.185 2.045-1.27 4.084-3.255 6.118 2.806.665 5.138 1.941 6.998 3.829 1.86 1.888 3.184 4.21 3.972 6.967 1.182 4.134.658 8.091-1.573 11.87-2.232 3.779-6.093 6.453-11.583 8.023-5.491 1.571-10.065 1.302-13.723-.805Zm2.598-12.842c.691 2.418 1.854 4.114 3.49 5.089 1.635.974 3.559 1.145 5.774.511 2.214-.633 3.758-1.795 4.63-3.487.873-1.691.964-3.746.272-6.164-.717-2.508-1.899-4.229-3.547-5.163-1.649-.934-3.557-1.091-5.726-.471-2.169.621-3.706 1.763-4.611 3.427-.906 1.664-.999 3.75-.282 6.258Zm-2.246-17.469c1.407.82 3.083.952 5.026.396 1.966-.562 3.324-1.562 4.074-2.998.75-1.437.87-3.048.359-4.833-.555-1.943-1.526-3.309-2.913-4.098-1.387-.789-3.063-.902-5.028-.34-1.944.556-3.306 1.538-4.089 2.947-.782 1.41-.896 3.086-.34 5.029.51 1.785 1.481 3.084 2.911 3.897Zm54.322 18.435c-6.259 1.79-11.275.854-15.047-2.809-3.773-3.663-6.819-9.55-9.139-17.662-2.319-8.111-2.849-14.73-1.59-19.857 1.259-5.126 5.018-8.584 11.277-10.374 6.259-1.789 11.283-.843 15.074 2.839 3.768 3.689 6.811 9.589 9.131 17.7 2.32 8.112 2.846 14.719 1.581 19.823-1.266 5.104-5.028 8.551-11.287 10.34Zm2.122-13.989c.029-3.234-.765-7.676-2.38-13.324-1.693-5.92-3.393-10.176-5.099-12.767-1.707-2.592-3.995-3.478-6.864-2.657-2.87.82-4.361 2.787-4.473 5.898-.112 3.112.678 7.628 2.371 13.548 1.615 5.648 3.314 9.837 5.096 12.566 1.783 2.729 4.109 3.683 6.978 2.863 2.87-.821 4.327-2.863 4.371-6.127Z"/></g><path fill="#8b8b8b" stroke-width="10" d="M980 607.361 620.311 740.082c0-126.401 2.445-252.83 0-379.204-.55-28.379-11.99-58.585-30.845-78.384-13.143-13.802-28.228-25.993-44.809-34.453-18.278-9.326-38.267-15.025-58.278-18.148-18.052-2.817-36.479.343-54.718.515 113.71-35.877 226.808-74.094 341.13-107.631 34.832-10.218 67.74-11.383 102.662-1.913 30.896 8.379 60.709 27.687 81.646 53.589 14.474 17.907 22.635 43.1 22.901 66.857 1.367 122.008 0 244.034 0 366.051Z"/><path fill="#fddf19" stroke-width="5" d="M729.152 354.672c5.854 5.522 9.135 13.959 9.843 25.312.746 11.977-1.378 21.273-6.372 27.888-4.994 6.615-11.733 10.187-20.217 10.715-5.406.337-9.981-.734-13.726-3.215-2.048-1.375-4.097-3.439-6.147-6.192l2.207 35.431-17.591 1.096-5.903-94.753 17.029-1.061.626 10.043c1.729-3.072 3.622-5.528 5.678-7.368 3.761-3.282 8.366-5.092 13.814-5.432 7.943-.495 14.862 2.017 20.759 7.536ZM720.71 382c-.327-5.24-1.811-9.802-4.454-13.687-2.642-3.885-6.646-5.66-12.011-5.326-6.445.402-10.684 3.734-12.715 9.998-1.045 3.321-1.413 7.477-1.102 12.467.492 7.902 2.938 13.323 7.338 16.263 2.612 1.716 5.623 2.468 9.033 2.255 4.949-.308 8.603-2.456 10.964-6.444 2.361-3.988 3.343-9.163 2.947-15.526Zm72.22 18.315c-13.162.335-23.312-2.991-30.451-9.978-9.555-8.551-14.543-21.094-14.964-37.63-.43-16.87 3.912-29.651 13.027-38.345 6.773-7.342 16.741-11.18 29.903-11.516 13.163-.335 23.313 2.99 30.452 9.977 9.504 8.219 14.472 20.763 14.902 37.633.421 16.536-3.9 29.317-12.965 38.343-6.773 7.341-16.741 11.18-29.904 11.516Zm17.551-25.206c4.314-5.737 6.338-13.791 6.074-24.163-.263-10.33-2.706-18.26-7.328-23.789-4.621-5.53-10.743-8.198-18.366-8.004-7.622.195-13.632 3.161-18.029 8.9-4.397 5.739-6.463 13.795-6.198 24.166.264 10.372 2.738 18.311 7.422 23.819 4.683 5.507 10.836 8.164 18.459 7.969 7.622-.194 13.611-3.16 17.966-8.898Zm69.463-54.067c-7.072 1.165-11.441 4.25-13.108 9.254-.93 2.814-.951 6.913-.064 12.299l5.293 32.13-17.699 2.915-11.074-67.219 16.774-2.763 1.93 11.717c1.976-4.928 3.835-8.381 5.579-10.357 2.835-3.296 6.884-5.378 12.146-6.245.329-.054.608-.09.838-.106.229-.017.738-.069 1.526-.157l2.966 18.008a47.984 47.984 0 0 0-5.107.524Zm54.809 25.85 1.148 13.263-8.379 1.039c-8.36 1.017-14.215.06-17.563-2.87-2.169-1.862-3.437-4.909-3.803-9.144l-3.618-41.781-9.465.82-1.095-12.64 9.465-.82-1.639-18.929 17.559-1.521 1.639 18.929 11.022-.954 1.094 12.64-11.021.955 3.106 35.865c.241 2.782.744 4.484 1.509 5.108.765.624 2.953.779 6.564.467a50.309 50.309 0 0 0 3.477-.427Z"/><g fill="#eb493a" stroke-width="10"><path d="M804.398 20H782.14v321.271h22.258V20Z"/><path d="M813.218 352.757c0-11.915-8.954-21.575-20-21.575-11.045 0-20 9.66-20 21.575 0 11.916 8.955 21.576 20 21.576 11.046 0 20-9.66 20-21.576Zm68.568-332.291h-77.199v64.726h77.199V20.466Z"/></g></g><path fill="#eb493a" stroke="#000" stroke-linecap="butt" stroke-width="10" d="M722.506 598.116c-8.652-8.86-12.978-19.623-12.978-32.29 0-8.444 1.921-16.092 5.762-22.945 3.842-6.852 9.465-12.009 16.872-15.469-7.268-4.846-11.992-10.089-14.172-15.73-2.181-5.641-3.271-10.919-3.271-15.833 0-10.936 4.119-20.263 12.355-27.98 8.237-7.718 19.865-11.577 34.885-11.577s26.648 3.859 34.885 11.577c8.236 7.717 12.355 17.044 12.355 27.98 0 4.914-1.09 10.192-3.271 15.833-2.18 5.641-6.904 10.538-14.172 14.691 7.406 4.153 12.978 9.656 16.716 16.508 3.738 6.853 5.607 14.501 5.607 22.945 0 12.667-4.69 23.447-14.069 32.341-9.378 8.895-22.477 13.342-39.297 13.342-16.819 0-29.555-4.465-38.207-13.393Zm17.754-34.262c0 7.406 1.921 13.151 5.762 17.234 3.842 4.084 9.154 6.126 15.937 6.126 6.783 0 12.095-2.042 15.937-6.126 3.841-4.083 5.762-9.828 5.762-17.234 0-7.683-1.955-13.515-5.866-17.495-3.911-3.98-9.188-5.97-15.833-5.97s-11.922 1.99-15.833 5.97c-3.911 3.98-5.866 9.812-5.866 17.495Zm7.787-51.289c3.322 3.461 7.959 5.191 13.912 5.191 6.022 0 10.677-1.73 13.964-5.191 3.288-3.461 4.932-7.925 4.932-13.394 0-5.952-1.644-10.607-4.932-13.964-3.287-3.357-7.942-5.035-13.964-5.035-5.953 0-10.607 1.678-13.964 5.035-3.357 3.357-5.036 8.012-5.036 13.964 0 5.469 1.696 9.933 5.088 13.394Zm134.12 63.727c-19.173 0-32.618-6.714-40.336-20.142-7.717-13.427-11.576-32.566-11.576-57.414 0-24.849 3.859-44.021 11.576-57.518 7.718-13.498 21.163-20.246 40.336-20.246 19.172 0 32.635 6.748 40.387 20.246 7.683 13.497 11.525 32.669 11.525 57.518 0 24.848-3.859 43.987-11.577 57.414-7.717 13.428-21.163 20.142-40.335 20.142Zm17.338-37.895c2.7-9.137 4.049-22.357 4.049-39.661 0-18.135-1.367-31.563-4.101-40.284s-8.496-13.082-17.286-13.082c-8.791 0-14.605 4.361-17.443 13.082-2.838 8.721-4.257 22.149-4.257 40.284 0 17.304 1.419 30.541 4.257 39.712 2.838 9.172 8.652 13.757 17.443 13.757 8.79 0 14.57-4.603 17.338-13.808Z"/><path fill="#8b8b8b" d="m605.616 819.94 90.038-40.027-.117-62.353-89.897 33.35-.024 69.03Z"/><path fill="#5e5e5e" d="m705.68 774.478 50.761-19.153-.737-59.85-50.122 18.416.098 60.587Z"/></svg>