<svg xmlns="http://www.w3.org/2000/svg" xml:space="preserve" stroke-miterlimit="10" style="fill-rule:nonzero;clip-rule:evenodd;stroke-linecap:round;stroke-linejoin:round" viewBox="0 0 1024 1024"><g stroke="#000" stroke-linecap="butt" stroke-width="10"><path fill="#f1d244" d="M60 420h900V300L510 60 60 300v120Z"/><path fill="#fddf19" d="M60 360v-60L510 60l450 240v60L510 120 60 360Z"/></g><path fill="#f1d244" stroke="#000" stroke-linecap="butt" stroke-width="10" d="m60 480 450 240 450-240v-60H60v60Z"/><path fill="#adadad" stroke="#000" stroke-linecap="butt" stroke-width="10" d="M100 240v660h820V380L780 240H100Z"/><path fill="#ddd" stroke="#000" stroke-linecap="butt" stroke-width="10" d="M780 240v140h140L780 240Z"/><g fill="#fddf19" stroke="#000" stroke-linecap="butt" stroke-width="10"><path d="m60 960 450-240 450 240H60Z"/><path d="m510 720 450-240v480L510 720ZM60 480l450 240L60 960V480Z"/></g><path d="M189.818 495.186c-4.156 3.209-9.265 4.814-15.329 4.814-9.98 0-18.155-4.343-24.525-13.029-6.643-8.728-9.964-20.666-9.964-35.812 0-15.318 3.355-27.598 10.066-36.84 6.71-9.242 15.584-13.863 26.621-13.863 9.571 0 17.261 3.049 23.069 9.146 5.808 6.097 9.138 13.702 9.989 22.816h-15.482c-1.192-6.461-4.104-10.975-8.737-13.542-2.589-1.412-5.467-2.118-8.635-2.118-6.063 0-11.045 2.877-14.945 8.632-3.901 5.755-5.851 14.409-5.851 25.961 0 11.638 2.112 19.875 6.336 24.71 4.224 4.835 9.027 7.252 14.409 7.252 5.28 0 9.606-1.915 12.978-5.744 3.372-3.83 5.45-8.846 6.234-15.05h-17.424V446.73h31.373v50.767h-10.424l-1.584-11.809c-3.031 4.492-5.756 7.659-8.175 9.498Zm87.629-39.021h-36.584v24.324h41.694v17.008h-57.074v-94.602h55.234v16.751h-39.854v20.088h36.584v16.431Zm72.096-53.27v16.751H327.01v77.851h-15.84v-77.851h-22.635v-16.751h61.008Zm32.585 94.595L411.303 400h12.11l-29.278 97.49h-12.007Zm131.994.007v-42.231h-29.431v42.231h-15.585v-94.602h15.585v36.069h29.431v-36.069h15.635v94.602h-15.635Zm85.38-94.602v16.751h-22.533v77.851h-15.84v-77.851h-22.635v-16.751h61.008Zm63.921 0v16.751H640.89v77.851h-15.84v-77.851h-22.635v-16.751h61.008Zm41.183 60.586h-15.993v34.016h-15.635v-94.602h32.803c7.562 0 13.591 2.439 18.088 7.316 4.496 4.878 6.744 12.43 6.744 22.656 0 11.168-2.248 19.062-6.744 23.683-4.497 4.621-10.918 6.931-19.263 6.931Zm7.357-19.703c2.044-2.268 3.066-5.862 3.066-10.783 0-4.92-1.03-8.429-3.091-10.525-2.061-2.097-4.948-3.145-8.661-3.145h-14.664v27.854h14.664c3.713 0 6.609-1.133 8.686-3.401Zm89.315 53.719h-14.919v-64.181h-17.424v-12.451c4.599-.256 7.818-.641 9.657-1.155 2.93-.813 5.314-2.439 7.153-4.878 1.261-1.668 2.215-3.893 2.862-6.674.374-1.669.562-2.91.562-3.723h12.109v93.062Zm25.139-19.126h15.482v19.126h-15.482v-19.126Zm62.133 19.126h-14.92v-64.181h-17.424v-12.451c4.599-.256 7.818-.641 9.657-1.155 2.93-.813 5.314-2.439 7.154-4.878 1.26-1.668 2.214-3.893 2.861-6.674.375-1.669.562-2.91.562-3.723h12.11v93.062Z"/><path fill="#e94420" d="M158.812 309.535c-3.867 3.539-8.812 5.309-14.835 5.309-7.454 0-13.313-2.391-17.579-7.172-4.265-4.805-6.398-11.391-6.398-19.758 0-9.047 2.426-16.019 7.277-20.918 4.219-4.266 9.586-6.398 16.102-6.398 8.719 0 15.094 2.859 19.125 8.578 2.226 3.211 3.422 6.433 3.586 9.668h-10.828c-.703-2.485-1.606-4.36-2.707-5.625-1.969-2.25-4.887-3.375-8.754-3.375-3.938 0-7.043 1.588-9.317 4.763-2.273 3.176-3.41 7.67-3.41 13.483 0 5.812 1.201 10.166 3.604 13.06 2.402 2.895 5.455 4.342 9.158 4.342 3.797 0 6.691-1.242 8.684-3.726 1.101-1.336 2.015-3.34 2.742-6.012h10.722c-.937 5.648-3.328 10.242-7.172 13.781Zm38.356 5.309c-7.406 0-13.066-2.016-16.98-6.047-5.251-4.945-7.876-12.07-7.876-21.375 0-9.492 2.625-16.617 7.876-21.375 3.914-4.031 9.574-6.047 16.98-6.047 7.406 0 13.066 2.016 16.98 6.047 5.227 4.758 7.84 11.883 7.84 21.375 0 9.305-2.613 16.43-7.84 21.375-3.914 4.031-9.574 6.047-16.98 6.047Zm10.23-13.922c2.508-3.164 3.762-7.664 3.762-13.5 0-5.813-1.26-10.307-3.779-13.483-2.52-3.175-5.924-4.763-10.213-4.763-4.289 0-7.711 1.582-10.266 4.746-2.554 3.164-3.832 7.664-3.832 13.5s1.278 10.336 3.832 13.5c2.555 3.164 5.977 4.746 10.266 4.746s7.699-1.582 10.23-4.746Zm64.758 12.48h-10.828l-21.164-36.808v36.808h-10.09v-51.82h11.356l20.636 36.176v-36.176h10.09v51.82Zm46.828-42.644h-25.98v11.918h22.746v9h-22.746v21.726h-10.758v-51.75h36.738v9.106Zm6.399-9.176h10.758v51.82h-10.758v-51.82Zm43.172 51.82H346.23v-51.82h22.325c3.211.047 5.882.422 8.015 1.125 3.633 1.195 6.575 3.387 8.825 6.574 1.804 2.578 3.035 5.367 3.691 8.367.656 3 .984 5.86.984 8.579 0 6.89-1.382 12.726-4.148 17.507-3.75 6.446-9.539 9.668-17.367 9.668Zm8.05-38.601c-1.664-2.813-4.957-4.219-9.878-4.219h-9.985v33.82h9.985c5.109 0 8.671-2.519 10.687-7.558 1.102-2.766 1.652-6.059 1.652-9.879 0-5.274-.82-9.328-2.461-12.164Zm57.692 15.961h-25.172v13.324h28.687v9.316h-39.269v-51.82h38.004v9.176h-27.422v11.004h25.172v9Zm53.859 22.64h-10.828l-21.164-36.808v36.808h-10.09v-51.82h11.356l20.636 36.176v-36.176h10.09v51.82Zm47.742-51.82v9.176h-15.503v42.644h-10.899v-42.644h-15.574v-9.176h41.976Zm5.485 0h10.758v51.82h-10.758v-51.82Zm51.187 41.168h-19.09l-3.585 10.652h-11.321l18.492-51.82h12.235l18.351 51.82H595.91l-3.34-10.652Zm-3.023-8.93-6.469-20.39-6.68 20.39h13.149Zm24.68-32.238h10.828v42.504h25.664v9.316h-36.492v-51.82Z"/></svg>