<svg xmlns="http://www.w3.org/2000/svg" xml:space="preserve" stroke-miterlimit="10" style="fill-rule:nonzero;clip-rule:evenodd;stroke-linecap:round;stroke-linejoin:round" viewBox="0 0 1024 1024"><path stroke="#adadad" stroke-linecap="butt" stroke-width="5" d="M220 74.444C220 44.376 244.044 20 273.704 20h472.592C775.956 20 800 44.376 800 74.444v871.112c0 30.068-24.044 54.444-53.704 54.444H273.704c-29.66 0-53.704-24.376-53.704-54.444V74.444Z"/><g stroke-linecap="butt" stroke-width="5"><path fill="#5e5e5e" stroke="#000" d="M420 90c0-16.569 40.294-30 90-30s90 13.431 90 30c0 16.569-40.294 30-90 30s-90-13.431-90-30Z"/><path stroke="#303030" d="M500 90c0-5.523 4.477-10 10-10s10 4.477 10 10-4.477 10-10 10-10-4.477-10-10Zm40 0c0-5.523 4.477-10 10-10s10 4.477 10 10-4.477 10-10 10-10-4.477-10-10Zm-80 0c0-5.523 4.477-10 10-10s10 4.477 10 10-4.477 10-10 10-10-4.477-10-10Z"/></g><g stroke="#000" stroke-linecap="butt" stroke-width="5"><path fill="#68c40c" d="M260 590c0-16.569 31.34-30 70-30s70 13.431 70 30c0 16.569-31.34 30-70 30s-70-13.431-70-30Z"/><path fill="#8b8b8b" d="M260 510c0-16.569 31.34-30 70-30s70 13.431 70 30c0 16.569-31.34 30-70 30s-70-13.431-70-30Z"/><path fill="#e94420" d="M620 590c0-16.569 31.34-30 70-30s70 13.431 70 30c0 16.569-31.34 30-70 30s-70-13.431-70-30Z"/><path fill="#8b8b8b" d="M620 510c0-16.569 31.34-30 70-30s70 13.431 70 30c0 16.569-31.34 30-70 30s-70-13.431-70-30Zm-180 40c0-38.66 31.34-70 70-70s70 31.34 70 70-31.34 70-70 70-70-31.34-70-70Z"/><path fill="#ddd" d="M500 520v20h-20v20h20v20h20v-20h20v-20h-20v-20h-20Zm160-20h60v20h-60v-20Z"/><path fill="#f5891d" d="M660 580h60v20h-60v-20Z"/><path fill="#c2d047" d="M300 580h60v20h-60v-20Z"/><path fill="#ddd" d="M300 500h60v20h-60v-20Z"/></g><path fill="#8b8b8b" stroke="#000" stroke-linecap="butt" stroke-width="5" d="M260 770c0-16.569 31.34-30 70-30s70 13.431 70 30c0 16.569-31.34 30-70 30s-70-13.431-70-30Zm0 80c0-16.569 31.34-30 70-30s70 13.431 70 30c0 16.569-31.34 30-70 30s-70-13.431-70-30Zm0-160c0-16.569 31.34-30 70-30s70 13.431 70 30c0 16.569-31.34 30-70 30s-70-13.431-70-30Zm180 160c0-16.569 31.34-30 70-30s70 13.431 70 30c0 16.569-31.34 30-70 30s-70-13.431-70-30Zm0-80c0-16.569 31.34-30 70-30s70 13.431 70 30c0 16.569-31.34 30-70 30s-70-13.431-70-30Zm0-80c0-16.569 31.34-30 70-30s70 13.431 70 30c0 16.569-31.34 30-70 30s-70-13.431-70-30Zm180 160c0-16.569 31.34-30 70-30s70 13.431 70 30c0 16.569-31.34 30-70 30s-70-13.431-70-30Zm0-80c0-16.569 31.34-30 70-30s70 13.431 70 30c0 16.569-31.34 30-70 30s-70-13.431-70-30Zm0-80c0-16.569 31.34-30 70-30s70 13.431 70 30c0 16.569-31.34 30-70 30s-70-13.431-70-30ZM260 930c0-16.569 31.34-30 70-30s70 13.431 70 30c0 16.569-31.34 30-70 30s-70-13.431-70-30Zm180 0c0-16.569 31.34-30 70-30s70 13.431 70 30c0 16.569-31.34 30-70 30s-70-13.431-70-30Zm180 0c0-16.569 31.34-30 70-30s70 13.431 70 30c0 16.569-31.34 30-70 30s-70-13.431-70-30Z"/><path fill="#fff" d="M680.219 679.789c-1.914 1-2.831 2.336-2.751 4.008h-15.913c.16-1.688.898-3.289 2.214-4.805 1.396-1.328 3.589-2.554 6.58-3.68 2.233-.796 4.885-1.406 7.956-1.828 3.071-.422 6.84-.632 11.306-.632 8.295 0 14.985.839 20.07 2.519 5.085 1.68 7.627 3.934 7.627 6.762 0 2-1.515 3.687-4.546 5.062a22.828 22.828 0 0 1-5.982 1.758c1.555 0 3.788.524 6.7 1.57 4.347 1.579 6.52 3.735 6.52 6.469 0 2.875-2.542 5.403-7.627 7.582-5.085 2.18-12.612 3.27-22.582 3.27-12.284 0-20.818-1.571-25.604-4.711-2.512-1.672-3.908-3.86-4.187-6.563h16.75c0 1.36.558 2.485 1.675 3.375 2.074 1.641 5.842 2.461 11.306 2.461 3.35 0 6.271-.449 8.764-1.347 2.492-.899 3.738-2.192 3.738-3.879 0-2.235-2.313-3.727-6.939-4.477-2.632-.422-6.78-.633-12.443-.633v-4.781c5.544-.031 9.412-.242 11.606-.633 3.788-.656 5.683-1.984 5.683-3.984 0-1.297-.968-2.352-2.902-3.164-1.934-.813-4.656-1.219-8.165-1.219-4.028 0-6.979.5-8.854 1.5Zm-170.787 90.336c-2.074 0-3.869.102-5.384.305-2.672.375-4.686 1.07-6.042 2.086l-15.314-.282 6.102-18.773h47.796v5.672h-35.473l-3.111 7.429c2.632-.671 4.686-1.117 6.161-1.335 2.473-.36 5.484-.539 9.033-.539 7.179 0 13.44.945 18.784 2.835 5.344 1.891 8.016 4.641 8.016 8.25 0 3.141-2.572 5.946-7.717 8.415-5.144 2.468-12.841 3.703-23.091 3.703-8.255 0-15.034-.868-20.339-2.602-5.304-1.734-8.255-4.195-8.853-7.383h16.989c.678 1.453 1.974 2.574 3.888 3.364 1.915.789 4.706 1.183 8.375 1.183 4.228 0 7.448-.582 9.661-1.746 2.214-1.164 3.32-2.629 3.32-4.395 0-1.734-1.037-3.199-3.11-4.394-2.074-1.195-5.304-1.793-9.691-1.793Zm-159.821 73.813c-4.436 2.531-8.152 5.14-11.148 7.828-2.374 2.109-4.514 4.687-6.42 7.734-1.907 3.047-2.86 5.547-2.86 7.5h-17.276c.505-6.094 5.486-12.43 14.941-19.008 6.109-4.078 11.226-6.922 15.35-8.531H300l.233-6H360v5.227c-2.49.984-5.953 2.734-10.389 5.25Zm137.837 20.929c-4.965-2-7.448-4.429-7.448-7.289 0-1.906 1.102-3.633 3.307-5.18 2.204-1.546 5.432-2.71 9.682-3.492-4.171-1.094-6.882-2.277-8.133-3.551-1.251-1.273-1.877-2.464-1.877-3.574 0-2.469 2.364-4.574 7.091-6.316 4.726-1.742 11.4-2.613 20.019-2.613 8.62 0 15.293.871 20.02 2.613s7.091 3.847 7.091 6.316c0 1.11-.626 2.301-1.877 3.574-1.252 1.274-3.963 2.379-8.133 3.317 4.25.937 7.448 2.18 9.593 3.726 2.145 1.547 3.217 3.274 3.217 5.18 0 2.86-2.691 5.293-8.073 7.301-5.383 2.008-12.9 3.012-22.553 3.012-9.652 0-16.961-1.008-21.926-3.024Zm10.189-7.734c0 1.672 1.102 2.969 3.306 3.89 2.205.922 5.254 1.383 9.146 1.383 3.893 0 6.942-.461 9.146-1.383 2.205-.921 3.307-2.218 3.307-3.89 0-1.735-1.122-3.051-3.366-3.949-2.245-.899-5.273-1.348-9.087-1.348-3.813 0-6.842.449-9.086 1.348-2.244.898-3.366 2.214-3.366 3.949Zm4.468-11.578c1.907.781 4.568 1.172 7.984 1.172 3.456 0 6.127-.391 8.014-1.172 1.887-.782 2.83-1.789 2.83-3.024 0-1.344-.943-2.394-2.83-3.152s-4.558-1.137-8.014-1.137c-3.416 0-6.087.379-8.014 1.137-1.926.758-2.889 1.808-2.889 3.152 0 1.235.973 2.242 2.919 3.024Zm191.548-80.61c7.704 0 14.022 1.024 18.952 3.071 4.93 2.047 7.395 4.664 7.395 7.851 0 3.172-2.415 5.969-7.246 8.391-4.83 2.422-12.335 3.633-22.514 3.633-10.939 0-19.002-1.789-24.192-5.368-4.032-2.796-6.048-6.406-6.048-10.828 0-2.593.279-4.703.838-6.328.998-2.89 2.934-5.297 5.809-7.219 2.475-1.64 5.718-2.96 9.73-3.96 4.012-1.001 8.813-1.5 14.401-1.5 8.064 0 14.491.808 19.282 2.425 4.79 1.617 7.485 3.77 8.084 6.457h-17.006c0-.547-.539-1.148-1.617-1.804-1.836-1.063-4.611-1.594-8.323-1.594-5.549 0-9.501 1.219-11.857 3.656-1.277 1.344-2.155 3.328-2.634 5.953 2.115-.984 4.57-1.703 7.365-2.156 2.794-.453 5.988-.68 9.581-.68Zm-11.497 6.375c-3.354 1.016-5.03 2.657-5.03 4.922 0 1.828 1.257 3.32 3.772 4.477 2.515 1.156 5.709 1.734 9.581 1.734 3.792 0 6.776-.558 8.952-1.676 2.176-1.117 3.264-2.566 3.264-4.347 0-1.985-1.238-3.504-3.713-4.559-2.475-1.055-5.509-1.582-9.102-1.582-2.914 0-5.489.344-7.724 1.031ZM356.147 923.077l4.117 6.985-18.657 3.094 12.175 9.328-11.212 4.265-12.175-8.812-12.526 8.812-11.211-4.265 12.263-9.328-18.657-3.094 4.116-6.985 18.307 3.188v-11.297h15.153v11.297l18.307-3.188ZM510 947.844c-11.08 0-18.85-1.516-23.31-4.547-4.46-3.031-6.69-7.352-6.69-12.961s2.23-9.938 6.69-12.984c4.46-3.047 12.23-4.571 23.31-4.571 11.08 0 18.86 1.524 23.34 4.571 4.44 3.046 6.66 7.375 6.66 12.984s-2.23 9.93-6.69 12.961c-4.46 3.031-12.23 4.547-23.31 4.547Zm10.02-8.555c1.56-2.062 2.34-5.047 2.34-8.953 0-4.094-.79-7.125-2.37-9.094-1.58-1.969-4.91-2.953-9.99-2.953s-8.44.984-10.08 2.953c-1.64 1.969-2.46 5-2.46 9.094 0 3.906.82 6.894 2.46 8.965 1.64 2.07 5 3.105 10.08 3.105s8.42-1.039 10.02-3.117Zm168.016-71.305c-6.469 0-12.282-.754-17.441-2.261-5.158-1.508-8.115-3.707-8.869-6.598h16.905c.397 1 1.468 1.812 3.214 2.437 1.746.626 4.068.938 6.965.938 5.595 0 9.523-1.219 11.785-3.656 1.23-1.344 2.004-3.305 2.322-5.883a22.733 22.733 0 0 1-4.941 1.758c-3.174.75-7.083 1.125-11.726 1.125-6.865 0-12.956-.934-18.274-2.801-5.317-1.867-7.976-4.559-7.976-8.074 0-3.641 2.669-6.59 8.006-8.848 5.337-2.258 12.272-3.387 20.804-3.387 13.134 0 22.142 2.289 27.023 6.868 2.778 2.593 4.167 6.007 4.167 10.242 0 4.109-1.329 7.539-3.988 10.289-5.079 5.234-14.405 7.851-27.976 7.851Zm-5.953-28.711c-3.254 1-4.881 2.696-4.881 5.086 0 2.016 1.042 3.528 3.125 4.536 2.084 1.007 5.288 1.511 9.613 1.511 2.342 0 4.544-.265 6.608-.797 3.849-.968 5.773-2.648 5.773-5.039 0-1.922-1.14-3.445-3.422-4.57-2.282-1.125-5.407-1.688-9.375-1.688-2.897 0-5.377.321-7.441.961Zm-4.827 87.571h-10.765l2.374-3.938h10.766l5.752-9.445h10.501l-5.752 9.445h8.76l5.593-9.445h10.502l-5.594 9.445H720l-2.375 3.938h-10.607l-4.274 6.844h10.765l-2.374 3.937h-10.766L694.723 947h-10.501l5.646-9.375h-8.654L675.462 947H664.96l5.752-9.375H660l2.375-3.937h10.712l4.169-6.844Zm14.987 6.844 4.274-6.844h-8.76l-4.116 6.844h8.602ZM519.154 679.93c-2.054-.953-4.995-1.43-8.822-1.43-5.236 0-8.801.758-10.695 2.273-1.087.875-1.732 2.266-1.933 4.172h-16.737c.282-2.89 1.631-5.226 4.048-7.007 4.592-3.391 12.749-5.086 24.471-5.086 9.265 0 16.637.996 22.115 2.988 5.479 1.992 8.218 4.629 8.218 7.91 0 2.516-1.934 4.75-5.801 6.703-2.538 1.297-6.707 2.742-12.507 4.336l-6.889 1.899c-4.31 1.187-7.26 2.046-8.852 2.578-1.591.531-2.93 1.148-4.018 1.851H540V707h-60c.161-2.438 1.511-4.664 4.048-6.68 2.458-2.265 8.258-4.664 17.402-7.195 7.936-2.203 13.072-3.781 15.408-4.734 3.585-1.485 5.378-3.11 5.378-4.875 0-1.438-1.028-2.633-3.082-3.586ZM360 774.461v5.227h-9.676V787h-16.46v-7.312H300v-5.836l31.445-20.625h18.879v21.234H360Zm-47.552 0h21.416v-14.672l-21.416 14.672ZM360 707h-27.678v-23.438H300v-4.546c8.531-.094 14.502-.235 17.915-.422 5.434-.297 9.858-.891 13.27-1.782 2.338-.609 4.107-1.421 5.308-2.437.695-.609 1.043-1.062 1.043-1.359H360V707Z"/><g stroke="#000" stroke-linecap="butt"><path fill="#68c40c" stroke-width="5" d="M260 189.167C260 173.058 272.166 160 287.174 160h445.652C747.834 160 760 173.058 760 189.167v221.666C760 426.942 747.834 440 732.826 440H287.174C272.166 440 260 426.942 260 410.833V189.167Z"/><path fill="#fddf19" stroke-width="7" d="M600 340h20v20h-20v-20Zm0 20h20v20h-20v-20Zm20 20h20v20h-20v-20Zm60-80h20v20h-20v-20Zm-20 0h20v20h-20v-20Zm20-20h20v20h-20v-20Zm0 100h20v20h-20v-20Zm20-80h20v20h-20v-20Zm-20 40h20v20h-20v-20Zm0 20h20v20h-20v-20Zm-60 0h20v20h-20v-20Zm20 0h20v20h-20v-20Zm60-20h20v20h-20v-20Zm-20-20h20v20h-20v-20Zm-20 60h20v20h-20v-20Zm0-20h20v20h-20v-20Zm-40-20h20v20h-20v-20Zm20 40h20v20h-20v-20Zm60-20h20v20h-20v-20Zm0-40h20v20h-20v-20Zm-60-120h20v20h-20v-20Zm-40 20h20v20h-20v-20Zm20 20h20v20h-20v-20Zm60-20h20v20h-20v-20Zm0-20h20v20h-20v-20Zm-40 100h20v20h-20v-20Zm-20-20h20v20h-20v-20Zm40 0h20v20h-20v-20Zm0-60h20v20h-20v-20Zm-20 0h20v20h-20v-20Zm-20-20h20v20h-20v-20Zm-20 60h20v20h-20v-20Zm60-60h20v20h-20v-20Zm40 20h20v20h-20v-20Zm-80 40h20v20h-20v-20Zm60-20h20v20h-20v-20Zm-80 0h20v20h-20v-20Zm40 40h20v20h-20v-20Zm-20-60h20v20h-20v-20Zm80 20h20v20h-20v-20Zm-260 20h20v20h-20v-20Zm0 40h20v20h-20v-20Zm0 20h20v20h-20v-20Zm0-100h20v20h-20v-20Zm0-20h20v20h-20v-20Zm0 180h20v20h-20v-20Zm0-20h20v20h-20v-20Zm20 20h20v20h-20v-20Zm-20-140h20v20h-20v-20Zm20 20h20v20h-20v-20Zm0 40h20v20h-20v-20Zm0 20h20v20h-20v-20Zm0-80h20v20h-20v-20Zm0-20h20v20h-20v-20Zm0 120h20v20h-20v-20Zm0 20h20v20h-20v-20Zm-20-80h20v20h-20v-20Zm0 60h20v20h-20v-20Zm20-60h20v20h-20v-20Zm0-80h20v20h-20v-20Zm80 60h20v20h-20v-20Zm0 40h20v20h-20v-20Zm0 20h20v20h-20v-20Zm0-100h20v20h-20v-20Zm0-20h20v20h-20v-20Zm0 180h20v20h-20v-20Zm0-20h20v20h-20v-20Zm20 20h20v20h-20v-20Zm-20-140h20v20h-20v-20Zm20 20h20v20h-20v-20Zm0 40h20v20h-20v-20Zm0 20h20v20h-20v-20Zm0-80h20v20h-20v-20Zm0-20h20v20h-20v-20Zm0 120h20v20h-20v-20Zm0 20h20v20h-20v-20Zm-20-80h20v20h-20v-20Zm0 60h20v20h-20v-20Zm20-60h20v20h-20v-20Zm0-80h20v20h-20v-20Zm-80 40h20v20h-20v-20Zm40 100h20v20h-20v-20Zm-20-40h20v20h-20v-20Zm0-20h20v20h-20v-20Zm20 40h20v20h-20v-20Zm0-20h20v20h-20v-20Zm-40-40h20v20h-20v-20Zm0 20h20v20h-20v-20Zm-100-60h20v20h-20v-20Zm-40-20h20v20h-20v-20Zm20 20h20v20h-20v-20Zm20 20h20v20h-20v-20Zm-40 140h20v20h-20v-20Zm20-20h20v20h-20v-20Zm20-20h20v20h-20v-20Zm20-80h20v20h-20v-20Zm0 20h20v20h-20v-20Zm0 20h20v20h-20v-20Zm0 20h20v20h-20v-20Zm-40 60h20v20h-20v-20Zm0-180h20v20h-20v-20Zm20 160h20v20h-20v-20Zm-40-140h20v20h-20v-20Zm40 100h20v20h-20v-20Zm0-60h20v20h-20v-20Zm20-20h20v20h-20v-20Zm0 100h20v20h-20v-20Zm-20-60h20v20h-20v-20Zm0 20h20v20h-20v-20Zm-40 60h20v20h-20v-20Zm-40-100h20v20h-20v-20Zm0 40h20v20h-20v-20Zm0 20h20v20h-20v-20Zm0-100h20v20h-20v-20Zm0-20h20v20h-20v-20Zm0 180h20v20h-20v-20Zm0-20h20v20h-20v-20Zm20 20h20v20h-20v-20Zm-20-140h20v20h-20v-20Zm20 20h20v20h-20v-20Zm0 40h20v20h-20v-20Zm0 20h20v20h-20v-20Zm0-80h20v20h-20v-20Zm0-20h20v20h-20v-20Zm0 120h20v20h-20v-20Zm0 20h20v20h-20v-20Zm-20-80h20v20h-20v-20Zm0 60h20v20h-20v-20Zm20-60h20v20h-20v-20Zm0-80h20v20h-20v-20Z"/></g></svg>