<svg xmlns="http://www.w3.org/2000/svg" xml:space="preserve" stroke-miterlimit="10" style="fill-rule:nonzero;clip-rule:evenodd;stroke-linecap:round;stroke-linejoin:round" viewBox="0 0 1024 1024"><path fill="#e8cd1b" stroke="#000" stroke-linecap="butt" stroke-width="5" d="m681.217 759.426-17.504 56.467c-9.667 31.187 6.022 63.761 35.043 72.757 29.021 8.996 60.384-8.993 70.051-40.179 9.667-31.186-6.022-63.76-35.043-72.756l-52.547-16.289Z"/><path fill="#bfa913" stroke="#000" stroke-linecap="butt" stroke-width="5" d="m681.217 759.426-17.504 56.467 52.547 16.289c-14.51-4.498-22.355-20.785-17.521-36.378 4.833-15.593 20.515-24.587 35.025-20.089l-52.547-16.289Z"/><path fill="#fddf19" stroke="#000" stroke-linecap="butt" stroke-width="5" d="M794.959 206.695c-32.193-2.869-55.743 11.526-66.496 31.61-.019.041-.021.092-.041.133-.015.029-.052.045-.068.075-1.301 2.685-2.533 5.416-3.447 8.361l52.547 16.289c14.511 4.498 22.356 20.785 17.522 36.378-.563 1.817-1.295 3.514-2.134 5.141-.007.013-.006.031-.013.044-.327.631-.731 1.188-1.095 1.788-.017.029-.051.047-.068.076-.553.905-1.092 1.826-1.724 2.657-.492.646-1.023 1.239-1.559 1.838l-.137.151c-.605.667-1.206 1.332-1.861 1.937-.015.014-.039.018-.054.032a30.027 30.027 0 0 1-1.834 1.559c-.066.052-.152.074-.219.125a28.46 28.46 0 0 1-2.011 1.408c-.714.458-1.415.922-2.161 1.312-.028.015-.069.005-.096.019-.771.4-1.554.734-2.354 1.06-.744.303-1.477.615-2.243.851-.938.29-1.898.475-2.86.661-.084.016-.163.054-.246.069-.563.104-1.114.282-1.683.349-.046.005-.092.001-.137.006a26.01 26.01 0 0 1-5.063.074 25.781 25.781 0 0 1-5.474-1.068c-140.125-43.436-280.416-86.342-420.376-130.31l-70.016 225.871-17.504 56.467-61.264 197.637c-9.667 31.186 6.022 63.76 35.043 72.756l183.914 57.011 105.094 32.577 183.915 57.011c-29.021-8.996-44.71-41.57-35.043-72.757l17.504-56.467 43.76-141.169 17.504-56.468 87.52-282.338c9.668-31.186-6.022-63.76-35.042-72.756Z"/><path fill="#bfa913" stroke="#000" stroke-linecap="butt" stroke-width="5" d="M724.907 246.874c-9.667 31.186 6.022 63.76 35.043 72.756 1.814.562 3.647.914 5.474 1.068 12.788 1.079 25.323-7.513 29.552-21.157 4.834-15.593-3.011-31.88-17.522-36.378l-52.547-16.289Z"/><path fill="#fddf19" stroke="#000" stroke-linecap="butt" stroke-width="5" d="M759.95 319.63c-67.191-35.214-38.824-119.515 35.009-112.935-140.126-43.437-279.968-87.797-420.377-130.31-62.369-18.884-99.302 68.677-47.127 107.38 3.592 2.664 7.884 4.225 12.119 5.555 139.96 43.968 280.251 86.874 420.376 130.31Z"/><path stroke="#000" stroke-linecap="butt" stroke-width="5" d="M698.722 888.974c31.286 10.92 56.877-11.74 66.823-40.235 4.855-13.911.145-45.075-10.277-58.184-10.927-13.744-51.497-23.142-51.497-23.142l-21.452-7.67s-12.544 40.065-18.124 56.05c-9.946 28.495 3.242 62.26 34.527 73.181Zm25.046-641.933c9.825-31.647 46.828-47.217 75.651-38.268 14.071 4.368 26.776 18.133 31.117 34.308 4.552 16.958-10.304 63.955-10.304 63.955l-9.764 27.817s-29.251-9.326-45.421-14.347c-28.823-8.949-51.105-41.818-41.279-73.465Z" opacity=".236"/><path d="m433.667 385.6 10.123-32.656-26.602-8.246-10.123 32.656-14.086-4.367 22.676-73.154 14.087 4.367-8.647 27.892 26.602 8.246 8.646-27.892 14.133 4.381-22.677 73.154-14.132-4.381Zm99.85-49.232-4.016 12.954-20.367-6.314-18.661 60.201-14.317-4.438 18.661-60.201-20.459-6.342 4.015-12.953 55.144 17.093Zm57.776 17.91-4.015 12.953-20.368-6.313-18.661 60.201-14.317-4.438 18.661-60.201-20.459-6.342 4.015-12.954 55.144 17.094Zm22.701 58.389-14.455-4.481-8.154 26.304-14.132-4.381 22.676-73.154 29.65 9.191c6.836 2.119 11.701 5.694 14.596 10.726 2.895 5.032 3.116 11.501.665 19.409-2.677 8.636-6.601 14.11-11.773 16.424-5.172 2.313-11.529 2.301-19.073-.038Zm11.374-13.174c2.391-1.181 4.176-3.674 5.355-7.479 1.18-3.805 1.089-6.807-.271-9.006-1.36-2.198-3.718-3.818-7.074-4.858l-13.255-4.109-6.677 21.539 13.255 4.109c3.356 1.041 6.245.975 8.667-.196Zm12.525 54.963c-1.313 2.276-3.001 4.074-5.063 5.393-2.227 1.413-4.592 2.267-7.096 2.56-2.504.294-4.172.312-5.003.054l1.692-5.459c2.894.027 5.252-.693 7.073-2.159 1.821-1.467 3.342-3.842 4.563-7.127l-7.99-2.476 4.585-14.79 14.224 4.409-3.969 12.805c-.697 2.25-1.703 4.513-3.016 6.79Zm-230.331 4.336c2.474 7.041 2.501 14.465.081 22.274-2.462 7.941-6.691 14.073-12.689 18.397-5.997 4.324-13.322 5.145-21.974 2.463-8.652-2.681-14.228-7.502-16.728-14.46-2.5-6.958-2.52-14.408-.058-22.349 2.42-7.808 6.642-13.916 12.666-18.322 6.023-4.407 13.36-5.27 22.012-2.588 8.652 2.682 14.215 7.544 16.69 14.585Zm-20.444-2.638c-3.848-1.193-7.266-.648-10.252 1.636-2.986 2.284-5.32 6.139-7.002 11.565-1.682 5.426-1.94 9.934-.774 13.523 1.165 3.589 3.672 5.98 7.521 7.173 3.848 1.193 7.261.637 10.236-1.669 2.976-2.305 5.305-6.171 6.987-11.597 1.682-5.426 1.945-9.923.79-13.49-1.155-3.568-3.657-5.948-7.506-7.141Zm59.624 21.583c-5.295-1.642-9.426-.891-12.391 2.251-1.662 1.77-3.165 4.822-4.509 9.156l-8.015 25.857-13.255-4.109 16.769-54.096 12.562 3.894-2.923 9.43c3.15-2.977 5.685-4.893 7.603-5.749 3.151-1.453 6.696-1.569 10.637-.347.247.076.452.149.616.218.164.069.534.211 1.109.425l-4.493 14.492a35.074 35.074 0 0 0-3.71-1.422Zm62.271 16.474c-4.464-1.384-8.159-.299-11.083 3.256-1.529 1.883-2.811 4.495-3.847 7.837l-9.077 29.282-13.116-4.066 16.738-53.997 12.701 3.937-2.446 7.891c2.555-2.254 4.776-3.76 6.665-4.516 3.386-1.344 7.157-1.372 11.314-.083 5.203 1.612 9.006 4.396 11.408 8.35 2.402 3.954 2.552 9.323.45 16.106l-11.292 36.428-13.486-4.181 10.2-32.904c.882-2.846 1.205-5.139.968-6.881-.431-3.18-2.464-5.333-6.097-6.459Zm77.188 19.956c2.475 7.041 2.502 14.466.081 22.274-2.461 7.941-6.691 14.073-12.688 18.397-5.998 4.325-13.323 5.146-21.975 2.464-8.651-2.682-14.227-7.502-16.728-14.461-2.5-6.958-2.519-14.407-.058-22.348 2.421-7.809 6.643-13.916 12.666-18.323 6.023-4.407 13.361-5.269 22.012-2.588 8.652 2.682 14.215 7.544 16.69 14.585Zm-20.443-2.638c-3.849-1.193-7.266-.648-10.252 1.636-2.986 2.284-5.32 6.139-7.002 11.565-1.682 5.427-1.941 9.934-.775 13.523 1.165 3.589 3.672 5.98 7.521 7.173 3.849 1.193 7.261.637 10.237-1.668 2.975-2.306 5.304-6.171 6.986-11.597 1.682-5.427 1.946-9.924.79-13.491-1.155-3.568-3.657-5.948-7.505-7.141Zm47.761 51.851-3.277 10.571-6.312-1.685c-6.291-1.696-10.181-4.171-11.67-7.425-.975-2.08-.94-4.807.107-8.181l10.322-33.302-7.019-2.176 3.123-10.075 7.019 2.176 4.677-15.087 13.024 4.037-4.677 15.087 8.175 2.534-3.123 10.075-8.175-2.534-8.861 28.587c-.687 2.217-.854 3.679-.5 4.387.355.709 1.871 1.478 4.55 2.308a36.605 36.605 0 0 0 2.617.703Zm-276.965 58.259 10.123-32.656-26.602-8.246-10.123 32.656-14.086-4.367 22.677-73.154 14.086 4.367-8.646 27.892 26.602 8.246 8.646-27.892 14.132 4.381-22.676 73.154-14.133-4.381Zm99.85-49.232-4.015 12.954-20.367-6.314-18.661 60.201-14.317-4.438 18.661-60.201-20.46-6.342 4.016-12.953 55.143 17.093Zm57.776 17.91-4.015 12.953-20.367-6.313-18.661 60.201-14.317-4.438 18.661-60.201-20.459-6.342 4.015-12.954 55.143 17.094Zm22.702 58.389-14.456-4.481-8.154 26.304-14.132-4.381 22.677-73.154 29.65 9.191c6.835 2.119 11.7 5.694 14.595 10.726 2.895 5.032 3.117 11.501.666 19.409-2.677 8.636-6.602 14.11-11.773 16.424-5.172 2.313-11.53 2.301-19.073-.038Zm11.373-13.174c2.391-1.181 4.176-3.674 5.356-7.479 1.179-3.805 1.089-6.807-.271-9.006-1.36-2.198-3.718-3.818-7.075-4.858l-13.254-4.109-6.677 21.54 13.255 4.108c3.356 1.041 6.245.975 8.666-.196ZM580 667.51c-.76 1.143-1.565 3.033-2.416 5.671l-12.47-3.866c1.918-5.534 3.608-9.244 5.07-11.13 1.462-1.886 4.287-3.703 8.474-5.452l4.248-1.784c1.385-.549 2.581-1.249 3.586-2.097 1.796-1.438 3.032-3.249 3.709-5.433.78-2.515.805-5.018.076-7.511-.729-2.492-2.91-4.302-6.544-5.428-3.571-1.107-6.498-.618-8.781 1.466-2.283 2.085-3.851 4.501-4.702 7.247l-13.347-4.138c3.292-9.315 8.428-15.049 15.406-17.201 4.412-1.388 9.267-1.262 14.562.38 6.959 2.157 12.186 5.735 15.681 10.736 3.495 5 4.156 11.007 1.981 18.021-1.333 4.302-3.457 7.614-6.371 9.939-1.724 1.424-4.679 3.01-8.866 4.758l-4.125 1.714c-2.247.935-3.971 2.305-5.171 4.108Zm-8 27.113-13.763-4.266 4.446-14.343 13.763 4.267L572 694.623Z"/></svg>