<svg xmlns="http://www.w3.org/2000/svg" xml:space="preserve" stroke-miterlimit="10" style="fill-rule:nonzero;clip-rule:evenodd;stroke-linecap:round;stroke-linejoin:round" viewBox="0 0 1024 1024"><g stroke="#000" stroke-linecap="butt"><g stroke-width="10"><path fill="#f1d244" d="M60 420h900V300L510 60 60 300v120Z"/><path fill="#fddf19" d="M60 360v-60L510 60l450 240v60L510 120 60 360Z"/></g><path fill="#f1d244" stroke-width="10" d="m60 480 450 240 450-240v-60H60v60Z"/><path fill="#ef9f46" stroke-width="10" d="M509.982 220c-104.934 0-190 120.883-190 270 0 8.623.35 17.115.906 25.531-37.856 28.042-60.906 64.502-60.906 104.469 0 88.366 111.929 160 250 160s250-71.634 250-160c0-39.967-23.05-76.427-60.906-104.469.556-8.416.906-16.908.906-25.531 0-149.117-85.066-270-190-270Z"/><g fill="#ef9f46" stroke-width="10"><path d="M739.946 358.462c27.052-5.548 53.478 11.884 59.026 38.935 4.898 23.884-8.145 47.241-29.878 56.212 2.159 23.309-6.21 43.063-20.613 46.016-16.231 3.329-33.886-15.902-39.434-42.953l-8.036-39.184c-5.548-27.052 11.884-53.478 38.935-59.026Z"/><path d="M777.371 391.619s-11.872-11.341-23.61-15.574c-8.1-2.921-19.593 4.018-19.593 4.018s-14.86 6.905-15.574 23.61c-.88 20.597 12.055 58.777 12.055 58.777"/><path d="m722.612 423.266 18.131-14.244c8.791-6.908 21.054 6.207 21.054 6.207"/></g><g fill="#ef9f46" stroke-width="10"><path d="M277.567 358.374c-27.296-4.185-52.816 14.549-57.001 41.844-3.696 24.099 10.502 46.774 32.657 54.644-.988 23.388 8.359 42.697 22.892 44.926 16.378 2.511 33.047-17.58 37.232-44.875l6.063-39.538c4.186-27.295-14.548-52.815-41.843-57.001Z"/><path d="M241.85 393.365s11.289-11.922 22.801-16.738c7.943-3.323 19.769 3.032 19.769 3.032s15.187 6.152 16.737 22.8c1.911 20.527-9.094 59.307-9.094 59.307"/><path d="m298.126 422.228-18.822-13.318c-9.126-6.458-20.716 7.255-20.716 7.255"/></g><path stroke-width="10" d="M509.982 360c-82.64 0-156.601 21.111-207.237 54.406-1.654 11.629-2.763 23.457-2.763 35.594 0 21.243 2.849 41.721 7.771 61.25C358.209 479.809 430.013 460 509.982 460c79.968 0 151.772 19.809 202.228 51.25 4.922-19.528 7.772-40.007 7.772-61.25 0-12.137-1.11-23.965-2.763-35.594C666.583 381.111 592.622 360 509.982 360Z"/><g fill="#ef9f46" stroke-width="10"><path d="M465.419 509.526c-2.128.821-4.264 1.797-6.375 3.063-14.735 8.837-22.581 25.289-17.531 36.75 3.794 8.61 13.794 11.951 24.781 9.333-5.079-7.304-8.093-15.983-8.093-25.339 0-8.737 2.741-16.815 7.218-23.807Zm85.344-.365c4.62 7.071 7.438 15.286 7.438 24.172 0 9.516-3.074 18.361-8.313 25.74 10.304 2.893 19.844.358 23.969-7.583 5.725-11.021-1.143-28.081-15.313-38.099-2.557-1.809-5.169-3.123-7.781-4.23Z"/><path d="M508.201 440c-16.569 0-30 20.893-30 46.667 0 3.121.186 6.164.562 9.114a47.886 47.886 0 0 0-13.344 13.745c-4.477 6.992-7.218 15.07-7.218 23.807 0 9.356 3.014 18.035 8.093 25.339C475.207 571.489 490.61 580 508.201 580c17.419 0 32.736-8.319 41.687-20.927 5.239-7.379 8.313-16.224 8.313-25.74 0-8.886-2.818-17.101-7.438-24.172-.009-.013-.022-.023-.031-.036-3.418-5.219-7.854-9.74-13.125-13.344.376-2.95.594-5.993.594-9.114 0-25.774-13.432-46.667-30-46.667Z"/></g><g stroke-width="10"><path fill="#fff" d="M399.982 420c0-22.091 17.908-40 40-40 22.091 0 40 17.909 40 40s-17.909 40-40 40c-22.092 0-40-17.909-40-40Z"/><path d="M419.982 420c0-11.046 8.954-20 20-20 11.045 0 20 8.954 20 20s-8.955 20-20 20c-11.046 0-20-8.954-20-20Z"/><path fill="#fff" d="M439.982 410c0-5.523 4.477-10 10-10s10 4.477 10 10-4.477 10-10 10-10-4.477-10-10Z"/></g><g stroke-width="10"><path fill="#fff" d="M539.982 420c0-22.091 17.908-40 40-40 22.091 0 40 17.909 40 40s-17.909 40-40 40c-22.092 0-40-17.909-40-40Z"/><path d="M559.982 420c0-11.046 8.954-20 20-20 11.045 0 20 8.954 20 20s-8.955 20-20 20c-11.046 0-20-8.954-20-20Z"/><path fill="#fff" d="M579.982 410c0-5.523 4.477-10 10-10s10 4.477 10 10-4.477 10-10 10-10-4.477-10-10Z"/></g><path fill="none" stroke-width="30" d="m399.982 340 40-20h40m140 20-40-20h-40"/><path stroke-width="10" d="m542.804 370.344 76.953 14.235-4.032 21.801-76.954-14.235 4.033-21.801Zm-143.606 12.347L479.237 380l.745 22.158-80.039 2.692-.745-22.159Z"/><g stroke-width="10"><path fill="#fff" d="M424.982 600h42.5v40h-42.5v-40Z"/><path fill="#fddf19" d="M467.482 600h42.5v40h-42.5v-40Z"/><path fill="#fff" d="M339.982 560h42.5v40h-42.5v-40Zm42.5 20h42.5v40h-42.5v-40Zm0 40h42.5v40h-42.5v-40Zm-42.5-20h42.5v40h-42.5v-40Zm127.5 40h42.5v40h-42.5v-40Zm-42.5 0h42.5v40h-42.5v-40Zm170 0h-42.5v40h42.5v-40Z"/><path fill="#fff" d="M552.482 640h-42.5v40h42.5v-40Zm127.5-40h-42.5v40h42.5v-40Zm-42.5 20h-42.5v40h42.5v-40Zm0-40h-42.5v40h42.5v-40Zm42.5-20h-42.5v40h42.5v-40Zm-127.5 40h-42.5v40h42.5v-40Zm42.5 0h-42.5v40h42.5v-40Z"/></g><g stroke-width="10"><path fill="#5e5e5e" d="M466.97 103.46c-81.86 12.723-141.601 65.628-133.436 118.166.749 4.818 2.218 9.391 4.014 13.849 9.373 23.267 32.287 41.402 62.871 51.635 27.983-9.691 58.719-17.558 91.572-22.664 32.852-5.106 64.527-6.939 94.131-6.199 26.035-19.033 42.364-43.268 44.233-68.281.358-4.793.369-9.596-.38-14.415-8.165-52.537-81.145-84.814-163.005-72.091Z"/><path fill="#303030" d="M476.184 162.748c-66.105 10.275-122.025 40.331-157.417 79.526.463 11.697 1.393 23.523 3.257 35.515 3.262 20.991 8.687 40.873 15.623 59.558 35.532-37.342 89.927-65.843 153.896-75.785 63.968-9.942 124.448.704 169.637 25.5.938-19.909.072-40.499-3.19-61.49-1.864-11.993-4.568-23.543-7.677-34.828-45.618-26.605-108.023-38.27-174.129-27.996Z"/></g><g fill="#fddf19" stroke-width="10"><path d="m60 960 450-240 450 240H60Z"/><path d="m510 720 450-240v480L510 720ZM60 480l450 240L60 960V480Z"/></g><g stroke-width="10"><path fill="#ef9f46" d="M820 548c0-26.51 17.909-48 40-48s40 21.49 40 48v24c0 26.51-17.909 48-40 48s-40-21.49-40-48v-24Zm-80 37.714C740 560.467 757.909 540 780 540s40 20.467 40 45.714v68.572C820 679.533 802.091 700 780 700s-40-20.467-40-45.714v-68.572Zm-160 47.619C580 603.878 597.909 580 620 580s40 23.878 40 53.333v53.334C660 716.122 642.091 740 620 740s-40-23.878-40-53.333v-53.334ZM660 605c0-24.853 17.909-45 40-45s40 20.147 40 45v90c0 24.853-17.909 45-40 45s-40-20.147-40-45v-90Z"/><path fill="#f5891d" d="M760 660c0-11.046 8.954-20 20-20s20 8.954 20 20-8.954 20-20 20-20-8.954-20-20Zm-160 40c0-11.046 8.954-20 20-20s20 8.954 20 20-8.954 20-20 20-20-8.954-20-20Zm80 0c0-11.046 8.954-20 20-20s20 8.954 20 20-8.954 20-20 20-20-8.954-20-20Zm160-120c0-11.046 8.954-20 20-20s20 8.954 20 20-8.954 20-20 20-20-8.954-20-20Z"/></g><g stroke-width="10"><path fill="#ef9f46" d="M200 548c0-26.51-17.909-48-40-48s-40 21.49-40 48v24c0 26.51 17.909 48 40 48s40-21.49 40-48v-24Zm80 37.714C280 560.467 262.091 540 240 540s-40 20.467-40 45.714v68.572C200 679.533 217.909 700 240 700s40-20.467 40-45.714v-68.572Zm160 47.619C440 603.878 422.091 580 400 580s-40 23.878-40 53.333v53.334C360 716.122 377.909 740 400 740s40-23.878 40-53.333v-53.334ZM360 605c0-24.853-17.909-45-40-45s-40 20.147-40 45v90c0 24.853 17.909 45 40 45s40-20.147 40-45v-90Z"/><path fill="#f5891d" d="M260 660c0-11.046-8.954-20-20-20s-20 8.954-20 20 8.954 20 20 20 20-8.954 20-20Zm160 40c0-11.046-8.954-20-20-20s-20 8.954-20 20 8.954 20 20 20 20-8.954 20-20Zm-80 0c0-11.046-8.954-20-20-20s-20 8.954-20 20 8.954 20 20 20 20-8.954 20-20ZM180 580c0-11.046-8.954-20-20-20s-20 8.954-20 20 8.954 20 20 20 20-8.954 20-20Z"/></g></g></svg>