<svg xmlns="http://www.w3.org/2000/svg" xml:space="preserve" stroke-miterlimit="10" style="fill-rule:nonzero;clip-rule:evenodd;stroke-linecap:round;stroke-linejoin:round" viewBox="0 0 2048 1024"><defs><linearGradient id="b" x1="460" x2="1060" y1="600" y2="600" gradientTransform="translate(0 20)" gradientUnits="userSpaceOnUse"><stop offset="0" stop-color="#f19d84"/><stop offset="1" stop-color="#996b3b"/></linearGradient><linearGradient id="c" x1="440" x2="520" y1="280" y2="280" gradientTransform="translate(0 20)" gradientUnits="userSpaceOnUse"><stop offset="0" stop-color="#f19d84"/><stop offset="1" stop-color="#996b3b"/></linearGradient><linearGradient id="d" x1="580" x2="660" y1="280" y2="280" gradientTransform="translate(0 20)" gradientUnits="userSpaceOnUse"><stop offset="0" stop-color="#f19d84"/><stop offset="1" stop-color="#996b3b"/></linearGradient><linearGradient id="e" x1="720" x2="800" y1="280" y2="280" gradientTransform="translate(0 20)" gradientUnits="userSpaceOnUse"><stop offset="0" stop-color="#f19d84"/><stop offset="1" stop-color="#996b3b"/></linearGradient><linearGradient id="f" x1="860" x2="940" y1="280" y2="280" gradientTransform="translate(0 20)" gradientUnits="userSpaceOnUse"><stop offset="0" stop-color="#f19d84"/><stop offset="1" stop-color="#996b3b"/></linearGradient><linearGradient id="g" x1="1000" x2="1080" y1="280" y2="280" gradientTransform="translate(0 20)" gradientUnits="userSpaceOnUse"><stop offset="0" stop-color="#f19d84"/><stop offset="1" stop-color="#996b3b"/></linearGradient><linearGradient id="h" x1="500" x2="640" y1="760" y2="760" gradientTransform="translate(0 20)" gradientUnits="userSpaceOnUse"><stop offset="0" stop-color="#f19d84"/><stop offset="1" stop-color="#996b3b"/></linearGradient><linearGradient id="i" x1="640" x2="780" y1="760" y2="760" gradientTransform="translate(0 20)" gradientUnits="userSpaceOnUse"><stop offset="0" stop-color="#f19d84"/><stop offset="1" stop-color="#996b3b"/></linearGradient><linearGradient id="j" x1="780" x2="920" y1="760" y2="760" gradientTransform="translate(0 20)" gradientUnits="userSpaceOnUse"><stop offset="0" stop-color="#f19d84"/><stop offset="1" stop-color="#996b3b"/></linearGradient><linearGradient id="k" x1="920" x2="1060" y1="760" y2="760" gradientTransform="translate(0 20)" gradientUnits="userSpaceOnUse"><stop offset="0" stop-color="#f19d84"/><stop offset="1" stop-color="#996b3b"/></linearGradient><linearGradient id="l" x1="500" x2="640" y1="600" y2="600" gradientTransform="translate(0 20)" gradientUnits="userSpaceOnUse"><stop offset="0" stop-color="#f19d84"/><stop offset="1" stop-color="#996b3b"/></linearGradient><linearGradient id="m" x1="640" x2="780" y1="600" y2="600" gradientTransform="translate(0 20)" gradientUnits="userSpaceOnUse"><stop offset="0" stop-color="#f19d84"/><stop offset="1" stop-color="#996b3b"/></linearGradient><linearGradient id="n" x1="780" x2="920" y1="600" y2="600" gradientTransform="translate(0 20)" gradientUnits="userSpaceOnUse"><stop offset="0" stop-color="#f19d84"/><stop offset="1" stop-color="#996b3b"/></linearGradient><linearGradient id="o" x1="920" x2="1060" y1="600" y2="600" gradientTransform="translate(0 20)" gradientUnits="userSpaceOnUse"><stop offset="0" stop-color="#f19d84"/><stop offset="1" stop-color="#996b3b"/></linearGradient><linearGradient id="p" x1="880" x2="1020" y1="840" y2="840" gradientTransform="translate(0 20)" gradientUnits="userSpaceOnUse"><stop offset="0" stop-color="#f19d84"/><stop offset="1" stop-color="#996b3b"/></linearGradient><linearGradient id="q" x1="740" x2="880" y1="840" y2="840" gradientTransform="translate(0 20)" gradientUnits="userSpaceOnUse"><stop offset="0" stop-color="#f19d84"/><stop offset="1" stop-color="#996b3b"/></linearGradient><linearGradient id="r" x1="600" x2="740" y1="840" y2="840" gradientTransform="translate(0 20)" gradientUnits="userSpaceOnUse"><stop offset="0" stop-color="#f19d84"/><stop offset="1" stop-color="#996b3b"/></linearGradient><linearGradient id="s" x1="460" x2="600" y1="840" y2="840" gradientTransform="translate(0 20)" gradientUnits="userSpaceOnUse"><stop offset="0" stop-color="#f19d84"/><stop offset="1" stop-color="#996b3b"/></linearGradient><linearGradient id="t" x1="880" x2="1020" y1="680" y2="680" gradientTransform="translate(0 20)" gradientUnits="userSpaceOnUse"><stop offset="0" stop-color="#f19d84"/><stop offset="1" stop-color="#996b3b"/></linearGradient><linearGradient id="u" x1="740" x2="880" y1="680" y2="680" gradientTransform="translate(0 20)" gradientUnits="userSpaceOnUse"><stop offset="0" stop-color="#f19d84"/><stop offset="1" stop-color="#996b3b"/></linearGradient><linearGradient id="v" x1="600" x2="740" y1="680" y2="680" gradientTransform="translate(0 20)" gradientUnits="userSpaceOnUse"><stop offset="0" stop-color="#f19d84"/><stop offset="1" stop-color="#996b3b"/></linearGradient><linearGradient id="w" x1="460" x2="600" y1="680" y2="680" gradientTransform="translate(0 20)" gradientUnits="userSpaceOnUse"><stop offset="0" stop-color="#f19d84"/><stop offset="1" stop-color="#996b3b"/></linearGradient><linearGradient id="x" x1="880" x2="1020" y1="520" y2="520" gradientTransform="translate(0 20)" gradientUnits="userSpaceOnUse"><stop offset="0" stop-color="#f19d84"/><stop offset="1" stop-color="#996b3b"/></linearGradient><linearGradient id="y" x1="740" x2="880" y1="520" y2="520" gradientTransform="translate(0 20)" gradientUnits="userSpaceOnUse"><stop offset="0" stop-color="#f19d84"/><stop offset="1" stop-color="#996b3b"/></linearGradient><linearGradient id="z" x1="600" x2="740" y1="520" y2="520" gradientTransform="translate(0 20)" gradientUnits="userSpaceOnUse"><stop offset="0" stop-color="#f19d84"/><stop offset="1" stop-color="#996b3b"/></linearGradient><linearGradient id="A" x1="460" x2="600" y1="520" y2="520" gradientTransform="translate(0 20)" gradientUnits="userSpaceOnUse"><stop offset="0" stop-color="#f19d84"/><stop offset="1" stop-color="#996b3b"/></linearGradient><linearGradient id="B" x1="500" x2="640" y1="440" y2="440" gradientTransform="translate(0 20)" gradientUnits="userSpaceOnUse"><stop offset="0" stop-color="#f19d84"/><stop offset="1" stop-color="#996b3b"/></linearGradient><linearGradient id="C" x1="640" x2="780" y1="440" y2="440" gradientTransform="translate(0 20)" gradientUnits="userSpaceOnUse"><stop offset="0" stop-color="#f19d84"/><stop offset="1" stop-color="#996b3b"/></linearGradient><linearGradient id="D" x1="780" x2="920" y1="440" y2="440" gradientTransform="translate(0 20)" gradientUnits="userSpaceOnUse"><stop offset="0" stop-color="#f19d84"/><stop offset="1" stop-color="#996b3b"/></linearGradient><linearGradient id="E" x1="920" x2="1060" y1="440" y2="440" gradientTransform="translate(0 20)" gradientUnits="userSpaceOnUse"><stop offset="0" stop-color="#f19d84"/><stop offset="1" stop-color="#996b3b"/></linearGradient><linearGradient id="F" x1="880" x2="1020" y1="360" y2="360" gradientTransform="translate(0 20)" gradientUnits="userSpaceOnUse"><stop offset="0" stop-color="#f19d84"/><stop offset="1" stop-color="#996b3b"/></linearGradient><linearGradient id="G" x1="740" x2="880" y1="360" y2="360" gradientTransform="translate(0 20)" gradientUnits="userSpaceOnUse"><stop offset="0" stop-color="#f19d84"/><stop offset="1" stop-color="#996b3b"/></linearGradient><linearGradient id="H" x1="600" x2="740" y1="360" y2="360" gradientTransform="translate(0 20)" gradientUnits="userSpaceOnUse"><stop offset="0" stop-color="#f19d84"/><stop offset="1" stop-color="#996b3b"/></linearGradient><linearGradient id="I" x1="460" x2="600" y1="360" y2="360" gradientTransform="translate(0 20)" gradientUnits="userSpaceOnUse"><stop offset="0" stop-color="#f19d84"/><stop offset="1" stop-color="#996b3b"/></linearGradient><linearGradient id="J" x1="100" x2="1400" y1="788.462" y2="788.462" gradientTransform="translate(0 20)" gradientUnits="userSpaceOnUse"><stop offset="0" stop-color="#ed6d48"/><stop offset="1" stop-color="#996b3b"/></linearGradient><linearGradient id="K" x1="1340" x2="1420" y1="538.462" y2="538.462" gradientTransform="translate(0 20)" gradientUnits="userSpaceOnUse"><stop offset="0" stop-color="#ed6d48"/><stop offset="1" stop-color="#996b3b"/></linearGradient><linearGradient id="L" x1="1200" x2="1280" y1="538.462" y2="538.462" gradientTransform="translate(0 20)" gradientUnits="userSpaceOnUse"><stop offset="0" stop-color="#ed6d48"/><stop offset="1" stop-color="#996b3b"/></linearGradient><linearGradient id="M" x1="1060" x2="1140" y1="538.462" y2="538.462" gradientTransform="translate(0 20)" gradientUnits="userSpaceOnUse"><stop offset="0" stop-color="#ed6d48"/><stop offset="1" stop-color="#996b3b"/></linearGradient><linearGradient id="N" x1="920" x2="1000" y1="538.462" y2="538.462" gradientTransform="translate(0 20)" gradientUnits="userSpaceOnUse"><stop offset="0" stop-color="#ed6d48"/><stop offset="1" stop-color="#996b3b"/></linearGradient><linearGradient id="O" x1="780" x2="860" y1="538.462" y2="538.462" gradientTransform="translate(0 20)" gradientUnits="userSpaceOnUse"><stop offset="0" stop-color="#ed6d48"/><stop offset="1" stop-color="#996b3b"/></linearGradient><linearGradient id="P" x1="640" x2="720" y1="538.462" y2="538.462" gradientTransform="translate(0 20)" gradientUnits="userSpaceOnUse"><stop offset="0" stop-color="#ed6d48"/><stop offset="1" stop-color="#996b3b"/></linearGradient><linearGradient id="Q" x1="500" x2="580" y1="538.462" y2="538.462" gradientTransform="translate(0 20)" gradientUnits="userSpaceOnUse"><stop offset="0" stop-color="#ed6d48"/><stop offset="1" stop-color="#996b3b"/></linearGradient><linearGradient id="R" x1="360" x2="440" y1="538.462" y2="538.462" gradientTransform="translate(0 20)" gradientUnits="userSpaceOnUse"><stop offset="0" stop-color="#ed6d48"/><stop offset="1" stop-color="#996b3b"/></linearGradient><linearGradient id="S" x1="220" x2="300" y1="538.462" y2="538.462" gradientTransform="translate(0 20)" gradientUnits="userSpaceOnUse"><stop offset="0" stop-color="#ed6d48"/><stop offset="1" stop-color="#996b3b"/></linearGradient><linearGradient id="T" x1="80" x2="160" y1="538.462" y2="538.462" gradientTransform="translate(0 20)" gradientUnits="userSpaceOnUse"><stop offset="0" stop-color="#ed6d48"/><stop offset="1" stop-color="#996b3b"/></linearGradient><linearGradient id="U" x1="1180" x2="1360" y1="610" y2="610" gradientTransform="translate(0 20)" gradientUnits="userSpaceOnUse"><stop offset="0" stop-color="#ed6d48"/><stop offset="1" stop-color="#996b3b"/></linearGradient><linearGradient id="V" x1="1000" x2="1180" y1="610" y2="610" gradientTransform="translate(0 20)" gradientUnits="userSpaceOnUse"><stop offset="0" stop-color="#ed6d48"/><stop offset="1" stop-color="#996b3b"/></linearGradient><linearGradient id="W" x1="820" x2="1000" y1="610" y2="610" gradientTransform="translate(0 20)" gradientUnits="userSpaceOnUse"><stop offset="0" stop-color="#ed6d48"/><stop offset="1" stop-color="#996b3b"/></linearGradient><linearGradient id="X" x1="640" x2="820" y1="610" y2="610" gradientTransform="translate(0 20)" gradientUnits="userSpaceOnUse"><stop offset="0" stop-color="#ed6d48"/><stop offset="1" stop-color="#996b3b"/></linearGradient><linearGradient id="Y" x1="460" x2="640" y1="610" y2="610" gradientTransform="translate(0 20)" gradientUnits="userSpaceOnUse"><stop offset="0" stop-color="#ed6d48"/><stop offset="1" stop-color="#996b3b"/></linearGradient><linearGradient id="Z" x1="280" x2="460" y1="610" y2="610" gradientTransform="translate(0 20)" gradientUnits="userSpaceOnUse"><stop offset="0" stop-color="#ed6d48"/><stop offset="1" stop-color="#996b3b"/></linearGradient><linearGradient id="aa" x1="1180" x2="1360" y1="970" y2="970" gradientTransform="translate(0 20)" gradientUnits="userSpaceOnUse"><stop offset="0" stop-color="#ed6d48"/><stop offset="1" stop-color="#996b3b"/></linearGradient><linearGradient id="ab" x1="1000" x2="1180" y1="970" y2="970" gradientTransform="translate(0 20)" gradientUnits="userSpaceOnUse"><stop offset="0" stop-color="#ed6d48"/><stop offset="1" stop-color="#996b3b"/></linearGradient><linearGradient id="ac" x1="820" x2="1000" y1="970" y2="970" gradientTransform="translate(0 20)" gradientUnits="userSpaceOnUse"><stop offset="0" stop-color="#ed6d48"/><stop offset="1" stop-color="#996b3b"/></linearGradient><linearGradient id="ad" x1="640" x2="820" y1="970" y2="970" gradientTransform="translate(0 20)" gradientUnits="userSpaceOnUse"><stop offset="0" stop-color="#ed6d48"/><stop offset="1" stop-color="#996b3b"/></linearGradient><linearGradient id="ae" x1="460" x2="640" y1="970" y2="970" gradientTransform="translate(0 20)" gradientUnits="userSpaceOnUse"><stop offset="0" stop-color="#ed6d48"/><stop offset="1" stop-color="#996b3b"/></linearGradient><linearGradient id="af" x1="280" x2="460" y1="970" y2="970" gradientTransform="translate(0 20)" gradientUnits="userSpaceOnUse"><stop offset="0" stop-color="#ed6d48"/><stop offset="1" stop-color="#996b3b"/></linearGradient><linearGradient id="ag" x1="100" x2="280" y1="970" y2="970" gradientTransform="translate(0 20)" gradientUnits="userSpaceOnUse"><stop offset="0" stop-color="#ed6d48"/><stop offset="1" stop-color="#996b3b"/></linearGradient><linearGradient id="ah" x1="140" x2="320" y1="910" y2="910" gradientTransform="translate(0 20)" gradientUnits="userSpaceOnUse"><stop offset="0" stop-color="#ed6d48"/><stop offset="1" stop-color="#996b3b"/></linearGradient><linearGradient id="ai" x1="320" x2="500" y1="910" y2="910" gradientTransform="translate(0 20)" gradientUnits="userSpaceOnUse"><stop offset="0" stop-color="#ed6d48"/><stop offset="1" stop-color="#996b3b"/></linearGradient><linearGradient id="aj" x1="500" x2="680" y1="910" y2="910" gradientTransform="translate(0 20)" gradientUnits="userSpaceOnUse"><stop offset="0" stop-color="#ed6d48"/><stop offset="1" stop-color="#996b3b"/></linearGradient><linearGradient id="ak" x1="680" x2="860" y1="910" y2="910" gradientTransform="translate(0 20)" gradientUnits="userSpaceOnUse"><stop offset="0" stop-color="#ed6d48"/><stop offset="1" stop-color="#996b3b"/></linearGradient><linearGradient id="al" x1="860" x2="1040" y1="910" y2="910" gradientTransform="translate(0 20)" gradientUnits="userSpaceOnUse"><stop offset="0" stop-color="#ed6d48"/><stop offset="1" stop-color="#996b3b"/></linearGradient><linearGradient id="am" x1="1040" x2="1220" y1="910" y2="910" gradientTransform="translate(0 20)" gradientUnits="userSpaceOnUse"><stop offset="0" stop-color="#ed6d48"/><stop offset="1" stop-color="#996b3b"/></linearGradient><linearGradient id="an" x1="1220" x2="1400" y1="910" y2="910" gradientTransform="translate(0 20)" gradientUnits="userSpaceOnUse"><stop offset="0" stop-color="#ed6d48"/><stop offset="1" stop-color="#996b3b"/></linearGradient><linearGradient id="ao" x1="1180" x2="1360" y1="850" y2="850" gradientTransform="translate(0 20)" gradientUnits="userSpaceOnUse"><stop offset="0" stop-color="#ed6d48"/><stop offset="1" stop-color="#996b3b"/></linearGradient><linearGradient id="ap" x1="1000" x2="1180" y1="850" y2="850" gradientTransform="translate(0 20)" gradientUnits="userSpaceOnUse"><stop offset="0" stop-color="#ed6d48"/><stop offset="1" stop-color="#996b3b"/></linearGradient><linearGradient id="aq" x1="820" x2="1000" y1="850" y2="850" gradientTransform="translate(0 20)" gradientUnits="userSpaceOnUse"><stop offset="0" stop-color="#ed6d48"/><stop offset="1" stop-color="#996b3b"/></linearGradient><linearGradient id="ar" x1="640" x2="820" y1="850" y2="850" gradientTransform="translate(0 20)" gradientUnits="userSpaceOnUse"><stop offset="0" stop-color="#ed6d48"/><stop offset="1" stop-color="#996b3b"/></linearGradient><linearGradient id="as" x1="460" x2="640" y1="850" y2="850" gradientTransform="translate(0 20)" gradientUnits="userSpaceOnUse"><stop offset="0" stop-color="#ed6d48"/><stop offset="1" stop-color="#996b3b"/></linearGradient><linearGradient id="at" x1="280" x2="460" y1="850" y2="850" gradientTransform="translate(0 20)" gradientUnits="userSpaceOnUse"><stop offset="0" stop-color="#ed6d48"/><stop offset="1" stop-color="#996b3b"/></linearGradient><linearGradient id="au" x1="100" x2="280" y1="850" y2="850" gradientTransform="translate(0 20)" gradientUnits="userSpaceOnUse"><stop offset="0" stop-color="#ed6d48"/><stop offset="1" stop-color="#996b3b"/></linearGradient><linearGradient id="av" x1="140" x2="320" y1="790" y2="790" gradientTransform="translate(0 20)" gradientUnits="userSpaceOnUse"><stop offset="0" stop-color="#ed6d48"/><stop offset="1" stop-color="#996b3b"/></linearGradient><linearGradient id="aw" x1="320" x2="500" y1="790" y2="790" gradientTransform="translate(0 20)" gradientUnits="userSpaceOnUse"><stop offset="0" stop-color="#ed6d48"/><stop offset="1" stop-color="#996b3b"/></linearGradient><linearGradient id="ax" x1="500" x2="680" y1="790" y2="790" gradientTransform="translate(0 20)" gradientUnits="userSpaceOnUse"><stop offset="0" stop-color="#ed6d48"/><stop offset="1" stop-color="#996b3b"/></linearGradient><linearGradient id="ay" x1="680" x2="860" y1="790" y2="790" gradientTransform="translate(0 20)" gradientUnits="userSpaceOnUse"><stop offset="0" stop-color="#ed6d48"/><stop offset="1" stop-color="#996b3b"/></linearGradient><linearGradient id="az" x1="860" x2="1040" y1="790" y2="790" gradientTransform="translate(0 20)" gradientUnits="userSpaceOnUse"><stop offset="0" stop-color="#ed6d48"/><stop offset="1" stop-color="#996b3b"/></linearGradient><linearGradient id="aA" x1="1040" x2="1220" y1="790" y2="790" gradientTransform="translate(0 20)" gradientUnits="userSpaceOnUse"><stop offset="0" stop-color="#ed6d48"/><stop offset="1" stop-color="#996b3b"/></linearGradient><linearGradient id="aB" x1="1220" x2="1400" y1="790" y2="790" gradientTransform="translate(0 20)" gradientUnits="userSpaceOnUse"><stop offset="0" stop-color="#ed6d48"/><stop offset="1" stop-color="#996b3b"/></linearGradient><linearGradient id="aC" x1="1180" x2="1360" y1="730" y2="730" gradientTransform="translate(0 20)" gradientUnits="userSpaceOnUse"><stop offset="0" stop-color="#ed6d48"/><stop offset="1" stop-color="#996b3b"/></linearGradient><linearGradient id="aD" x1="1000" x2="1180" y1="730" y2="730" gradientTransform="translate(0 20)" gradientUnits="userSpaceOnUse"><stop offset="0" stop-color="#ed6d48"/><stop offset="1" stop-color="#996b3b"/></linearGradient><linearGradient id="aE" x1="820" x2="1000" y1="730" y2="730" gradientTransform="translate(0 20)" gradientUnits="userSpaceOnUse"><stop offset="0" stop-color="#ed6d48"/><stop offset="1" stop-color="#996b3b"/></linearGradient><linearGradient id="aF" x1="640" x2="820" y1="730" y2="730" gradientTransform="translate(0 20)" gradientUnits="userSpaceOnUse"><stop offset="0" stop-color="#ed6d48"/><stop offset="1" stop-color="#996b3b"/></linearGradient><linearGradient id="aG" x1="460" x2="640" y1="730" y2="730" gradientTransform="translate(0 20)" gradientUnits="userSpaceOnUse"><stop offset="0" stop-color="#ed6d48"/><stop offset="1" stop-color="#996b3b"/></linearGradient><linearGradient id="aH" x1="280" x2="460" y1="730" y2="730" gradientTransform="translate(0 20)" gradientUnits="userSpaceOnUse"><stop offset="0" stop-color="#ed6d48"/><stop offset="1" stop-color="#996b3b"/></linearGradient><linearGradient id="aI" x1="100" x2="280" y1="730" y2="730" gradientTransform="translate(0 20)" gradientUnits="userSpaceOnUse"><stop offset="0" stop-color="#ed6d48"/><stop offset="1" stop-color="#996b3b"/></linearGradient><linearGradient id="aJ" x1="140" x2="320" y1="670" y2="670" gradientTransform="translate(0 20)" gradientUnits="userSpaceOnUse"><stop offset="0" stop-color="#ed6d48"/><stop offset="1" stop-color="#996b3b"/></linearGradient><linearGradient id="aK" x1="320" x2="500" y1="670" y2="670" gradientTransform="translate(0 20)" gradientUnits="userSpaceOnUse"><stop offset="0" stop-color="#ed6d48"/><stop offset="1" stop-color="#996b3b"/></linearGradient><linearGradient id="aL" x1="500" x2="680" y1="670" y2="670" gradientTransform="translate(0 20)" gradientUnits="userSpaceOnUse"><stop offset="0" stop-color="#ed6d48"/><stop offset="1" stop-color="#996b3b"/></linearGradient><linearGradient id="aM" x1="680" x2="860" y1="670" y2="670" gradientTransform="translate(0 20)" gradientUnits="userSpaceOnUse"><stop offset="0" stop-color="#ed6d48"/><stop offset="1" stop-color="#996b3b"/></linearGradient><linearGradient id="aN" x1="860" x2="1040" y1="670" y2="670" gradientTransform="translate(0 20)" gradientUnits="userSpaceOnUse"><stop offset="0" stop-color="#ed6d48"/><stop offset="1" stop-color="#996b3b"/></linearGradient><linearGradient id="aO" x1="1040" x2="1220" y1="670" y2="670" gradientTransform="translate(0 20)" gradientUnits="userSpaceOnUse"><stop offset="0" stop-color="#ed6d48"/><stop offset="1" stop-color="#996b3b"/></linearGradient><linearGradient id="aP" x1="1220" x2="1400" y1="670" y2="670" gradientTransform="translate(0 20)" gradientUnits="userSpaceOnUse"><stop offset="0" stop-color="#ed6d48"/><stop offset="1" stop-color="#996b3b"/></linearGradient><linearGradient id="aQ" x1="100" x2="280" y1="610" y2="610" gradientTransform="translate(0 20)" gradientUnits="userSpaceOnUse"><stop offset="0" stop-color="#ed6d48"/><stop offset="1" stop-color="#996b3b"/></linearGradient></defs><clipPath id="a"><path d="M0 0h2048v1024H0z"/></clipPath><g stroke="#000" stroke-linecap="butt" stroke-width="5" clip-path="url(#a)"><path fill="#91d04b" d="M1540 970c0-27.614 89.54-50 200-50s200 22.386 200 50-89.54 50-200 50-200-22.386-200-50Z"/><path fill="#8b8b8b" d="M1740 860h40v100h-40V860Z"/><path fill="#5e5e5e" d="M1700 960c20-5 80 0 80 0v20h-80s-20-15 0-20Zm40-60 40 20-40 20-20-20 20-20Z"/><path fill="#8b8b8b" d="M1800 860h40v100h-40V860Z"/><path fill="#5e5e5e" d="M1760 960c20-5 80 0 80 0v20h-80s-20-15 0-20Zm40-60 40 20-40 20-20-20 20-20Z"/><path fill="#8f1442" d="M1639 360h20v620h-20V360Z"/><path fill="#ddd" d="M1659 360h240l-60 100 60 100h-240V360Z"/><path fill="#fddf19" d="M1776.98 508.159h-54.46L1712.29 540H1680l52.75-154.897h34.9L1820 540h-33.5l-9.52-31.841Zm-8.63-26.692-18.45-60.95-19.05 60.95h37.5Z"/><path fill="#8b8b8b" d="M1660 760h80v40h-80v-40Z"/><path fill="#8b8b8b" d="M1700 692s30-27 40 0 0 108 0 108h-40V692Z"/><path fill="#5e5e5e" d="m1734.14 760 17.07 51.213-51.21-17.071V760h34.14ZM1620 760h40v40h-40v-40Z"/><path fill="#8b8b8b" d="M1740 680c35-15 74-10 99 20s1 100 1 100v60h-120v-60l-20-60s5-45 40-60Z"/><path fill="#8b8b8b" d="M1739.66 580h60.04l20.3 38.266s4.79 26.234 0 41.667c-4.79 15.434-19.15 20.067-19.15 20.067h-62.66L1720 659.792v-42.489L1739.66 580ZM1720 800s10 20 40 20 80-20 80-20l20 60s-70 20-100 20-60-20-60-20l20-60Z"/><path fill="#5e5e5e" d="m1720 620-20 20 20 20h60v-40h-60Z"/><path fill="#8b8b8b" d="M1799 696s30-36 40 0 0 144 0 144h-40V696Z"/><path fill="#5e5e5e" d="m1819 760 40 20-40 20-20-20 20-20Zm-20 80h40v40h-40v-40Z"/><path fill="#8b8b8b" d="M1300 617.817h-40v100h40v-100Z"/><path fill="#5e5e5e" d="M1340 717.817c-20-5-80 0-80 0v20h80s20-15 0-20Zm-40-60-40 20 40 20 20-20-20-20Z"/><path fill="#8b8b8b" d="M1240 617.817h-40v100h40v-100Z"/><path fill="#5e5e5e" d="M1280 717.817c-20-5-80 0-80 0v20h80s20-15 0-20Zm-40-60-40 20 40 20 20-20-20-20Z"/><path fill="#8b8b8b" d="m1403.43 477.107-56.57 56.568 28.29 28.284 56.57-56.568-28.29-28.284Z"/><path fill="#8b8b8b" d="M1327.06 457.308s-40.3 2.121-28.28 28.284c12.02 26.163 76.37 76.367 76.37 76.367l28.28-28.284-76.37-76.367Z"/><path fill="#5e5e5e" d="m1351.01 529.533 24.14 48.284 24.14-48.284-24.14-24.142-24.14 24.142Zm80.71-80.711-28.29 28.285 28.29 28.284 28.28-28.284-28.28-28.285Z"/><path fill="#8b8b8b" d="M1300 437.817c-35-15-75-10-100 20s0 100 0 100v60h120v-60l20-60s-5-45-40-60Z"/><path fill="#8b8b8b" d="M1320 557.817s-10 20-40 20-80-20-80-20l-20 60s70 20 100 20 60-20 60-20l-20-60Zm7.37-195.855L1271.49 340l-32.89 28.188s-14.05 22.664-15.24 38.779c-1.19 16.115 10.48 25.681 10.48 25.681l58.32 22.922 24.32-12.154 15.54-39.544-4.65-41.91Z"/><path d="m1331.04 406.382-14.64 37.228-55.84-21.949 14.64-37.227 55.84 21.948Z"/><path fill="#5e5e5e" d="m1329.31 362.726 26.33 10.347-10.35 26.324-55 23.966-15.98-36.671 55-23.966Z"/><path fill="#f5891d" d="m1471.3 443.845-99.55-18.82c-.13-.067-11.05 5.194-15.19 15.434-4.09 10.101-.46 21.519-.46 21.519l85.21 56.032 29.99-74.165Z"/><path fill="#3e68ff" d="M1437.77 473.429c8.28-20.48 23.29-33.725 33.53-29.584 10.24 4.141 11.83 24.101 3.55 44.581-8.28 20.48-23.3 33.725-33.54 29.584-10.24-4.141-11.83-24.101-3.54-44.581Z"/><path fill="#f5891d" d="m1441.31 431.716-99.55-18.82c-.13-.067-11.06 5.193-15.2 15.433-4.08 10.102-.45 21.519-.45 21.519l85.21 56.033 29.99-74.165Z"/><path fill="#3e68ff" d="M1407.77 461.3c8.28-20.48 23.3-33.726 33.54-29.584 10.24 4.141 11.83 24.1 3.54 44.58-8.28 20.48-23.29 33.726-33.53 29.585-10.24-4.142-11.83-24.101-3.55-44.581Z"/><path fill="#8b8b8b" d="m1306.89 466.102-56.57 56.568 28.29 28.284 56.56-56.568-28.28-28.284Z"/><path fill="#8b8b8b" d="M1230.52 446.303s-40.3 2.121-28.28 28.284c12.02 26.163 76.37 76.367 76.37 76.367l28.28-28.284-76.37-76.367Z"/><path fill="#5e5e5e" d="m1254.46 518.528 24.15 48.284 24.14-48.284-24.14-24.142-24.15 24.142Zm80.71-80.711-28.28 28.285 28.28 28.284 28.29-28.284-28.29-28.285Z"/><path fill="#8b8b8b" d="M1000 280h-40v100h40V280Z"/><path fill="#5e5e5e" d="M1040 380c-20-5-80 0-80 0v20h80s20-15 0-20Zm-40-60-40 20 40 20 20-20-20-20Z"/><path fill="#8b8b8b" d="M940 280h-40v100h40V280Z"/><path fill="#5e5e5e" d="M980 380c-20-5-80 0-80 0v20h80s20-15 0-20Zm-40-60-40 20 40 20 20-20-20-20Z"/><path fill="#8b8b8b" d="m1103.43 139.289-56.57 56.569 28.29 28.284 56.57-56.568-28.29-28.285Z"/><path fill="#8b8b8b" d="M1027.06 119.49s-40.301 2.122-28.28 28.285c12.02 26.163 76.37 76.367 76.37 76.367l28.28-28.284-76.37-76.368Z"/><path fill="#5e5e5e" d="M1051.01 191.716 1075.15 240l24.14-48.284-24.14-24.142-24.14 24.142Zm80.71-80.711-28.29 28.284 28.29 28.285 28.28-28.285-28.28-28.284Z"/><path fill="#8b8b8b" d="M1000 100c-35-15-75-10-100 20s0 100 0 100v60h120v-60l20-60s-5-45-40-60Z"/><path fill="#8b8b8b" d="M1020 220s-10 20-40 20-80-20-80-20l-20 60s70 20 100 20 60-20 60-20l-20-60Zm20.94-194.608L985.666 1.963l-33.624 27.31s-14.645 22.286-16.26 38.364c-1.614 16.078 9.802 25.95 9.802 25.95l57.686 24.451 24.64-11.507 16.58-39.12-3.55-42.019Z"/><path d="m1043.44 69.894-15.61 36.828-55.245-23.414 15.609-36.829 55.246 23.415Z"/><path fill="#5e5e5e" d="m1042.87 26.207 26.04 11.038-11.04 26.042-55.62 22.506-15.003-37.08 55.623-22.506Z"/><path fill="#ed6d48" d="m1164.14 135.595-89.46-47.548c-.11-.103-12.1 1.673-19.1 10.22-6.9 8.432-6.83 20.413-6.83 20.413l64.71 78.819 50.68-61.904Z"/><path fill="#3e68ff" d="M1123.33 153.878c13.99-17.094 32.26-25.28 40.81-18.283 8.55 6.997 4.13 26.526-9.86 43.62-14 17.095-32.27 25.281-40.82 18.284-8.54-6.997-4.13-26.526 9.87-43.621Z"/><path fill="#f5891d" d="m1139.1 115.102-89.46-47.548c-.1-.104-12.1 1.673-19.09 10.22-6.91 8.432-6.83 20.413-6.83 20.413l64.71 78.819 50.67-61.904Z"/><path fill="#3e68ff" d="M1098.29 133.385c13.99-17.094 32.27-25.28 40.81-18.283 8.55 6.996 4.14 26.526-9.86 43.62-13.99 17.094-32.26 25.28-40.81 18.284-8.55-6.997-4.13-26.527 9.86-43.621Z"/><path fill="#8b8b8b" d="m1006.89 128.284-56.568 56.569 28.284 28.284 56.564-56.568-28.28-28.285Z"/><path fill="#8b8b8b" d="M930.523 108.485s-40.305 2.122-28.284 28.285 76.367 76.367 76.367 76.367l28.284-28.284-76.367-76.368Z"/><path fill="#5e5e5e" d="m954.464 180.711 24.142 48.284 24.144-48.284-24.144-24.142-24.142 24.142ZM1035.17 100l-28.28 28.284 28.28 28.285 28.29-28.285L1035.17 100Z"/><path fill="#8f1442" d="M120 280h20v620h-20V280Z"/><path fill="#ddd" d="M140 280h240l-60 100 60 100H140V280Z"/><path fill="#fddf19" d="M245.921 460H180V300h70.658c17.829.289 30.46 5.97 37.895 17.042 4.473 6.802 6.71 14.944 6.71 24.423 0 9.77-2.237 17.621-6.71 23.555-2.5 3.329-6.185 6.369-11.053 9.118 7.434 2.967 13.043 7.671 16.826 14.112 3.783 6.44 5.674 14.256 5.674 23.446 0 9.48-2.171 17.983-6.513 25.509-2.763 4.993-6.217 9.19-10.362 12.591-4.671 3.908-10.181 6.586-16.53 8.033-6.348 1.447-13.24 2.171-20.674 2.171Zm-.691-70.448h-36.217v42.66h35.724c6.381 0 11.349-.941 14.901-2.823 6.448-3.473 9.671-10.131 9.671-19.972 0-8.322-3.125-14.039-9.375-17.151-3.487-1.737-8.388-2.641-14.704-2.714Zm15.099-30.502c3.947-2.605 5.921-7.273 5.921-14.003 0-7.453-2.632-12.374-7.895-14.762-4.539-1.664-10.329-2.497-17.368-2.497h-31.974v35.278h35.724c6.381 0 11.579-1.338 15.592-4.016Z"/><path fill="#8f1442" d="M480 20h20v620h-20V20Z"/><path fill="#ddd" d="M500 20h240l-60 100 60 100H500V20Z"/><path fill="#fddf19" d="M641.053 166.648C630.984 175.549 618.108 180 602.426 180c-19.405 0-34.661-6.013-45.767-18.038C545.553 149.877 540 133.312 540 112.268c0-22.755 6.316-40.292 18.947-52.612 10.984-10.73 24.958-16.093 41.923-16.093 22.7 0 39.298 7.191 49.794 21.575 5.797 8.076 8.909 16.181 9.336 24.316h-28.192c-1.831-6.248-4.18-10.964-7.048-14.147-5.126-5.66-12.723-8.49-22.792-8.49-10.252 0-18.337 3.995-24.256 11.982-5.919 7.988-8.879 19.291-8.879 33.911 0 14.619 3.127 25.569 9.382 32.849 6.255 7.28 14.203 10.92 23.844 10.92 9.886 0 17.422-3.124 22.609-9.373 2.868-3.36 5.248-8.4 7.14-15.12h27.917c-2.44 14.207-8.665 25.761-18.672 34.662Z"/><path fill="url(#b)" d="M460 340h600v560H460V340Z"/><path fill="url(#c)" d="M440 260h80v80h-80v-80Z"/><path fill="url(#d)" d="M580 260h80v80h-80v-80Z"/><path fill="url(#e)" d="M720 260h80v80h-80v-80Z"/><path fill="url(#f)" d="M860 260h80v80h-80v-80Z"/><path fill="url(#g)" d="M1000 260h80v80h-80v-80Z"/><path fill="url(#h)" d="M500 740h140v80H500v-80Z"/><path fill="url(#i)" d="M640 740h140v80H640v-80Z"/><path fill="url(#j)" d="M780 740h140v80H780v-80Z"/><path fill="url(#k)" d="M920 740h140v80H920v-80Z"/><path fill="url(#l)" d="M500 580h140v80H500v-80Z"/><path fill="url(#m)" d="M640 580h140v80H640v-80Z"/><path fill="url(#n)" d="M780 580h140v80H780v-80Z"/><path fill="url(#o)" d="M920 580h140v80H920v-80Z"/><path fill="url(#p)" d="M880 820h140v80H880v-80Z"/><path fill="url(#q)" d="M740 820h140v80H740v-80Z"/><path fill="url(#r)" d="M600 820h140v80H600v-80Z"/><path fill="url(#s)" d="M460 820h140v80H460v-80Z"/><path fill="url(#t)" d="M880 660h140v80H880v-80Z"/><path fill="url(#u)" d="M740 660h140v80H740v-80Z"/><path fill="url(#v)" d="M600 660h140v80H600v-80Z"/><path fill="url(#w)" d="M460 660h140v80H460v-80Z"/><path fill="url(#x)" d="M880 500h140v80H880v-80Z"/><path fill="url(#y)" d="M740 500h140v80H740v-80Z"/><path fill="url(#z)" d="M600 500h140v80H600v-80Z"/><path fill="url(#A)" d="M460 500h140v80H460v-80Z"/><path fill="url(#B)" d="M500 420h140v80H500v-80Z"/><path fill="url(#C)" d="M640 420h140v80H640v-80Z"/><path fill="url(#D)" d="M780 420h140v80H780v-80Z"/><path fill="url(#E)" d="M920 420h140v80H920v-80Z"/><path fill="url(#F)" d="M880 340h140v80H880v-80Z"/><path fill="url(#G)" d="M740 340h140v80H740v-80Z"/><path fill="url(#H)" d="M600 340h140v80H600v-80Z"/><path fill="url(#I)" d="M460 340h140v80H460v-80Z"/><path fill="url(#J)" d="M100 596.923h1300V1020H100V596.923Z"/><path fill="url(#K)" d="M1340 520h80v76.923h-80V520Z"/><path fill="url(#L)" d="M1200 520h80v76.923h-80V520Z"/><path fill="url(#M)" d="M1060 520h80v76.923h-80V520Z"/><path fill="url(#N)" d="M920 520h80v76.923h-80V520Z"/><path fill="url(#O)" d="M780 520h80v76.923h-80V520Z"/><path fill="url(#P)" d="M640 520h80v76.923h-80V520Z"/><path fill="url(#Q)" d="M500 520h80v76.923h-80V520Z"/><path fill="url(#R)" d="M360 520h80v76.923h-80V520Z"/><path fill="url(#S)" d="M220 520h80v76.923h-80V520Z"/><path fill="url(#T)" d="M80 520h80v76.923H80V520Z"/><path fill="url(#U)" d="M1180 600h180v60h-180v-60Z"/><path fill="url(#V)" d="M1000 600h180v60h-180v-60Z"/><path fill="url(#W)" d="M820 600h180v60H820v-60Z"/><path fill="url(#X)" d="M640 600h180v60H640v-60Z"/><path fill="url(#Y)" d="M460 600h180v60H460v-60Z"/><path fill="url(#Z)" d="M280 600h180v60H280v-60Z"/><path fill="url(#aa)" d="M1180 960h180v60h-180v-60Z"/><path fill="url(#ab)" d="M1000 960h180v60h-180v-60Z"/><path fill="url(#ac)" d="M820 960h180v60H820v-60Z"/><path fill="url(#ad)" d="M640 960h180v60H640v-60Z"/><path fill="url(#ae)" d="M460 960h180v60H460v-60Z"/><path fill="url(#af)" d="M280 960h180v60H280v-60Z"/><path fill="url(#ag)" d="M100 960h180v60H100v-60Z"/><path fill="url(#ah)" d="M140 900h180v60H140v-60Z"/><path fill="url(#ai)" d="M320 900h180v60H320v-60Z"/><path fill="url(#aj)" d="M500 900h180v60H500v-60Z"/><path fill="url(#ak)" d="M680 900h180v60H680v-60Z"/><path fill="url(#al)" d="M860 900h180v60H860v-60Z"/><path fill="url(#am)" d="M1040 900h180v60h-180v-60Z"/><path fill="url(#an)" d="M1220 900h180v60h-180v-60Z"/><path fill="url(#ao)" d="M1180 840h180v60h-180v-60Z"/><path fill="url(#ap)" d="M1000 840h180v60h-180v-60Z"/><path fill="url(#aq)" d="M820 840h180v60H820v-60Z"/><path fill="url(#ar)" d="M640 840h180v60H640v-60Z"/><path fill="url(#as)" d="M460 840h180v60H460v-60Z"/><path fill="url(#at)" d="M280 840h180v60H280v-60Z"/><path fill="url(#au)" d="M100 840h180v60H100v-60Z"/><path fill="url(#av)" d="M140 780h180v60H140v-60Z"/><path fill="url(#aw)" d="M320 780h180v60H320v-60Z"/><path fill="url(#ax)" d="M500 780h180v60H500v-60Z"/><path fill="url(#ay)" d="M680 780h180v60H680v-60Z"/><path fill="url(#az)" d="M860 780h180v60H860v-60Z"/><path fill="url(#aA)" d="M1040 780h180v60h-180v-60Z"/><path fill="url(#aB)" d="M1220 780h180v60h-180v-60Z"/><path fill="url(#aC)" d="M1180 720h180v60h-180v-60Z"/><path fill="url(#aD)" d="M1000 720h180v60h-180v-60Z"/><path fill="url(#aE)" d="M820 720h180v60H820v-60Z"/><path fill="url(#aF)" d="M640 720h180v60H640v-60Z"/><path fill="url(#aG)" d="M460 720h180v60H460v-60Z"/><path fill="url(#aH)" d="M280 720h180v60H280v-60Z"/><path fill="url(#aI)" d="M100 720h180v60H100v-60Z"/><path fill="url(#aJ)" d="M140 660h180v60H140v-60Z"/><path fill="url(#aK)" d="M320 660h180v60H320v-60Z"/><path fill="url(#aL)" d="M500 660h180v60H500v-60Z"/><path fill="url(#aM)" d="M680 660h180v60H680v-60Z"/><path fill="url(#aN)" d="M860 660h180v60H860v-60Z"/><path fill="url(#aO)" d="M1040 660h180v60h-180v-60Z"/><path fill="url(#aP)" d="M1220 660h180v60h-180v-60Z"/><path fill="url(#aQ)" d="M100 600h180v60H100v-60Z"/></g></svg>